<mxfile host="app.diagrams.net" agent="Mozilla/5.0 (Windows NT 10.0; Win64; x64) AppleWebKit/537.36 (KHTML, like Gecko) Chrome/136.0.0.0 Safari/537.36" version="27.0.5" pages="2">
  <diagram name="EER" id="CcD6GPtJSrnQqD8A2oX4">
    <mxGraphModel dx="2626" dy="9068" grid="1" gridSize="10" guides="1" tooltips="1" connect="1" arrows="1" fold="1" page="1" pageScale="1" pageWidth="1600" pageHeight="1200" math="0" shadow="0">
      <root>
        <mxCell id="0" />
        <mxCell id="1" parent="0" />
        <mxCell id="RRND7NYd9o2mTwfUmjbb-2" value="DOCTOR" style="whiteSpace=wrap;html=1;align=center;rounded=1;fillColor=#ffff88;strokeColor=#36393d;" parent="1" vertex="1">
          <mxGeometry x="-776" y="-7797.420000000001" width="150" height="60" as="geometry" />
        </mxCell>
        <mxCell id="RRND7NYd9o2mTwfUmjbb-3" value="PATIENT" style="whiteSpace=wrap;html=1;align=center;rounded=1;fillColor=#ffff88;strokeColor=#36393d;" parent="1" vertex="1">
          <mxGeometry x="160.94000000000005" y="-7817.42" width="150" height="60" as="geometry" />
        </mxCell>
        <mxCell id="RRND7NYd9o2mTwfUmjbb-6" value="DEPARTMENT" style="whiteSpace=wrap;html=1;align=center;rounded=1;fillColor=#ffff88;strokeColor=#36393d;" parent="1" vertex="1">
          <mxGeometry x="339.9999999999998" y="-7378.7699999999995" width="150" height="60" as="geometry" />
        </mxCell>
        <mxCell id="RRND7NYd9o2mTwfUmjbb-7" value="DISEASE" style="whiteSpace=wrap;html=1;align=center;rounded=1;fillColor=#ffff88;strokeColor=#36393d;" parent="1" vertex="1">
          <mxGeometry x="-704.77" y="-6515.550000000002" width="150" height="60" as="geometry" />
        </mxCell>
        <mxCell id="RRND7NYd9o2mTwfUmjbb-8" value="OPERATION" style="whiteSpace=wrap;html=1;align=center;rounded=1;fillColor=#ffff88;strokeColor=#36393d;" parent="1" vertex="1">
          <mxGeometry x="-444.28" y="-6769.340000000002" width="150" height="60" as="geometry" />
        </mxCell>
        <mxCell id="RRND7NYd9o2mTwfUmjbb-9" value="MEDICINE" style="whiteSpace=wrap;html=1;align=center;rounded=1;fillColor=#ffff88;strokeColor=#36393d;" parent="1" vertex="1">
          <mxGeometry x="-709.69" y="-6298.980000000001" width="150" height="60" as="geometry" />
        </mxCell>
        <mxCell id="RRND7NYd9o2mTwfUmjbb-14" value="PERSON" style="whiteSpace=wrap;html=1;align=center;rounded=1;fillColor=#ffff88;strokeColor=#36393d;" parent="1" vertex="1">
          <mxGeometry x="-361.5" y="-7910.21" width="150" height="60" as="geometry" />
        </mxCell>
        <mxCell id="RRND7NYd9o2mTwfUmjbb-16" value="O" style="ellipse;whiteSpace=wrap;html=1;rounded=1;fillColor=#dae8fc;strokeColor=#6c8ebf;" parent="1" vertex="1">
          <mxGeometry x="-306.05999999999995" y="-7794.34" width="34" height="26.48" as="geometry" />
        </mxCell>
        <mxCell id="RRND7NYd9o2mTwfUmjbb-20" value="" style="endArrow=none;html=1;rounded=1;fontSize=12;startSize=8;endSize=8;curved=1;entryX=1;entryY=0.25;entryDx=0;entryDy=0;exitX=1;exitY=0.5;exitDx=0;exitDy=0;fillColor=#dae8fc;strokeColor=#6c8ebf;" parent="1" source="RRND7NYd9o2mTwfUmjbb-131" target="RRND7NYd9o2mTwfUmjbb-2" edge="1">
          <mxGeometry relative="1" as="geometry">
            <mxPoint x="-1698.21" y="-6402.28" as="sourcePoint" />
            <mxPoint x="-61.5" y="-7455.500000000001" as="targetPoint" />
          </mxGeometry>
        </mxCell>
        <mxCell id="RRND7NYd9o2mTwfUmjbb-23" value="" style="endArrow=none;html=1;rounded=1;fontSize=12;startSize=8;endSize=8;curved=1;exitX=0.95;exitY=0.611;exitDx=0;exitDy=0;entryX=1;entryY=0.5;entryDx=0;entryDy=0;exitPerimeter=0;fillColor=#dae8fc;strokeColor=#6c8ebf;" parent="1" source="RRND7NYd9o2mTwfUmjbb-133" target="RRND7NYd9o2mTwfUmjbb-16" edge="1">
          <mxGeometry relative="1" as="geometry">
            <mxPoint x="-407.55999999999995" y="-3124.830000000001" as="sourcePoint" />
            <mxPoint x="-279.55999999999995" y="-3160.67" as="targetPoint" />
          </mxGeometry>
        </mxCell>
        <mxCell id="RRND7NYd9o2mTwfUmjbb-26" value="ID" style="ellipse;whiteSpace=wrap;html=1;align=center;fontStyle=4;rounded=1;fillColor=#ffcccc;strokeColor=#36393d;" parent="1" vertex="1">
          <mxGeometry x="-311.5" y="-8340" width="100" height="40" as="geometry" />
        </mxCell>
        <mxCell id="RRND7NYd9o2mTwfUmjbb-27" value="birth_year" style="ellipse;whiteSpace=wrap;html=1;align=center;rounded=1;" parent="1" vertex="1">
          <mxGeometry x="-333.30999999999995" y="-8240" width="100" height="40" as="geometry" />
        </mxCell>
        <mxCell id="RRND7NYd9o2mTwfUmjbb-28" value="location" style="ellipse;whiteSpace=wrap;html=1;align=center;rounded=1;" parent="1" vertex="1">
          <mxGeometry x="-374.05999999999995" y="-8079.999999999999" width="100" height="40" as="geometry" />
        </mxCell>
        <mxCell id="RRND7NYd9o2mTwfUmjbb-29" value="Name" style="ellipse;whiteSpace=wrap;html=1;align=center;rounded=1;" parent="1" vertex="1">
          <mxGeometry x="-322" y="-8290" width="100" height="40" as="geometry" />
        </mxCell>
        <mxCell id="RRND7NYd9o2mTwfUmjbb-30" value="gender" style="ellipse;whiteSpace=wrap;html=1;align=center;fontStyle=0;rounded=1;" parent="1" vertex="1">
          <mxGeometry x="-343" y="-8190" width="100" height="40" as="geometry" />
        </mxCell>
        <mxCell id="RRND7NYd9o2mTwfUmjbb-31" value="phone_number" style="ellipse;whiteSpace=wrap;html=1;align=center;fontStyle=0;rounded=1;" parent="1" vertex="1">
          <mxGeometry x="-385.80999999999995" y="-8034.12" width="100" height="40" as="geometry" />
        </mxCell>
        <mxCell id="RRND7NYd9o2mTwfUmjbb-32" value="social_status" style="ellipse;whiteSpace=wrap;html=1;align=center;fontStyle=0;rounded=1;" parent="1" vertex="1">
          <mxGeometry x="-357.6200000000001" y="-8129.999999999999" width="100" height="40" as="geometry" />
        </mxCell>
        <mxCell id="RRND7NYd9o2mTwfUmjbb-33" value="blood_type" style="ellipse;whiteSpace=wrap;html=1;align=center;fontStyle=0;rounded=1;" parent="1" vertex="1">
          <mxGeometry x="-401.21000000000004" y="-7990" width="100" height="40" as="geometry" />
        </mxCell>
        <mxCell id="RRND7NYd9o2mTwfUmjbb-35" value="salary" style="ellipse;whiteSpace=wrap;html=1;align=center;rounded=1;" parent="1" vertex="1">
          <mxGeometry x="-896" y="-7994.120000000001" width="100" height="40" as="geometry" />
        </mxCell>
        <mxCell id="RRND7NYd9o2mTwfUmjbb-36" value="Startdate" style="ellipse;whiteSpace=wrap;html=1;align=center;rounded=1;" parent="1" vertex="1">
          <mxGeometry x="-100.56000000000017" y="-7271.740000000002" width="100" height="40" as="geometry" />
        </mxCell>
        <mxCell id="RRND7NYd9o2mTwfUmjbb-37" value="Email" style="ellipse;whiteSpace=wrap;html=1;align=center;rounded=1;" parent="1" vertex="1">
          <mxGeometry x="-906" y="-7937.549999999999" width="100" height="40" as="geometry" />
        </mxCell>
        <mxCell id="RRND7NYd9o2mTwfUmjbb-38" value="work_phone" style="ellipse;whiteSpace=wrap;html=1;align=center;rounded=1;" parent="1" vertex="1">
          <mxGeometry x="-910" y="-7890.210000000002" width="100" height="40" as="geometry" />
        </mxCell>
        <mxCell id="RRND7NYd9o2mTwfUmjbb-39" value="NoEmployee" style="ellipse;whiteSpace=wrap;html=1;align=center;dashed=1;rounded=1;" parent="1" vertex="1">
          <mxGeometry x="389.9999999999998" y="-7255.469999999999" width="100" height="40" as="geometry" />
        </mxCell>
        <mxCell id="RRND7NYd9o2mTwfUmjbb-40" value="Experience" style="ellipse;whiteSpace=wrap;html=1;align=center;rounded=1;" parent="1" vertex="1">
          <mxGeometry x="-886" y="-8054.12" width="100" height="40" as="geometry" />
        </mxCell>
        <mxCell id="RRND7NYd9o2mTwfUmjbb-41" value="Specification" style="ellipse;whiteSpace=wrap;html=1;align=center;rounded=1;" parent="1" vertex="1">
          <mxGeometry x="-876" y="-8104.12" width="100" height="40" as="geometry" />
        </mxCell>
        <mxCell id="RRND7NYd9o2mTwfUmjbb-45" value="Emerg_condit..." style="ellipse;whiteSpace=wrap;html=1;align=center;rounded=1;" parent="1" vertex="1">
          <mxGeometry x="160.94000000000005" y="-7877.420000000001" width="100" height="40" as="geometry" />
        </mxCell>
        <mxCell id="RRND7NYd9o2mTwfUmjbb-46" value="NoPatient" style="ellipse;whiteSpace=wrap;html=1;align=center;dashed=1;rounded=1;" parent="1" vertex="1">
          <mxGeometry x="829.9999999999999" y="-6870.000000000002" width="100" height="40" as="geometry" />
        </mxCell>
        <mxCell id="RRND7NYd9o2mTwfUmjbb-47" value="Start_date" style="ellipse;whiteSpace=wrap;html=1;align=center;rounded=1;" parent="1" vertex="1">
          <mxGeometry x="-211.42999999999972" y="-7121.3600000000015" width="100" height="40" as="geometry" />
        </mxCell>
        <mxCell id="RRND7NYd9o2mTwfUmjbb-48" value="NoMedicine" style="ellipse;whiteSpace=wrap;html=1;align=center;dashed=1;rounded=1;" parent="1" vertex="1">
          <mxGeometry x="410.0000000000001" y="-7300.0199999999995" width="100" height="40" as="geometry" />
        </mxCell>
        <mxCell id="RRND7NYd9o2mTwfUmjbb-49" value="D_ID" style="ellipse;whiteSpace=wrap;html=1;align=center;fontStyle=4;rounded=1;fillColor=#ffcccc;strokeColor=#36393d;" parent="1" vertex="1">
          <mxGeometry x="359.9999999999998" y="-7066.829999999999" width="100" height="40" as="geometry" />
        </mxCell>
        <mxCell id="RRND7NYd9o2mTwfUmjbb-50" value="name" style="ellipse;whiteSpace=wrap;html=1;align=center;rounded=1;" parent="1" vertex="1">
          <mxGeometry x="364.9999999999997" y="-7114.3" width="100" height="40" as="geometry" />
        </mxCell>
        <mxCell id="RRND7NYd9o2mTwfUmjbb-51" value="location" style="ellipse;shape=doubleEllipse;margin=3;whiteSpace=wrap;html=1;align=center;rounded=1;" parent="1" vertex="1">
          <mxGeometry x="370.0000000000002" y="-7161.360000000001" width="100" height="40" as="geometry" />
        </mxCell>
        <mxCell id="RRND7NYd9o2mTwfUmjbb-52" value="capacity" style="ellipse;whiteSpace=wrap;html=1;align=center;rounded=1;" parent="1" vertex="1">
          <mxGeometry x="826.56" y="-6969.230000000001" width="100" height="40" as="geometry" />
        </mxCell>
        <mxCell id="RRND7NYd9o2mTwfUmjbb-53" value="NoSection" style="ellipse;whiteSpace=wrap;html=1;align=center;dashed=1;rounded=1;" parent="1" vertex="1">
          <mxGeometry x="380.0000000000002" y="-7209.47" width="100" height="40" as="geometry" />
        </mxCell>
        <mxCell id="RRND7NYd9o2mTwfUmjbb-54" value="cash" style="ellipse;whiteSpace=wrap;html=1;align=center;rounded=1;" parent="1" vertex="1">
          <mxGeometry x="-291.97000000000014" y="-6237.930000000001" width="100" height="40" as="geometry" />
        </mxCell>
        <mxCell id="RRND7NYd9o2mTwfUmjbb-55" value="ID" style="ellipse;whiteSpace=wrap;html=1;align=center;fontStyle=4;rounded=1;fillColor=#ffcccc;strokeColor=#36393d;" parent="1" vertex="1">
          <mxGeometry x="-643.4299999999998" y="-6690.250000000001" width="100" height="40" as="geometry" />
        </mxCell>
        <mxCell id="RRND7NYd9o2mTwfUmjbb-56" value="name" style="ellipse;whiteSpace=wrap;html=1;align=center;rounded=1;" parent="1" vertex="1">
          <mxGeometry x="-664.06" y="-6640.250000000001" width="100" height="40" as="geometry" />
        </mxCell>
        <mxCell id="RRND7NYd9o2mTwfUmjbb-57" value="NoDisease" style="ellipse;whiteSpace=wrap;html=1;align=center;dashed=1;rounded=1;" parent="1" vertex="1">
          <mxGeometry x="829.9999999999998" y="-6819.93" width="100" height="40" as="geometry" />
        </mxCell>
        <mxCell id="RRND7NYd9o2mTwfUmjbb-58" value="ID" style="ellipse;whiteSpace=wrap;html=1;align=center;fontStyle=4;rounded=1;fillColor=#ffcccc;strokeColor=#36393d;" parent="1" vertex="1">
          <mxGeometry x="-231.63" y="-6787.930000000001" width="100" height="40" as="geometry" />
        </mxCell>
        <mxCell id="RRND7NYd9o2mTwfUmjbb-59" value="name" style="ellipse;whiteSpace=wrap;html=1;align=center;rounded=1;" parent="1" vertex="1">
          <mxGeometry x="-271.68999999999994" y="-6737.930000000002" width="100" height="40" as="geometry" />
        </mxCell>
        <mxCell id="RRND7NYd9o2mTwfUmjbb-60" value="date" style="ellipse;whiteSpace=wrap;html=1;align=center;rounded=1;" parent="1" vertex="1">
          <mxGeometry x="-147.30999999999995" y="-6934.6500000000015" width="100" height="40" as="geometry" />
        </mxCell>
        <mxCell id="RRND7NYd9o2mTwfUmjbb-61" value="room" style="ellipse;whiteSpace=wrap;html=1;align=center;rounded=1;" parent="1" vertex="1">
          <mxGeometry x="-134.26999999999998" y="-6884.650000000002" width="100" height="40" as="geometry" />
        </mxCell>
        <mxCell id="RRND7NYd9o2mTwfUmjbb-62" value="NoOperation" style="ellipse;whiteSpace=wrap;html=1;align=center;dashed=1;rounded=1;" parent="1" vertex="1">
          <mxGeometry x="826.56" y="-6919.93" width="100" height="40" as="geometry" />
        </mxCell>
        <mxCell id="RRND7NYd9o2mTwfUmjbb-63" value="M_ID" style="ellipse;whiteSpace=wrap;html=1;align=center;fontStyle=4;rounded=1;fillColor=#ffcccc;strokeColor=#36393d;" parent="1" vertex="1">
          <mxGeometry x="-709.69" y="-6048.340000000002" width="100" height="40" as="geometry" />
        </mxCell>
        <mxCell id="RRND7NYd9o2mTwfUmjbb-64" value="name" style="ellipse;whiteSpace=wrap;html=1;align=center;rounded=1;" parent="1" vertex="1">
          <mxGeometry x="-695.3200000000002" y="-6098.340000000001" width="100" height="40" as="geometry" />
        </mxCell>
        <mxCell id="RRND7NYd9o2mTwfUmjbb-65" value="side effect" style="ellipse;shape=doubleEllipse;margin=3;whiteSpace=wrap;html=1;align=center;rounded=1;" parent="1" vertex="1">
          <mxGeometry x="-675.2600000000002" y="-6152.340000000001" width="100" height="40" as="geometry" />
        </mxCell>
        <mxCell id="RRND7NYd9o2mTwfUmjbb-74" value="&lt;span style=&quot;border-bottom: 1px dotted&quot;&gt;AKey&lt;/span&gt;" style="ellipse;whiteSpace=wrap;html=1;align=center;rounded=1;fillColor=#ffcccc;strokeColor=#36393d;" parent="1" vertex="1">
          <mxGeometry x="-121.42999999999995" y="-7600.000000000001" width="100" height="40" as="geometry" />
        </mxCell>
        <mxCell id="RRND7NYd9o2mTwfUmjbb-75" value="status" style="ellipse;whiteSpace=wrap;html=1;align=center;rounded=1;" parent="1" vertex="1">
          <mxGeometry x="-21.429999999999865" y="-7460" width="100" height="40" as="geometry" />
        </mxCell>
        <mxCell id="RRND7NYd9o2mTwfUmjbb-76" value="" style="endArrow=none;html=1;rounded=1;fontSize=12;startSize=8;endSize=8;curved=1;exitX=0.966;exitY=0.01;exitDx=0;exitDy=0;entryX=1;entryY=0.5;entryDx=0;entryDy=0;exitPerimeter=0;" parent="1" source="RRND7NYd9o2mTwfUmjbb-14" target="RRND7NYd9o2mTwfUmjbb-26" edge="1">
          <mxGeometry relative="1" as="geometry">
            <mxPoint x="-247.5" y="-7876.8099999999995" as="sourcePoint" />
            <mxPoint x="-221.5" y="-7929.81" as="targetPoint" />
          </mxGeometry>
        </mxCell>
        <mxCell id="RRND7NYd9o2mTwfUmjbb-77" value="" style="endArrow=none;html=1;rounded=1;fontSize=12;startSize=8;endSize=8;curved=1;exitX=0.916;exitY=0.026;exitDx=0;exitDy=0;entryX=1;entryY=0.5;entryDx=0;entryDy=0;exitPerimeter=0;" parent="1" source="RRND7NYd9o2mTwfUmjbb-14" target="RRND7NYd9o2mTwfUmjbb-29" edge="1">
          <mxGeometry relative="1" as="geometry">
            <mxPoint x="-272.5" y="-7896.8099999999995" as="sourcePoint" />
            <mxPoint x="-372.5" y="-7964.81" as="targetPoint" />
          </mxGeometry>
        </mxCell>
        <mxCell id="RRND7NYd9o2mTwfUmjbb-79" value="" style="endArrow=none;html=1;rounded=1;fontSize=12;startSize=8;endSize=8;curved=1;exitX=0.809;exitY=0.026;exitDx=0;exitDy=0;entryX=1;entryY=0.5;entryDx=0;entryDy=0;exitPerimeter=0;" parent="1" source="RRND7NYd9o2mTwfUmjbb-14" target="RRND7NYd9o2mTwfUmjbb-27" edge="1">
          <mxGeometry relative="1" as="geometry">
            <mxPoint x="-296.5" y="-7885.8099999999995" as="sourcePoint" />
            <mxPoint x="-468.5" y="-7954.81" as="targetPoint" />
          </mxGeometry>
        </mxCell>
        <mxCell id="RRND7NYd9o2mTwfUmjbb-80" value="" style="endArrow=none;html=1;rounded=1;fontSize=12;startSize=8;endSize=8;curved=1;exitX=0.75;exitY=0;exitDx=0;exitDy=0;entryX=1;entryY=0.5;entryDx=0;entryDy=0;" parent="1" source="RRND7NYd9o2mTwfUmjbb-14" target="RRND7NYd9o2mTwfUmjbb-30" edge="1">
          <mxGeometry relative="1" as="geometry">
            <mxPoint x="-286.5" y="-7875.8099999999995" as="sourcePoint" />
            <mxPoint x="-458.5" y="-7944.81" as="targetPoint" />
          </mxGeometry>
        </mxCell>
        <mxCell id="RRND7NYd9o2mTwfUmjbb-81" value="" style="endArrow=none;html=1;rounded=1;fontSize=12;startSize=8;endSize=8;curved=1;exitX=0.667;exitY=-0.019;exitDx=0;exitDy=0;entryX=1;entryY=0.5;entryDx=0;entryDy=0;exitPerimeter=0;" parent="1" source="RRND7NYd9o2mTwfUmjbb-14" target="RRND7NYd9o2mTwfUmjbb-32" edge="1">
          <mxGeometry relative="1" as="geometry">
            <mxPoint x="-466.5" y="-7879.8099999999995" as="sourcePoint" />
            <mxPoint x="-475.5" y="-7882.8099999999995" as="targetPoint" />
          </mxGeometry>
        </mxCell>
        <mxCell id="RRND7NYd9o2mTwfUmjbb-82" value="" style="endArrow=none;html=1;rounded=1;fontSize=12;startSize=8;endSize=8;curved=1;exitX=0.587;exitY=0.004;exitDx=0;exitDy=0;entryX=1;entryY=0.5;entryDx=0;entryDy=0;exitPerimeter=0;" parent="1" source="RRND7NYd9o2mTwfUmjbb-14" target="RRND7NYd9o2mTwfUmjbb-28" edge="1">
          <mxGeometry relative="1" as="geometry">
            <mxPoint x="-351.5" y="-7859.8099999999995" as="sourcePoint" />
            <mxPoint x="-598.5" y="-7894.8099999999995" as="targetPoint" />
          </mxGeometry>
        </mxCell>
        <mxCell id="RRND7NYd9o2mTwfUmjbb-83" value="" style="endArrow=none;html=1;rounded=1;fontSize=12;startSize=8;endSize=8;curved=1;exitX=0.5;exitY=0;exitDx=0;exitDy=0;entryX=1;entryY=0.5;entryDx=0;entryDy=0;" parent="1" source="RRND7NYd9o2mTwfUmjbb-14" target="RRND7NYd9o2mTwfUmjbb-31" edge="1">
          <mxGeometry relative="1" as="geometry">
            <mxPoint x="-341.5" y="-7849.8099999999995" as="sourcePoint" />
            <mxPoint x="-588.5" y="-7884.8099999999995" as="targetPoint" />
          </mxGeometry>
        </mxCell>
        <mxCell id="RRND7NYd9o2mTwfUmjbb-84" value="" style="endArrow=none;html=1;rounded=1;fontSize=12;startSize=8;endSize=8;curved=1;exitX=0.428;exitY=0.004;exitDx=0;exitDy=0;entryX=1;entryY=0.5;entryDx=0;entryDy=0;exitPerimeter=0;" parent="1" source="RRND7NYd9o2mTwfUmjbb-14" target="RRND7NYd9o2mTwfUmjbb-33" edge="1">
          <mxGeometry relative="1" as="geometry">
            <mxPoint x="-293.5" y="-7860.8099999999995" as="sourcePoint" />
            <mxPoint x="-383.5" y="-7746.24" as="targetPoint" />
          </mxGeometry>
        </mxCell>
        <mxCell id="RRND7NYd9o2mTwfUmjbb-85" value="" style="endArrow=none;html=1;rounded=1;fontSize=12;startSize=8;endSize=8;curved=1;exitX=0.114;exitY=0;exitDx=0;exitDy=0;entryX=1;entryY=0.5;entryDx=0;entryDy=0;exitPerimeter=0;" parent="1" source="RRND7NYd9o2mTwfUmjbb-2" target="RRND7NYd9o2mTwfUmjbb-35" edge="1">
          <mxGeometry relative="1" as="geometry">
            <mxPoint x="-9.210000000000036" y="-7733.56" as="sourcePoint" />
            <mxPoint x="40.789999999999964" y="-7700.56" as="targetPoint" />
          </mxGeometry>
        </mxCell>
        <mxCell id="RRND7NYd9o2mTwfUmjbb-86" value="" style="endArrow=none;html=1;rounded=1;fontSize=12;startSize=8;endSize=8;curved=1;exitX=0.346;exitY=0.865;exitDx=0;exitDy=0;entryX=1;entryY=0.5;entryDx=0;entryDy=0;exitPerimeter=0;" parent="1" source="RRND7NYd9o2mTwfUmjbb-178" target="RRND7NYd9o2mTwfUmjbb-291" edge="1">
          <mxGeometry relative="1" as="geometry">
            <mxPoint x="-53.15000000000009" y="-8005.910000000001" as="sourcePoint" />
            <mxPoint x="21.05999999999949" y="-7205.8" as="targetPoint" />
          </mxGeometry>
        </mxCell>
        <mxCell id="RRND7NYd9o2mTwfUmjbb-87" value="" style="endArrow=none;html=1;rounded=1;fontSize=12;startSize=8;endSize=8;curved=1;exitX=0;exitY=1;exitDx=0;exitDy=0;entryX=1;entryY=0.5;entryDx=0;entryDy=0;" parent="1" source="RRND7NYd9o2mTwfUmjbb-178" target="RRND7NYd9o2mTwfUmjbb-36" edge="1">
          <mxGeometry relative="1" as="geometry">
            <mxPoint x="-43.15000000000009" y="-7995.910000000001" as="sourcePoint" />
            <mxPoint x="6.849999999999909" y="-7962.910000000001" as="targetPoint" />
          </mxGeometry>
        </mxCell>
        <mxCell id="RRND7NYd9o2mTwfUmjbb-88" value="" style="endArrow=none;html=1;rounded=1;fontSize=12;startSize=8;endSize=8;curved=1;entryX=1;entryY=0.5;entryDx=0;entryDy=0;" parent="1" target="RRND7NYd9o2mTwfUmjbb-37" edge="1">
          <mxGeometry relative="1" as="geometry">
            <mxPoint x="-765" y="-7797" as="sourcePoint" />
            <mxPoint x="40.789999999999964" y="-7557.5599999999995" as="targetPoint" />
          </mxGeometry>
        </mxCell>
        <mxCell id="RRND7NYd9o2mTwfUmjbb-89" value="" style="endArrow=none;html=1;rounded=1;fontSize=12;startSize=8;endSize=8;curved=1;exitX=0.017;exitY=0.048;exitDx=0;exitDy=0;entryX=1;entryY=0.5;entryDx=0;entryDy=0;exitPerimeter=0;" parent="1" source="RRND7NYd9o2mTwfUmjbb-2" target="RRND7NYd9o2mTwfUmjbb-38" edge="1">
          <mxGeometry relative="1" as="geometry">
            <mxPoint x="-43.210000000000264" y="-7732.56" as="sourcePoint" />
            <mxPoint x="40.789999999999964" y="-7509.5599999999995" as="targetPoint" />
          </mxGeometry>
        </mxCell>
        <mxCell id="RRND7NYd9o2mTwfUmjbb-90" value="" style="endArrow=none;html=1;rounded=1;fontSize=12;startSize=8;endSize=8;curved=1;exitX=0.341;exitY=1.049;exitDx=0;exitDy=0;entryX=0;entryY=0.5;entryDx=0;entryDy=0;exitPerimeter=0;" parent="1" source="RRND7NYd9o2mTwfUmjbb-6" target="RRND7NYd9o2mTwfUmjbb-39" edge="1">
          <mxGeometry relative="1" as="geometry">
            <mxPoint x="-150.12000000000023" y="-8091.9400000000005" as="sourcePoint" />
            <mxPoint x="-66.12" y="-7868.94" as="targetPoint" />
          </mxGeometry>
        </mxCell>
        <mxCell id="RRND7NYd9o2mTwfUmjbb-91" value="" style="endArrow=none;html=1;rounded=1;fontSize=12;startSize=8;endSize=8;curved=1;entryX=1;entryY=0.5;entryDx=0;entryDy=0;exitX=0.174;exitY=-0.008;exitDx=0;exitDy=0;exitPerimeter=0;" parent="1" source="RRND7NYd9o2mTwfUmjbb-2" target="RRND7NYd9o2mTwfUmjbb-40" edge="1">
          <mxGeometry relative="1" as="geometry">
            <mxPoint x="-746.19" y="-7646.720000000001" as="sourcePoint" />
            <mxPoint x="-649.19" y="-7907.72" as="targetPoint" />
          </mxGeometry>
        </mxCell>
        <mxCell id="RRND7NYd9o2mTwfUmjbb-92" value="" style="endArrow=none;html=1;rounded=1;fontSize=12;startSize=8;endSize=8;curved=1;entryX=1;entryY=0.5;entryDx=0;entryDy=0;exitX=0.25;exitY=0;exitDx=0;exitDy=0;" parent="1" source="RRND7NYd9o2mTwfUmjbb-2" target="RRND7NYd9o2mTwfUmjbb-41" edge="1">
          <mxGeometry relative="1" as="geometry">
            <mxPoint x="-714.94" y="-7882.66" as="sourcePoint" />
            <mxPoint x="-723.19" y="-7953.009999999999" as="targetPoint" />
          </mxGeometry>
        </mxCell>
        <mxCell id="RRND7NYd9o2mTwfUmjbb-94" value="" style="endArrow=none;html=1;rounded=1;fontSize=12;startSize=8;endSize=8;curved=1;exitX=0;exitY=1;exitDx=0;exitDy=0;entryX=1;entryY=0.5;entryDx=0;entryDy=0;" parent="1" source="RRND7NYd9o2mTwfUmjbb-170" target="RRND7NYd9o2mTwfUmjbb-47" edge="1">
          <mxGeometry relative="1" as="geometry">
            <mxPoint x="-561.48" y="-7020.200000000002" as="sourcePoint" />
            <mxPoint x="-559.48" y="-7051.200000000002" as="targetPoint" />
          </mxGeometry>
        </mxCell>
        <mxCell id="RRND7NYd9o2mTwfUmjbb-95" value="" style="endArrow=none;html=1;rounded=1;fontSize=12;startSize=8;endSize=8;curved=1;exitX=0.5;exitY=1;exitDx=0;exitDy=0;entryX=0;entryY=0.5;entryDx=0;entryDy=0;" parent="1" source="RRND7NYd9o2mTwfUmjbb-6" target="RRND7NYd9o2mTwfUmjbb-48" edge="1">
          <mxGeometry relative="1" as="geometry">
            <mxPoint x="-556.96" y="-6761.670000000001" as="sourcePoint" />
            <mxPoint x="-554.96" y="-6792.670000000001" as="targetPoint" />
          </mxGeometry>
        </mxCell>
        <mxCell id="RRND7NYd9o2mTwfUmjbb-96" value="" style="endArrow=none;html=1;rounded=1;fontSize=12;startSize=8;endSize=8;curved=1;entryX=0.647;entryY=-0.022;entryDx=0;entryDy=0;exitX=1;exitY=0.5;exitDx=0;exitDy=0;entryPerimeter=0;" parent="1" source="RRND7NYd9o2mTwfUmjbb-45" target="RRND7NYd9o2mTwfUmjbb-3" edge="1">
          <mxGeometry relative="1" as="geometry">
            <mxPoint x="239.44000000000005" y="-7669.860000000001" as="sourcePoint" />
            <mxPoint x="466.44000000000005" y="-7654.700000000001" as="targetPoint" />
          </mxGeometry>
        </mxCell>
        <mxCell id="RRND7NYd9o2mTwfUmjbb-97" value="" style="endArrow=none;html=1;rounded=1;fontSize=12;startSize=8;endSize=8;curved=1;entryX=0;entryY=0.5;entryDx=0;entryDy=0;exitX=0.862;exitY=1.027;exitDx=0;exitDy=0;exitPerimeter=0;" parent="1" source="RRND7NYd9o2mTwfUmjbb-192" target="RRND7NYd9o2mTwfUmjbb-46" edge="1">
          <mxGeometry relative="1" as="geometry">
            <mxPoint x="695.3699999999999" y="-8396.46" as="sourcePoint" />
            <mxPoint x="799.31" y="-8563.74" as="targetPoint" />
          </mxGeometry>
        </mxCell>
        <mxCell id="RRND7NYd9o2mTwfUmjbb-98" value="" style="endArrow=none;html=1;rounded=1;fontSize=12;startSize=8;endSize=8;curved=1;entryX=0;entryY=0.5;entryDx=0;entryDy=0;exitX=0;exitY=1;exitDx=0;exitDy=0;" parent="1" source="RRND7NYd9o2mTwfUmjbb-9" target="RRND7NYd9o2mTwfUmjbb-63" edge="1">
          <mxGeometry relative="1" as="geometry">
            <mxPoint x="-709.6300000000001" y="-6258.730000000001" as="sourcePoint" />
            <mxPoint x="-909.6300000000001" y="-6679.810000000001" as="targetPoint" />
          </mxGeometry>
        </mxCell>
        <mxCell id="RRND7NYd9o2mTwfUmjbb-99" value="" style="endArrow=none;html=1;rounded=1;fontSize=12;startSize=8;endSize=8;curved=1;exitX=0.12;exitY=0.986;exitDx=0;exitDy=0;entryX=0.028;entryY=0.387;entryDx=0;entryDy=0;entryPerimeter=0;exitPerimeter=0;" parent="1" source="RRND7NYd9o2mTwfUmjbb-9" target="RRND7NYd9o2mTwfUmjbb-64" edge="1">
          <mxGeometry relative="1" as="geometry">
            <mxPoint x="-901.6300000000001" y="-6638.810000000001" as="sourcePoint" />
            <mxPoint x="-899.6300000000001" y="-6669.810000000001" as="targetPoint" />
          </mxGeometry>
        </mxCell>
        <mxCell id="RRND7NYd9o2mTwfUmjbb-100" value="" style="endArrow=none;html=1;rounded=1;fontSize=12;startSize=8;endSize=8;curved=1;exitX=0.25;exitY=1;exitDx=0;exitDy=0;entryX=0;entryY=0.5;entryDx=0;entryDy=0;" parent="1" source="RRND7NYd9o2mTwfUmjbb-9" target="RRND7NYd9o2mTwfUmjbb-65" edge="1">
          <mxGeometry relative="1" as="geometry">
            <mxPoint x="-891.6300000000001" y="-6628.810000000001" as="sourcePoint" />
            <mxPoint x="-889.6300000000001" y="-6659.810000000001" as="targetPoint" />
          </mxGeometry>
        </mxCell>
        <mxCell id="RRND7NYd9o2mTwfUmjbb-101" value="" style="endArrow=none;html=1;rounded=1;fontSize=12;startSize=8;endSize=8;curved=1;exitX=0.971;exitY=0;exitDx=0;exitDy=0;entryX=1;entryY=0.5;entryDx=0;entryDy=0;exitPerimeter=0;" parent="1" source="RRND7NYd9o2mTwfUmjbb-7" target="RRND7NYd9o2mTwfUmjbb-55" edge="1">
          <mxGeometry relative="1" as="geometry">
            <mxPoint x="-1026.77" y="-6828.900000000001" as="sourcePoint" />
            <mxPoint x="-1024.77" y="-6859.900000000001" as="targetPoint" />
          </mxGeometry>
        </mxCell>
        <mxCell id="RRND7NYd9o2mTwfUmjbb-102" value="" style="endArrow=none;html=1;rounded=1;fontSize=12;startSize=8;endSize=8;curved=1;exitX=0.815;exitY=-0.019;exitDx=0;exitDy=0;entryX=1;entryY=0.5;entryDx=0;entryDy=0;exitPerimeter=0;" parent="1" source="RRND7NYd9o2mTwfUmjbb-7" target="RRND7NYd9o2mTwfUmjbb-56" edge="1">
          <mxGeometry relative="1" as="geometry">
            <mxPoint x="-1016.77" y="-6818.900000000001" as="sourcePoint" />
            <mxPoint x="-1014.77" y="-6849.900000000001" as="targetPoint" />
          </mxGeometry>
        </mxCell>
        <mxCell id="RRND7NYd9o2mTwfUmjbb-103" value="" style="endArrow=none;html=1;rounded=1;fontSize=12;startSize=8;endSize=8;curved=1;entryX=0;entryY=0.5;entryDx=0;entryDy=0;exitX=0.75;exitY=1;exitDx=0;exitDy=0;" parent="1" source="RRND7NYd9o2mTwfUmjbb-192" target="RRND7NYd9o2mTwfUmjbb-57" edge="1">
          <mxGeometry relative="1" as="geometry">
            <mxPoint x="295.3699999999999" y="-6966.46" as="sourcePoint" />
            <mxPoint x="-495.68000000000006" y="-6546.11" as="targetPoint" />
          </mxGeometry>
        </mxCell>
        <mxCell id="RRND7NYd9o2mTwfUmjbb-104" value="" style="endArrow=none;html=1;rounded=1;fontSize=12;startSize=8;endSize=8;curved=1;exitX=0.329;exitY=1.028;exitDx=0;exitDy=0;entryX=0;entryY=0.5;entryDx=0;entryDy=0;exitPerimeter=0;" parent="1" target="RRND7NYd9o2mTwfUmjbb-160" edge="1">
          <mxGeometry relative="1" as="geometry">
            <mxPoint x="-276.0799999999996" y="-6397.470000000001" as="sourcePoint" />
            <mxPoint x="-440.05999999999995" y="-6342.920000000002" as="targetPoint" />
          </mxGeometry>
        </mxCell>
        <mxCell id="RRND7NYd9o2mTwfUmjbb-105" value="" style="endArrow=none;html=1;rounded=1;fontSize=12;startSize=8;endSize=8;curved=1;exitX=0.25;exitY=1;exitDx=0;exitDy=0;entryX=0;entryY=0.5;entryDx=0;entryDy=0;" parent="1" target="RRND7NYd9o2mTwfUmjbb-54" edge="1">
          <mxGeometry relative="1" as="geometry">
            <mxPoint x="-287.92999999999904" y="-6399.150000000001" as="sourcePoint" />
            <mxPoint x="-443.05999999999995" y="-6522.010000000001" as="targetPoint" />
          </mxGeometry>
        </mxCell>
        <mxCell id="RRND7NYd9o2mTwfUmjbb-106" value="" style="endArrow=none;html=1;rounded=1;fontSize=12;startSize=8;endSize=8;curved=1;exitX=0;exitY=0.5;exitDx=0;exitDy=0;entryX=0.958;entryY=0.036;entryDx=0;entryDy=0;entryPerimeter=0;" parent="1" source="RRND7NYd9o2mTwfUmjbb-58" target="RRND7NYd9o2mTwfUmjbb-8" edge="1">
          <mxGeometry relative="1" as="geometry">
            <mxPoint x="-540.28" y="-6855.1100000000015" as="sourcePoint" />
            <mxPoint x="-633.28" y="-6892.1100000000015" as="targetPoint" />
          </mxGeometry>
        </mxCell>
        <mxCell id="RRND7NYd9o2mTwfUmjbb-107" value="" style="endArrow=none;html=1;rounded=1;fontSize=12;startSize=8;endSize=8;curved=1;entryX=0;entryY=0.5;entryDx=0;entryDy=0;exitX=1.006;exitY=0.145;exitDx=0;exitDy=0;exitPerimeter=0;" parent="1" source="RRND7NYd9o2mTwfUmjbb-8" target="RRND7NYd9o2mTwfUmjbb-59" edge="1">
          <mxGeometry relative="1" as="geometry">
            <mxPoint x="-326.28" y="-6778.700000000001" as="sourcePoint" />
            <mxPoint x="-623.28" y="-6882.1100000000015" as="targetPoint" />
          </mxGeometry>
        </mxCell>
        <mxCell id="RRND7NYd9o2mTwfUmjbb-108" value="" style="endArrow=none;html=1;rounded=1;fontSize=12;startSize=8;endSize=8;curved=1;exitX=0;exitY=0.5;exitDx=0;exitDy=0;entryX=1;entryY=1;entryDx=0;entryDy=0;" parent="1" source="RRND7NYd9o2mTwfUmjbb-60" target="RRND7NYd9o2mTwfUmjbb-271" edge="1">
          <mxGeometry relative="1" as="geometry">
            <mxPoint x="-555.3399999999999" y="-6859.830000000002" as="sourcePoint" />
            <mxPoint x="-361.3399999999999" y="-6783.420000000001" as="targetPoint" />
          </mxGeometry>
        </mxCell>
        <mxCell id="RRND7NYd9o2mTwfUmjbb-109" value="" style="endArrow=none;html=1;rounded=1;fontSize=12;startSize=8;endSize=8;curved=1;exitX=0;exitY=0.5;exitDx=0;exitDy=0;entryX=0.621;entryY=0.912;entryDx=0;entryDy=0;entryPerimeter=0;" parent="1" source="RRND7NYd9o2mTwfUmjbb-61" target="RRND7NYd9o2mTwfUmjbb-271" edge="1">
          <mxGeometry relative="1" as="geometry">
            <mxPoint x="-545.3399999999999" y="-6849.830000000002" as="sourcePoint" />
            <mxPoint x="-638.3399999999999" y="-6886.830000000002" as="targetPoint" />
          </mxGeometry>
        </mxCell>
        <mxCell id="RRND7NYd9o2mTwfUmjbb-110" value="" style="endArrow=none;html=1;rounded=1;fontSize=12;startSize=8;endSize=8;curved=1;exitX=0;exitY=0.5;exitDx=0;exitDy=0;entryX=1;entryY=1;entryDx=0;entryDy=0;" parent="1" source="RRND7NYd9o2mTwfUmjbb-62" target="RRND7NYd9o2mTwfUmjbb-192" edge="1">
          <mxGeometry relative="1" as="geometry">
            <mxPoint x="11.720000000000027" y="-6723.64" as="sourcePoint" />
            <mxPoint x="-81.27999999999997" y="-6760.64" as="targetPoint" />
          </mxGeometry>
        </mxCell>
        <mxCell id="RRND7NYd9o2mTwfUmjbb-111" value="" style="endArrow=none;html=1;rounded=1;fontSize=12;startSize=8;endSize=8;curved=1;exitX=0.039;exitY=0.248;exitDx=0;exitDy=0;entryX=0.25;entryY=1;entryDx=0;entryDy=0;exitPerimeter=0;" parent="1" source="RRND7NYd9o2mTwfUmjbb-53" target="RRND7NYd9o2mTwfUmjbb-6" edge="1">
          <mxGeometry relative="1" as="geometry">
            <mxPoint x="-104.75000000000011" y="-6016.380000000001" as="sourcePoint" />
            <mxPoint x="226.25" y="-6416.750000000001" as="targetPoint" />
          </mxGeometry>
        </mxCell>
        <mxCell id="RRND7NYd9o2mTwfUmjbb-112" value="" style="endArrow=none;html=1;rounded=1;fontSize=12;startSize=8;endSize=8;curved=1;exitX=1;exitY=0.5;exitDx=0;exitDy=0;entryX=0;entryY=0.5;entryDx=0;entryDy=0;" parent="1" source="RRND7NYd9o2mTwfUmjbb-192" target="RRND7NYd9o2mTwfUmjbb-52" edge="1">
          <mxGeometry relative="1" as="geometry">
            <mxPoint x="638.53" y="-6502.710000000002" as="sourcePoint" />
            <mxPoint x="224.52999999999975" y="-6119.340000000001" as="targetPoint" />
          </mxGeometry>
        </mxCell>
        <mxCell id="RRND7NYd9o2mTwfUmjbb-113" value="" style="endArrow=none;html=1;rounded=1;fontSize=12;startSize=8;endSize=8;curved=1;exitX=0;exitY=0.5;exitDx=0;exitDy=0;entryX=1;entryY=1;entryDx=0;entryDy=0;" parent="1" source="RRND7NYd9o2mTwfUmjbb-193" target="0JAMLqSG2PyNZ8wUR2UJ-2" edge="1">
          <mxGeometry relative="1" as="geometry">
            <mxPoint x="690.03" y="-6529.980000000002" as="sourcePoint" />
            <mxPoint x="638.53" y="-6522.710000000002" as="targetPoint" />
          </mxGeometry>
        </mxCell>
        <mxCell id="RRND7NYd9o2mTwfUmjbb-114" value="" style="endArrow=none;html=1;rounded=1;fontSize=12;startSize=8;endSize=8;curved=1;exitX=1;exitY=1;exitDx=0;exitDy=0;entryX=0;entryY=0.5;entryDx=0;entryDy=0;" parent="1" source="RRND7NYd9o2mTwfUmjbb-194" target="RRND7NYd9o2mTwfUmjbb-74" edge="1">
          <mxGeometry relative="1" as="geometry">
            <mxPoint x="-231.45999999999958" y="-7614.080000000002" as="sourcePoint" />
            <mxPoint x="-373.46000000000004" y="-7479.250000000002" as="targetPoint" />
          </mxGeometry>
        </mxCell>
        <mxCell id="RRND7NYd9o2mTwfUmjbb-115" value="" style="endArrow=none;html=1;rounded=1;fontSize=12;startSize=8;endSize=8;curved=1;exitX=0;exitY=0.5;exitDx=0;exitDy=0;entryX=0.009;entryY=0.949;entryDx=0;entryDy=0;entryPerimeter=0;" parent="1" source="RRND7NYd9o2mTwfUmjbb-49" target="RRND7NYd9o2mTwfUmjbb-6" edge="1">
          <mxGeometry relative="1" as="geometry">
            <mxPoint x="293.3100000000002" y="-6650.38" as="sourcePoint" />
            <mxPoint x="200.30999999999972" y="-6687.38" as="targetPoint" />
          </mxGeometry>
        </mxCell>
        <mxCell id="RRND7NYd9o2mTwfUmjbb-116" value="" style="endArrow=none;html=1;rounded=1;fontSize=12;startSize=8;endSize=8;curved=1;exitX=0;exitY=0.5;exitDx=0;exitDy=0;entryX=0.117;entryY=1.013;entryDx=0;entryDy=0;entryPerimeter=0;" parent="1" source="RRND7NYd9o2mTwfUmjbb-50" target="RRND7NYd9o2mTwfUmjbb-6" edge="1">
          <mxGeometry relative="1" as="geometry">
            <mxPoint x="293.3100000000002" y="-6650.38" as="sourcePoint" />
            <mxPoint x="438.80999999999995" y="-7305.7699999999995" as="targetPoint" />
          </mxGeometry>
        </mxCell>
        <mxCell id="RRND7NYd9o2mTwfUmjbb-117" value="" style="endArrow=none;html=1;rounded=1;fontSize=12;startSize=8;endSize=8;curved=1;exitX=0.028;exitY=0.307;exitDx=0;exitDy=0;exitPerimeter=0;entryX=0.168;entryY=1.026;entryDx=0;entryDy=0;entryPerimeter=0;" parent="1" source="RRND7NYd9o2mTwfUmjbb-51" target="RRND7NYd9o2mTwfUmjbb-6" edge="1">
          <mxGeometry relative="1" as="geometry">
            <mxPoint x="293.3100000000002" y="-6650.38" as="sourcePoint" />
            <mxPoint x="448.80999999999995" y="-7295.7699999999995" as="targetPoint" />
          </mxGeometry>
        </mxCell>
        <mxCell id="RRND7NYd9o2mTwfUmjbb-118" value="" style="endArrow=none;html=1;rounded=1;fontSize=12;startSize=8;endSize=8;curved=1;exitX=1;exitY=1;exitDx=0;exitDy=0;entryX=0;entryY=0.5;entryDx=0;entryDy=0;" parent="1" source="RRND7NYd9o2mTwfUmjbb-74" target="RRND7NYd9o2mTwfUmjbb-259" edge="1">
          <mxGeometry relative="1" as="geometry">
            <mxPoint x="-241.45999999999958" y="-7614.080000000002" as="sourcePoint" />
            <mxPoint x="184.53999999999996" y="-7361.250000000002" as="targetPoint" />
          </mxGeometry>
        </mxCell>
        <mxCell id="RRND7NYd9o2mTwfUmjbb-130" value="" style="endArrow=none;html=1;rounded=1;fontSize=12;startSize=8;endSize=8;curved=1;entryX=0.908;entryY=0.543;entryDx=0;entryDy=0;exitX=0;exitY=0.5;exitDx=0;exitDy=0;entryPerimeter=0;fillColor=#dae8fc;strokeColor=#6c8ebf;" parent="1" source="RRND7NYd9o2mTwfUmjbb-16" target="RRND7NYd9o2mTwfUmjbb-131" edge="1">
          <mxGeometry relative="1" as="geometry">
            <mxPoint x="-569.25" y="-3609.9500000000003" as="sourcePoint" />
            <mxPoint x="-248.25" y="-3572.9500000000003" as="targetPoint" />
          </mxGeometry>
        </mxCell>
        <mxCell id="RRND7NYd9o2mTwfUmjbb-131" value="" style="shape=stencil(rVpdc1wnDP01+8oAAgTPafo/MhOn9tS1M47Tj39f0R2uF+nu4d6Zvm0cnV0Q4uhI4kKffjx++f5wif7H+9vr7w9/PX19f7zQL5cYn14eH96e3uXThT5f6NO317eH395ef758vf77+5du2T/98fpn/4a/r7jsInVQ9P9c/1Ach//+8OvV/Pnp5cacXcvaPN83D95Fr+0jsI8uJmVfGNhnx22yzy4nYM+uzOtP4wt27WNwFCf76AoBe3KxTPYB7leWG+pk712twJ71erxLaD3NESn7CM6Lgot6PaEAe3KhaXuwX5L9emXvgf+JnTf2wD9UXdXr8WD9yev4EXvgnyTHr/0D7ZPLxh7EZyouGXtwvqk64hP2WY7f2IPzynEc/0H7NNx90D5rPhF7QD+ZXT1l3xynE/YluHLKngbd3Nh7YJ/HdT1oz/b+QvvmouYHZM9hXNeD9jSO86D9Dr8lcH+ZNZ8EyD8s/DbHW4TfX4M+L7mggH8q6ftVRr7ct8+O5vVXl8D6q+FzyZiMNtB0vg5CwWBFzZyw5MwEttyivmKSNBvYQ8ua4+TQ4C8U/QuSNivI8k1YfT41yWsFhF1rLs3HRrIrwEMCUHmAhInxL7QwA+Qr0Dm04cQt8qJrIBV0wOxWSQ5hsaR5D6kNNXUQIHRPSG15r9OxEHgGa9pDVKigdhBCylhjWkSCKmoPUSGP7SA6dWLn8hwgnByBRfUgny+qkGEC+26suV7YkNE12ryykVPE3EFaDQq/IXkhZMMKIIsE+VPojGe31gqpoG71wwDIbxJiZDIAIUz0CyIBggagGoTrcOIGSHAPXLQI+6DQfcAWORugwE1z1KHRFmWdH8d0A6gg+OS+6D0U15AykRVnAwCULHc4nQNEl88BvC4GOwCpyeq4nAKIE88Bks4SC7dmEWSnziGHEf0HAT2JmOCrIL0n3olWCNgEyVEADdF2FBA0zSwAkszrOQBrPdABqFIto7A4CkgunAN44yU5GXDSom118FUos2IexfgGED0OkqKo80YawAjgdwDoHELVmqarHKQe2FygTXjdaznpC7TpqH0AGapcAIIuOm7kx37e1XJ3BWAt2VeAoPsqa0A051DBSXtdqLettLtjrwqnhnWlN8fMMCMavbfIoN6IgAw7f95ktzRyxR17zS9ptFbv+F81kkTFVNQp1I05sUdiMrrS9HpQJ8w0CsW+AH8KxRftzwT8STupGdUy1p6hPLfrqZDq7H4brBesPxuMtzj6pkdpy8RDG9R6MN7akFcH47lCWWHvS4Wlhb2PDOPN3vcCO6+WTzKsjfyoSW/imRCpGz4kKE4N4bYtYv8Xe5MyVt9vJhsrAA9/3wJwrtdXEhdeMenhUi9Y0TSnGAklNQMixTpi7KbaRO058juAgGjOVmpSlSCeszJwAbBCcwGwUnYBsGIZA3b0+wJgSwoPs8dOlbMA2MLLQ+27Uwt62Eru5WkyABBLvWI2oYEomL25cR52kJgMaeNxFueR87Z2TYPzRGY9z611EM+9hn6Yl1QZ6qgatHARABr51U3XbIAycsW9lpMKvpqgtOg+UUuKkAR6C2uOJcZe6rljditnOJeQZKbCW84eAormpUWHdAeA27YW0HvJyEsG0FsTyEtFazAhHjQ9bkWLBuFCJLK7Jp1PmoJruAXrZ9kjpRj0UtQ6KeLg6xyhZiURN0ibHul1bQbytNwvtaTAsFdYsyYBqaERGfepmypPaTXWK/MepIZGZCz3S1FlHV2uex3YYt6loLmkmboVOIqxc9uFvZkLL+zN3Hlhb+baC3szN8dzUjuXX9ibuf/C3rwrWNibdw4b2ewLEvPuosA5h30HUiCx2HcpG5fd02x6oAWHHEQ23tCcXcqFrL8f7TcaJi0un5LyPMYF92oFXY7D6jHU0Tz46F9BVgxlzO1vGAX+QnIpaUBBjcc4lNMGiFCH2Ld0HQCC1LzVkxWhvqN5Cti/Hz0+0lP5/v3oMZRuQYg9GpknfSdDgC1BGg2HmzOGDXI9GewxAVtSRbUsRs/mqDlukKnVVPiyz2yWYfvQ+BJ3u8xRMYw0EwkFvqo8+eZ0aS4fPp63fnt6fr6+jr39f/0cVv50fUpLn/8F);lineShape=1;strokeColor=#6c8ebf;rotation=-180;rounded=1;fillColor=#dae8fc;" parent="1" vertex="1">
          <mxGeometry x="-345.6900000000003" y="-7787.4800000000005" width="12.38" height="14.02" as="geometry" />
        </mxCell>
        <mxCell id="RRND7NYd9o2mTwfUmjbb-132" value="" style="endArrow=none;html=1;rounded=1;fontSize=12;startSize=8;endSize=8;curved=1;exitX=0;exitY=0.5;exitDx=0;exitDy=0;entryX=0.991;entryY=0.554;entryDx=0;entryDy=0;entryPerimeter=0;fillColor=#dae8fc;strokeColor=#6c8ebf;" parent="1" source="RRND7NYd9o2mTwfUmjbb-3" target="RRND7NYd9o2mTwfUmjbb-133" edge="1">
          <mxGeometry relative="1" as="geometry">
            <mxPoint x="476.94000000000005" y="-7388.12" as="sourcePoint" />
            <mxPoint x="482.94000000000005" y="-7497.12" as="targetPoint" />
          </mxGeometry>
        </mxCell>
        <mxCell id="RRND7NYd9o2mTwfUmjbb-133" value="" style="shape=stencil(rVpdc1wnDP01+8oAAgTPafo/MhOn9tS1M47Tj39f0R2uF+nu4d6Zvm0cnV0Q4uhI4kKffjx++f5wif7H+9vr7w9/PX19f7zQL5cYn14eH96e3uXThT5f6NO317eH395ef758vf77+5du2T/98fpn/4a/r7jsInVQ9P9c/1Ach//+8OvV/Pnp5cacXcvaPN83D95Fr+0jsI8uJmVfGNhnx22yzy4nYM+uzOtP4wt27WNwFCf76AoBe3KxTPYB7leWG+pk712twJ71erxLaD3NESn7CM6Lgot6PaEAe3KhaXuwX5L9emXvgf+JnTf2wD9UXdXr8WD9yev4EXvgnyTHr/0D7ZPLxh7EZyouGXtwvqk64hP2WY7f2IPzynEc/0H7NNx90D5rPhF7QD+ZXT1l3xynE/YluHLKngbd3Nh7YJ/HdT1oz/b+QvvmouYHZM9hXNeD9jSO86D9Dr8lcH+ZNZ8EyD8s/DbHW4TfX4M+L7mggH8q6ftVRr7ct8+O5vVXl8D6q+FzyZiMNtB0vg5CwWBFzZyw5MwEttyivmKSNBvYQ8ua4+TQ4C8U/QuSNivI8k1YfT41yWsFhF1rLs3HRrIrwEMCUHmAhInxL7QwA+Qr0Dm04cQt8qJrIBV0wOxWSQ5hsaR5D6kNNXUQIHRPSG15r9OxEHgGa9pDVKigdhBCylhjWkSCKmoPUSGP7SA6dWLn8hwgnByBRfUgny+qkGEC+26suV7YkNE12ryykVPE3EFaDQq/IXkhZMMKIIsE+VPojGe31gqpoG71wwDIbxJiZDIAIUz0CyIBggagGoTrcOIGSHAPXLQI+6DQfcAWORugwE1z1KHRFmWdH8d0A6gg+OS+6D0U15AykRVnAwCULHc4nQNEl88BvC4GOwCpyeq4nAKIE88Bks4SC7dmEWSnziGHEf0HAT2JmOCrIL0n3olWCNgEyVEADdF2FBA0zSwAkszrOQBrPdABqFIto7A4CkgunAN44yU5GXDSom118FUos2IexfgGED0OkqKo80YawAjgdwDoHELVmqarHKQe2FygTXjdaznpC7TpqH0AGapcAIIuOm7kx37e1XJ3BWAt2VeAoPsqa0A051DBSXtdqLettLtjrwqnhnWlN8fMMCMavbfIoN6IgAw7f95ktzRyxR17zS9ptFbv+F81kkTFVNQp1I05sUdiMrrS9HpQJ8w0CsW+AH8KxRftzwT8STupGdUy1p6hPLfrqZDq7H4brBesPxuMtzj6pkdpy8RDG9R6MN7akFcH47lCWWHvS4Wlhb2PDOPN3vcCO6+WTzKsjfyoSW/imRCpGz4kKE4N4bYtYv8Xe5MyVt9vJhsrAA9/3wJwrtdXEhdeMenhUi9Y0TSnGAklNQMixTpi7KbaRO058juAgGjOVmpSlSCeszJwAbBCcwGwUnYBsGIZA3b0+wJgSwoPs8dOlbMA2MLLQ+27Uwt62Eru5WkyABBLvWI2oYEomL25cR52kJgMaeNxFueR87Z2TYPzRGY9z611EM+9hn6Yl1QZ6qgatHARABr51U3XbIAycsW9lpMKvpqgtOg+UUuKkAR6C2uOJcZe6rljditnOJeQZKbCW84eAormpUWHdAeA27YW0HvJyEsG0FsTyEtFazAhHjQ9bkWLBuFCJLK7Jp1PmoJruAXrZ9kjpRj0UtQ6KeLg6xyhZiURN0ibHul1bQbytNwvtaTAsFdYsyYBqaERGfepmypPaTXWK/MepIZGZCz3S1FlHV2uex3YYt6loLmkmboVOIqxc9uFvZkLL+zN3Hlhb+baC3szN8dzUjuXX9ibuf/C3rwrWNibdw4b2ewLEvPuosA5h30HUiCx2HcpG5fd02x6oAWHHEQ23tCcXcqFrL8f7TcaJi0un5LyPMYF92oFXY7D6jHU0Tz46F9BVgxlzO1vGAX+QnIpaUBBjcc4lNMGiFCH2Ld0HQCC1LzVkxWhvqN5Cti/Hz0+0lP5/v3oMZRuQYg9GpknfSdDgC1BGg2HmzOGDXI9GewxAVtSRbUsRs/mqDlukKnVVPiyz2yWYfvQ+BJ3u8xRMYw0EwkFvqo8+eZ0aS4fPp63fnt6fr6+jr39f/0cVv50fUpLn/8F);lineShape=1;strokeColor=#6c8ebf;rotation=0;rounded=1;fillColor=#dae8fc;" parent="1" vertex="1">
          <mxGeometry x="-252.9699999999999" y="-7787.4800000000005" width="14" height="12.76" as="geometry" />
        </mxCell>
        <mxCell id="RRND7NYd9o2mTwfUmjbb-151" value="has" style="shape=rhombus;double=1;perimeter=rhombusPerimeter;whiteSpace=wrap;html=1;align=center;rounded=1;fillColor=#cdeb8b;strokeColor=#36393d;" parent="1" vertex="1">
          <mxGeometry x="-219.33999999999992" y="-7732.180000000001" width="120" height="60" as="geometry" />
        </mxCell>
        <mxCell id="RRND7NYd9o2mTwfUmjbb-152" value="" style="endArrow=none;html=1;rounded=1;fontSize=12;startSize=8;endSize=8;curved=1;exitX=1;exitY=0.25;exitDx=0;exitDy=0;entryX=0.5;entryY=0;entryDx=0;entryDy=0;" parent="1" source="RRND7NYd9o2mTwfUmjbb-6" target="jmdEjUVoJu6U-mEq_74y-3" edge="1">
          <mxGeometry relative="1" as="geometry">
            <mxPoint x="110.30999999999972" y="-4938.4400000000005" as="sourcePoint" />
            <mxPoint x="555.5900000000001" y="-7189.8" as="targetPoint" />
          </mxGeometry>
        </mxCell>
        <mxCell id="RRND7NYd9o2mTwfUmjbb-153" value="" style="shape=link;html=1;rounded=1;fontSize=12;startSize=8;endSize=8;curved=1;entryX=0;entryY=0.5;entryDx=0;entryDy=0;exitX=0.5;exitY=1;exitDx=0;exitDy=0;" parent="1" source="jmdEjUVoJu6U-mEq_74y-3" target="RRND7NYd9o2mTwfUmjbb-192" edge="1">
          <mxGeometry relative="1" as="geometry">
            <mxPoint x="555.5900000000001" y="-7129.8" as="sourcePoint" />
            <mxPoint x="597.1600000000001" y="-5332.350000000001" as="targetPoint" />
          </mxGeometry>
        </mxCell>
        <mxCell id="RRND7NYd9o2mTwfUmjbb-154" value="" style="resizable=0;html=1;whiteSpace=wrap;align=right;verticalAlign=bottom;rounded=1;" parent="RRND7NYd9o2mTwfUmjbb-153" connectable="0" vertex="1">
          <mxGeometry x="1" relative="1" as="geometry" />
        </mxCell>
        <mxCell id="RRND7NYd9o2mTwfUmjbb-155" value="has" style="shape=rhombus;perimeter=rhombusPerimeter;whiteSpace=wrap;html=1;align=center;rounded=1;fillColor=#cdeb8b;strokeColor=#36393d;" parent="1" vertex="1">
          <mxGeometry x="-314.0899999999999" y="-6655.870000000001" width="120" height="60" as="geometry" />
        </mxCell>
        <mxCell id="RRND7NYd9o2mTwfUmjbb-156" value="" style="endArrow=none;html=1;rounded=1;fontSize=12;startSize=8;endSize=8;curved=1;exitX=0.5;exitY=0.029;exitDx=0;exitDy=0;entryX=0.5;entryY=1;entryDx=0;entryDy=0;exitPerimeter=0;" parent="1" source="RRND7NYd9o2mTwfUmjbb-155" target="RRND7NYd9o2mTwfUmjbb-8" edge="1">
          <mxGeometry relative="1" as="geometry">
            <mxPoint x="112.7199999999998" y="-4823.27" as="sourcePoint" />
            <mxPoint x="113.7199999999998" y="-4700.27" as="targetPoint" />
          </mxGeometry>
        </mxCell>
        <mxCell id="RRND7NYd9o2mTwfUmjbb-157" value="" style="shape=link;html=1;rounded=1;fontSize=12;startSize=8;endSize=8;curved=1;exitX=1;exitY=0;exitDx=0;exitDy=0;entryX=0.5;entryY=1;entryDx=0;entryDy=0;" parent="1" source="RRND7NYd9o2mTwfUmjbb-207" target="jmdEjUVoJu6U-mEq_74y-2" edge="1">
          <mxGeometry relative="1" as="geometry">
            <mxPoint x="-150.58999999999946" y="-5775.22" as="sourcePoint" />
            <mxPoint x="235.9399999999996" y="-7034.470000000001" as="targetPoint" />
          </mxGeometry>
        </mxCell>
        <mxCell id="RRND7NYd9o2mTwfUmjbb-158" value="" style="resizable=0;html=1;whiteSpace=wrap;align=right;verticalAlign=bottom;rounded=1;" parent="RRND7NYd9o2mTwfUmjbb-157" connectable="0" vertex="1">
          <mxGeometry x="1" relative="1" as="geometry">
            <mxPoint x="200" y="-20" as="offset" />
          </mxGeometry>
        </mxCell>
        <mxCell id="RRND7NYd9o2mTwfUmjbb-159" value="" style="endArrow=none;html=1;rounded=1;fontSize=12;startSize=8;endSize=8;curved=1;entryX=0.5;entryY=0;entryDx=0;entryDy=0;exitX=0.903;exitY=0.981;exitDx=0;exitDy=0;exitPerimeter=0;" parent="1" source="RRND7NYd9o2mTwfUmjbb-3" target="jmdEjUVoJu6U-mEq_74y-2" edge="1">
          <mxGeometry relative="1" as="geometry">
            <mxPoint x="426" y="-7984.42" as="sourcePoint" />
            <mxPoint x="235.9399999999996" y="-7094.470000000001" as="targetPoint" />
          </mxGeometry>
        </mxCell>
        <mxCell id="RRND7NYd9o2mTwfUmjbb-160" value="allergy&amp;nbsp;" style="ellipse;shape=doubleEllipse;margin=3;whiteSpace=wrap;html=1;align=center;rounded=1;" parent="1" vertex="1">
          <mxGeometry x="-278.19000000000017" y="-6297.550000000001" width="100" height="40" as="geometry" />
        </mxCell>
        <mxCell id="RRND7NYd9o2mTwfUmjbb-161" value="" style="endArrow=none;html=1;rounded=1;fontSize=12;startSize=8;endSize=8;curved=1;exitX=0.69;exitY=0.011;exitDx=0;exitDy=0;entryX=1;entryY=0.5;entryDx=0;entryDy=0;exitPerimeter=0;" parent="1" source="RRND7NYd9o2mTwfUmjbb-7" target="RRND7NYd9o2mTwfUmjbb-162" edge="1">
          <mxGeometry relative="1" as="geometry">
            <mxPoint x="-681.77" y="-6463.560000000001" as="sourcePoint" />
            <mxPoint x="-715.77" y="-6393.560000000001" as="targetPoint" />
          </mxGeometry>
        </mxCell>
        <mxCell id="RRND7NYd9o2mTwfUmjbb-162" value="contagious&amp;nbsp;" style="ellipse;whiteSpace=wrap;html=1;align=center;rounded=1;" parent="1" vertex="1">
          <mxGeometry x="-687.3400000000001" y="-6590.25" width="100" height="40" as="geometry" />
        </mxCell>
        <mxCell id="RRND7NYd9o2mTwfUmjbb-163" value="" style="endArrow=none;html=1;rounded=1;fontSize=12;startSize=8;endSize=8;curved=1;exitX=0;exitY=1;exitDx=0;exitDy=0;entryX=0.5;entryY=0.065;entryDx=0;entryDy=0;entryPerimeter=0;" parent="1" source="RRND7NYd9o2mTwfUmjbb-3" target="RRND7NYd9o2mTwfUmjbb-151" edge="1">
          <mxGeometry relative="1" as="geometry">
            <mxPoint x="566" y="-7464.42" as="sourcePoint" />
            <mxPoint x="-34" y="-6234.42" as="targetPoint" />
          </mxGeometry>
        </mxCell>
        <mxCell id="RRND7NYd9o2mTwfUmjbb-164" value="has" style="shape=rhombus;double=1;perimeter=rhombusPerimeter;whiteSpace=wrap;html=1;align=center;rounded=1;fillColor=#cdeb8b;strokeColor=#36393d;" parent="1" vertex="1">
          <mxGeometry x="-421.21000000000004" y="-7725.419999999999" width="120" height="60" as="geometry" />
        </mxCell>
        <mxCell id="RRND7NYd9o2mTwfUmjbb-165" value="" style="endArrow=none;html=1;rounded=1;fontSize=12;startSize=8;endSize=8;curved=1;exitX=1;exitY=0.75;exitDx=0;exitDy=0;entryX=0.049;entryY=0.547;entryDx=0;entryDy=0;entryPerimeter=0;" parent="1" source="RRND7NYd9o2mTwfUmjbb-2" target="RRND7NYd9o2mTwfUmjbb-164" edge="1">
          <mxGeometry relative="1" as="geometry">
            <mxPoint x="-760" y="-3830.9900000000002" as="sourcePoint" />
            <mxPoint x="-783" y="-3435.9900000000002" as="targetPoint" />
          </mxGeometry>
        </mxCell>
        <mxCell id="RRND7NYd9o2mTwfUmjbb-169" value="" style="endArrow=none;html=1;rounded=1;fontSize=12;startSize=8;endSize=8;curved=1;entryX=0.955;entryY=0.49;entryDx=0;entryDy=0;exitX=0;exitY=0.5;exitDx=0;exitDy=0;entryPerimeter=0;" parent="1" source="RRND7NYd9o2mTwfUmjbb-6" target="RRND7NYd9o2mTwfUmjbb-178" edge="1">
          <mxGeometry relative="1" as="geometry">
            <mxPoint x="547.1600000000001" y="-5322.350000000001" as="sourcePoint" />
            <mxPoint x="-137.34000000000003" y="-4105.94" as="targetPoint" />
          </mxGeometry>
        </mxCell>
        <mxCell id="RRND7NYd9o2mTwfUmjbb-170" value="manage" style="shape=rhombus;perimeter=rhombusPerimeter;whiteSpace=wrap;html=1;align=center;rounded=1;fillColor=#cdeb8b;strokeColor=#36393d;" parent="1" vertex="1">
          <mxGeometry x="-64.08000000000004" y="-7144.3" width="127" height="59.73" as="geometry" />
        </mxCell>
        <mxCell id="RRND7NYd9o2mTwfUmjbb-175" value="" style="endArrow=none;html=1;rounded=1;fontSize=12;startSize=8;endSize=8;curved=1;exitX=0.033;exitY=0.94;exitDx=0;exitDy=0;entryX=0.5;entryY=0;entryDx=0;entryDy=0;exitPerimeter=0;" parent="1" source="RRND7NYd9o2mTwfUmjbb-7" target="RRND7NYd9o2mTwfUmjbb-176" edge="1">
          <mxGeometry relative="1" as="geometry">
            <mxPoint x="-898.4000000000001" y="-5379.120000000001" as="sourcePoint" />
            <mxPoint x="-523.4000000000001" y="-5080.120000000001" as="targetPoint" />
          </mxGeometry>
        </mxCell>
        <mxCell id="RRND7NYd9o2mTwfUmjbb-176" value="has" style="shape=rhombus;perimeter=rhombusPerimeter;whiteSpace=wrap;html=1;align=center;rounded=1;fillColor=#cdeb8b;strokeColor=#36393d;" parent="1" vertex="1">
          <mxGeometry x="-766" y="-6422.580000000001" width="127" height="59.73" as="geometry" />
        </mxCell>
        <mxCell id="RRND7NYd9o2mTwfUmjbb-177" value="" style="endArrow=none;html=1;rounded=1;fontSize=12;startSize=8;endSize=8;curved=1;entryX=0.039;entryY=0.5;entryDx=0;entryDy=0;exitX=0.926;exitY=1.01;exitDx=0;exitDy=0;entryPerimeter=0;exitPerimeter=0;" parent="1" source="RRND7NYd9o2mTwfUmjbb-2" target="RRND7NYd9o2mTwfUmjbb-178" edge="1">
          <mxGeometry relative="1" as="geometry">
            <mxPoint x="-1261" y="-5056.99" as="sourcePoint" />
            <mxPoint x="533" y="-4424.99" as="targetPoint" />
          </mxGeometry>
        </mxCell>
        <mxCell id="RRND7NYd9o2mTwfUmjbb-178" value="works_for" style="shape=rhombus;perimeter=rhombusPerimeter;whiteSpace=wrap;html=1;align=center;rounded=1;fillColor=#cdeb8b;strokeColor=#36393d;" parent="1" vertex="1">
          <mxGeometry x="-0.5599999999999454" y="-7315.200000000002" width="127" height="59.73" as="geometry" />
        </mxCell>
        <mxCell id="RRND7NYd9o2mTwfUmjbb-185" value="do" style="shape=rhombus;perimeter=rhombusPerimeter;whiteSpace=wrap;html=1;align=center;rounded=1;fillColor=#cdeb8b;strokeColor=#36393d;" parent="1" vertex="1">
          <mxGeometry x="-477.53" y="-6904.380000000001" width="127" height="59.73" as="geometry" />
        </mxCell>
        <mxCell id="RRND7NYd9o2mTwfUmjbb-186" value="" style="endArrow=none;html=1;rounded=1;fontSize=12;startSize=8;endSize=8;curved=1;exitX=0.622;exitY=0.991;exitDx=0;exitDy=0;entryX=0.5;entryY=0;entryDx=0;entryDy=0;exitPerimeter=0;" parent="1" source="RRND7NYd9o2mTwfUmjbb-2" target="RRND7NYd9o2mTwfUmjbb-185" edge="1">
          <mxGeometry relative="1" as="geometry">
            <mxPoint x="592" y="-4217.99" as="sourcePoint" />
            <mxPoint x="154" y="-4232.99" as="targetPoint" />
          </mxGeometry>
        </mxCell>
        <mxCell id="RRND7NYd9o2mTwfUmjbb-192" value="SECTION" style="shape=ext;margin=3;double=1;whiteSpace=wrap;html=1;align=center;fillColor=#ffff88;strokeColor=#36393d;" parent="1" vertex="1">
          <mxGeometry x="640.0299999999997" y="-7010.7300000000005" width="150" height="60" as="geometry" />
        </mxCell>
        <mxCell id="RRND7NYd9o2mTwfUmjbb-193" value="type" style="ellipse;whiteSpace=wrap;align=center;" parent="1" vertex="1">
          <mxGeometry x="960" y="-7000.73" width="100" height="40" as="geometry" />
        </mxCell>
        <mxCell id="RRND7NYd9o2mTwfUmjbb-194" value="APPOINTMENT" style="shape=ext;margin=3;double=1;whiteSpace=wrap;html=1;align=center;fillColor=#ffff88;strokeColor=#36393d;" parent="1" vertex="1">
          <mxGeometry x="-315.52" y="-7609.100000000001" width="150" height="60" as="geometry" />
        </mxCell>
        <mxCell id="RRND7NYd9o2mTwfUmjbb-200" value="has" style="shape=rhombus;perimeter=rhombusPerimeter;whiteSpace=wrap;html=1;align=center;rounded=1;fillColor=#cdeb8b;strokeColor=#36393d;" parent="1" vertex="1">
          <mxGeometry x="-512.8100000000002" y="-6526.72" width="127" height="59.73" as="geometry" />
        </mxCell>
        <mxCell id="RRND7NYd9o2mTwfUmjbb-201" value="has" style="shape=rhombus;perimeter=rhombusPerimeter;whiteSpace=wrap;html=1;align=center;rounded=1;fillColor=#cdeb8b;strokeColor=#36393d;" parent="1" vertex="1">
          <mxGeometry x="-489.09000000000015" y="-6368.580000000001" width="127" height="59.73" as="geometry" />
        </mxCell>
        <mxCell id="RRND7NYd9o2mTwfUmjbb-202" value="" style="endArrow=none;html=1;rounded=1;fontSize=12;startSize=8;endSize=8;curved=1;entryX=1;entryY=0.5;entryDx=0;entryDy=0;exitX=0.035;exitY=0.514;exitDx=0;exitDy=0;exitPerimeter=0;" parent="1" source="RRND7NYd9o2mTwfUmjbb-200" target="RRND7NYd9o2mTwfUmjbb-7" edge="1">
          <mxGeometry relative="1" as="geometry">
            <mxPoint x="-529.0600000000002" y="-6478.1900000000005" as="sourcePoint" />
            <mxPoint x="-677.06" y="-6375.190000000001" as="targetPoint" />
          </mxGeometry>
        </mxCell>
        <mxCell id="RRND7NYd9o2mTwfUmjbb-203" value="" style="endArrow=none;html=1;rounded=1;fontSize=12;startSize=8;endSize=8;curved=1;exitX=0.035;exitY=0.535;exitDx=0;exitDy=0;entryX=0.977;entryY=0.069;entryDx=0;entryDy=0;entryPerimeter=0;exitPerimeter=0;" parent="1" source="RRND7NYd9o2mTwfUmjbb-201" target="RRND7NYd9o2mTwfUmjbb-9" edge="1">
          <mxGeometry relative="1" as="geometry">
            <mxPoint x="-670.69" y="-6390.490000000001" as="sourcePoint" />
            <mxPoint x="-652.69" y="-6300.490000000002" as="targetPoint" />
          </mxGeometry>
        </mxCell>
        <mxCell id="RRND7NYd9o2mTwfUmjbb-204" value="" style="endArrow=none;html=1;rounded=1;fontSize=12;startSize=8;endSize=8;curved=1;entryX=0.5;entryY=1;entryDx=0;entryDy=0;exitX=0.5;exitY=0;exitDx=0;exitDy=0;" parent="1" source="RRND7NYd9o2mTwfUmjbb-207" target="RRND7NYd9o2mTwfUmjbb-155" edge="1">
          <mxGeometry relative="1" as="geometry">
            <mxPoint x="-237.63" y="-6297.930000000001" as="sourcePoint" />
            <mxPoint x="-383.97" y="-6718.870000000001" as="targetPoint" />
          </mxGeometry>
        </mxCell>
        <mxCell id="RRND7NYd9o2mTwfUmjbb-205" value="" style="endArrow=none;html=1;rounded=1;fontSize=12;startSize=8;endSize=8;curved=1;exitX=0.994;exitY=0.115;exitDx=0;exitDy=0;entryX=1;entryY=0.5;entryDx=0;entryDy=0;exitPerimeter=0;" parent="1" source="RRND7NYd9o2mTwfUmjbb-14" target="RRND7NYd9o2mTwfUmjbb-206" edge="1">
          <mxGeometry relative="1" as="geometry">
            <mxPoint x="-201.25" y="-7900" as="sourcePoint" />
            <mxPoint x="-184.25" y="-8470" as="targetPoint" />
          </mxGeometry>
        </mxCell>
        <mxCell id="RRND7NYd9o2mTwfUmjbb-206" value="National_ID" style="ellipse;whiteSpace=wrap;html=1;align=center;fontStyle=4;fillColor=#ffcccc;strokeColor=#36393d;" parent="1" vertex="1">
          <mxGeometry x="-305.25" y="-8390" width="100" height="40" as="geometry" />
        </mxCell>
        <mxCell id="RRND7NYd9o2mTwfUmjbb-207" value="RECORD" style="shape=ext;margin=3;double=1;whiteSpace=wrap;html=1;align=center;fillColor=#ffff88;strokeColor=#36393d;" parent="1" vertex="1">
          <mxGeometry x="-329.35" y="-6455.550000000001" width="150" height="60" as="geometry" />
        </mxCell>
        <mxCell id="RRND7NYd9o2mTwfUmjbb-208" value="n" style="text;html=1;align=center;verticalAlign=middle;resizable=0;points=[];autosize=1;strokeColor=none;fillColor=none;" parent="1" vertex="1">
          <mxGeometry x="-353.69000000000005" y="-7677.419999999999" width="30" height="30" as="geometry" />
        </mxCell>
        <mxCell id="RRND7NYd9o2mTwfUmjbb-209" value="1" style="text;html=1;align=center;verticalAlign=middle;resizable=0;points=[];autosize=1;strokeColor=none;fillColor=none;" parent="1" vertex="1">
          <mxGeometry x="-423.05999999999995" y="-7725.5199999999995" width="30" height="30" as="geometry" />
        </mxCell>
        <mxCell id="RRND7NYd9o2mTwfUmjbb-210" value="n" style="text;html=1;align=center;verticalAlign=middle;resizable=0;points=[];autosize=1;strokeColor=none;fillColor=none;" parent="1" vertex="1">
          <mxGeometry x="-4.930000000000064" y="-7315.200000000001" width="30" height="30" as="geometry" />
        </mxCell>
        <mxCell id="RRND7NYd9o2mTwfUmjbb-211" value="1" style="text;html=1;align=center;verticalAlign=middle;resizable=0;points=[];autosize=1;strokeColor=none;fillColor=none;" parent="1" vertex="1">
          <mxGeometry x="110.44000000000005" y="-7290.02" width="30" height="30" as="geometry" />
        </mxCell>
        <mxCell id="RRND7NYd9o2mTwfUmjbb-212" value="1" style="text;html=1;align=center;verticalAlign=middle;resizable=0;points=[];autosize=1;strokeColor=none;fillColor=none;" parent="1" vertex="1">
          <mxGeometry x="48.57000000000005" y="-7116.360000000001" width="30" height="30" as="geometry" />
        </mxCell>
        <mxCell id="RRND7NYd9o2mTwfUmjbb-213" value="1" style="text;html=1;align=center;verticalAlign=middle;resizable=0;points=[];autosize=1;strokeColor=none;fillColor=none;" parent="1" vertex="1">
          <mxGeometry x="-71.42999999999995" y="-7144.3" width="30" height="30" as="geometry" />
        </mxCell>
        <mxCell id="RRND7NYd9o2mTwfUmjbb-214" value="m" style="text;html=1;align=center;verticalAlign=middle;resizable=0;points=[];autosize=1;strokeColor=none;fillColor=none;" parent="1" vertex="1">
          <mxGeometry x="-416.97" y="-6849.930000000001" width="30" height="30" as="geometry" />
        </mxCell>
        <mxCell id="RRND7NYd9o2mTwfUmjbb-215" value="n" style="text;html=1;align=center;verticalAlign=middle;resizable=0;points=[];autosize=1;strokeColor=none;fillColor=none;" parent="1" vertex="1">
          <mxGeometry x="-446.97" y="-6919.930000000001" width="30" height="30" as="geometry" />
        </mxCell>
        <mxCell id="RRND7NYd9o2mTwfUmjbb-218" value="1" style="text;html=1;align=center;verticalAlign=middle;resizable=0;points=[];autosize=1;strokeColor=none;fillColor=none;" parent="1" vertex="1">
          <mxGeometry x="-256.97000000000014" y="-6599.930000000001" width="30" height="30" as="geometry" />
        </mxCell>
        <mxCell id="RRND7NYd9o2mTwfUmjbb-219" value="n" style="text;html=1;align=center;verticalAlign=middle;resizable=0;points=[];autosize=1;strokeColor=none;fillColor=none;" parent="1" vertex="1">
          <mxGeometry x="-301.69000000000005" y="-6665.870000000001" width="30" height="30" as="geometry" />
        </mxCell>
        <mxCell id="RRND7NYd9o2mTwfUmjbb-220" value="m" style="text;html=1;align=center;verticalAlign=middle;resizable=0;points=[];autosize=1;strokeColor=none;fillColor=none;" parent="1" vertex="1">
          <mxGeometry x="-524.06" y="-6502.250000000001" width="30" height="30" as="geometry" />
        </mxCell>
        <mxCell id="RRND7NYd9o2mTwfUmjbb-221" value="n" style="text;html=1;align=center;verticalAlign=middle;resizable=0;points=[];autosize=1;strokeColor=none;fillColor=none;" parent="1" vertex="1">
          <mxGeometry x="-410.5299999999999" y="-6496.990000000001" width="30" height="30" as="geometry" />
        </mxCell>
        <mxCell id="RRND7NYd9o2mTwfUmjbb-222" value="m" style="text;html=1;align=center;verticalAlign=middle;resizable=0;points=[];autosize=1;strokeColor=none;fillColor=none;" parent="1" vertex="1">
          <mxGeometry x="-490.5300000000002" y="-6330.000000000001" width="30" height="30" as="geometry" />
        </mxCell>
        <mxCell id="RRND7NYd9o2mTwfUmjbb-223" value="n" style="text;html=1;align=center;verticalAlign=middle;resizable=0;points=[];autosize=1;strokeColor=none;fillColor=none;" parent="1" vertex="1">
          <mxGeometry x="-380.5300000000002" y="-6370.000000000001" width="30" height="30" as="geometry" />
        </mxCell>
        <mxCell id="RRND7NYd9o2mTwfUmjbb-224" value="n" style="text;html=1;align=center;verticalAlign=middle;resizable=0;points=[];autosize=1;strokeColor=none;fillColor=none;" parent="1" vertex="1">
          <mxGeometry x="-729.69" y="-6440.000000000001" width="30" height="30" as="geometry" />
        </mxCell>
        <mxCell id="RRND7NYd9o2mTwfUmjbb-225" value="m" style="text;html=1;align=center;verticalAlign=middle;resizable=0;points=[];autosize=1;strokeColor=none;fillColor=none;" parent="1" vertex="1">
          <mxGeometry x="-709.69" y="-6370.000000000001" width="30" height="30" as="geometry" />
        </mxCell>
        <mxCell id="RRND7NYd9o2mTwfUmjbb-226" value="1" style="text;html=1;align=center;verticalAlign=middle;resizable=0;points=[];autosize=1;strokeColor=none;fillColor=none;" parent="1" vertex="1">
          <mxGeometry x="240.00000000000006" y="-7109.300000000001" width="30" height="30" as="geometry" />
        </mxCell>
        <mxCell id="RRND7NYd9o2mTwfUmjbb-227" value="n" style="text;html=1;align=center;verticalAlign=middle;resizable=0;points=[];autosize=1;strokeColor=none;fillColor=none;" parent="1" vertex="1">
          <mxGeometry x="195.94000000000005" y="-7040.7300000000005" width="30" height="30" as="geometry" />
        </mxCell>
        <mxCell id="RRND7NYd9o2mTwfUmjbb-236" value="n" style="text;html=1;align=center;verticalAlign=middle;resizable=0;points=[];autosize=1;strokeColor=none;fillColor=none;" parent="1" vertex="1">
          <mxGeometry x="515.2500000000001" y="-7139.47" width="30" height="30" as="geometry" />
        </mxCell>
        <mxCell id="RRND7NYd9o2mTwfUmjbb-237" value="1" style="text;html=1;align=center;verticalAlign=middle;resizable=0;points=[];autosize=1;strokeColor=none;fillColor=none;" parent="1" vertex="1">
          <mxGeometry x="515.2500000000001" y="-7209.47" width="30" height="30" as="geometry" />
        </mxCell>
        <mxCell id="RRND7NYd9o2mTwfUmjbb-240" value="n" style="text;html=1;align=center;verticalAlign=middle;resizable=0;points=[];autosize=1;strokeColor=none;fillColor=none;" parent="1" vertex="1">
          <mxGeometry x="-191.9699999999999" y="-7677.42" width="30" height="30" as="geometry" />
        </mxCell>
        <mxCell id="RRND7NYd9o2mTwfUmjbb-241" value="1" style="text;html=1;align=center;verticalAlign=middle;resizable=0;points=[];autosize=1;strokeColor=none;fillColor=none;" parent="1" vertex="1">
          <mxGeometry x="-130.55999999999992" y="-7737.42" width="30" height="30" as="geometry" />
        </mxCell>
        <mxCell id="RRND7NYd9o2mTwfUmjbb-242" value="" style="shape=link;html=1;rounded=1;fontSize=12;startSize=8;endSize=8;curved=1;entryX=0.495;entryY=0.914;entryDx=0;entryDy=0;exitX=0;exitY=0;exitDx=0;exitDy=0;entryPerimeter=0;" parent="1" source="RRND7NYd9o2mTwfUmjbb-194" target="RRND7NYd9o2mTwfUmjbb-164" edge="1">
          <mxGeometry relative="1" as="geometry">
            <mxPoint x="216.1300000000001" y="-7162.42" as="sourcePoint" />
            <mxPoint x="-53.86999999999989" y="-6854.42" as="targetPoint" />
          </mxGeometry>
        </mxCell>
        <mxCell id="RRND7NYd9o2mTwfUmjbb-243" value="" style="resizable=0;html=1;whiteSpace=wrap;align=right;verticalAlign=bottom;rounded=1;" parent="RRND7NYd9o2mTwfUmjbb-242" connectable="0" vertex="1">
          <mxGeometry x="1" relative="1" as="geometry" />
        </mxCell>
        <mxCell id="RRND7NYd9o2mTwfUmjbb-244" value="" style="shape=link;html=1;rounded=1;fontSize=12;startSize=8;endSize=8;curved=1;exitX=1;exitY=0;exitDx=0;exitDy=0;entryX=0.565;entryY=0.937;entryDx=0;entryDy=0;entryPerimeter=0;" parent="1" source="RRND7NYd9o2mTwfUmjbb-194" target="RRND7NYd9o2mTwfUmjbb-151" edge="1">
          <mxGeometry relative="1" as="geometry">
            <mxPoint x="-172.39999999999998" y="-7349.02" as="sourcePoint" />
            <mxPoint x="-260.4" y="-7382.400000000001" as="targetPoint" />
          </mxGeometry>
        </mxCell>
        <mxCell id="RRND7NYd9o2mTwfUmjbb-245" value="" style="resizable=0;html=1;whiteSpace=wrap;align=right;verticalAlign=bottom;rounded=1;" parent="RRND7NYd9o2mTwfUmjbb-244" connectable="0" vertex="1">
          <mxGeometry x="1" relative="1" as="geometry" />
        </mxCell>
        <mxCell id="RRND7NYd9o2mTwfUmjbb-246" value="" style="shape=link;html=1;rounded=1;fontSize=12;startSize=8;endSize=8;curved=1;exitX=0.003;exitY=0.123;exitDx=0;exitDy=0;exitPerimeter=0;entryX=0.915;entryY=0.569;entryDx=0;entryDy=0;entryPerimeter=0;" parent="1" source="RRND7NYd9o2mTwfUmjbb-207" target="RRND7NYd9o2mTwfUmjbb-200" edge="1">
          <mxGeometry relative="1" as="geometry">
            <mxPoint x="532.7200000000003" y="-5959.930000000001" as="sourcePoint" />
            <mxPoint x="-409.69000000000005" y="-6356.930000000001" as="targetPoint" />
          </mxGeometry>
        </mxCell>
        <mxCell id="RRND7NYd9o2mTwfUmjbb-247" value="" style="resizable=0;html=1;whiteSpace=wrap;align=right;verticalAlign=bottom;rounded=1;" parent="RRND7NYd9o2mTwfUmjbb-246" connectable="0" vertex="1">
          <mxGeometry x="1" relative="1" as="geometry" />
        </mxCell>
        <mxCell id="RRND7NYd9o2mTwfUmjbb-248" value="" style="shape=link;html=1;rounded=1;fontSize=12;startSize=8;endSize=8;curved=1;entryX=0.953;entryY=0.514;entryDx=0;entryDy=0;exitX=0;exitY=1;exitDx=0;exitDy=0;entryPerimeter=0;" parent="1" source="RRND7NYd9o2mTwfUmjbb-207" target="RRND7NYd9o2mTwfUmjbb-201" edge="1">
          <mxGeometry relative="1" as="geometry">
            <mxPoint x="-319.69000000000005" y="-6445.550000000001" as="sourcePoint" />
            <mxPoint x="-381.69000000000005" y="-6442.550000000001" as="targetPoint" />
          </mxGeometry>
        </mxCell>
        <mxCell id="RRND7NYd9o2mTwfUmjbb-249" value="" style="resizable=0;html=1;whiteSpace=wrap;align=right;verticalAlign=bottom;rounded=1;" parent="RRND7NYd9o2mTwfUmjbb-248" connectable="0" vertex="1">
          <mxGeometry x="1" relative="1" as="geometry" />
        </mxCell>
        <mxCell id="RRND7NYd9o2mTwfUmjbb-250" value="" style="shape=link;html=1;rounded=1;fontSize=12;startSize=8;endSize=8;curved=1;entryX=0.061;entryY=-0.007;entryDx=0;entryDy=0;exitX=0.5;exitY=1;exitDx=0;exitDy=0;entryPerimeter=0;" parent="1" source="RRND7NYd9o2mTwfUmjbb-176" target="RRND7NYd9o2mTwfUmjbb-9" edge="1">
          <mxGeometry relative="1" as="geometry">
            <mxPoint x="-309.69000000000005" y="-6435.550000000001" as="sourcePoint" />
            <mxPoint x="-371.69000000000005" y="-6432.550000000001" as="targetPoint" />
          </mxGeometry>
        </mxCell>
        <mxCell id="RRND7NYd9o2mTwfUmjbb-251" value="" style="resizable=0;html=1;whiteSpace=wrap;align=right;verticalAlign=bottom;rounded=1;" parent="RRND7NYd9o2mTwfUmjbb-250" connectable="0" vertex="1">
          <mxGeometry x="1" relative="1" as="geometry" />
        </mxCell>
        <mxCell id="RRND7NYd9o2mTwfUmjbb-252" value="" style="shape=link;html=1;rounded=1;fontSize=12;startSize=8;endSize=8;curved=1;entryX=0.25;entryY=0;entryDx=0;entryDy=0;exitX=0.5;exitY=1;exitDx=0;exitDy=0;" parent="1" source="RRND7NYd9o2mTwfUmjbb-185" target="RRND7NYd9o2mTwfUmjbb-8" edge="1">
          <mxGeometry relative="1" as="geometry">
            <mxPoint x="358.3699999999999" y="-7379.930000000001" as="sourcePoint" />
            <mxPoint x="88.36999999999989" y="-7071.930000000001" as="targetPoint" />
          </mxGeometry>
        </mxCell>
        <mxCell id="RRND7NYd9o2mTwfUmjbb-253" value="" style="resizable=0;html=1;whiteSpace=wrap;align=right;verticalAlign=bottom;rounded=1;" parent="RRND7NYd9o2mTwfUmjbb-252" connectable="0" vertex="1">
          <mxGeometry x="1" relative="1" as="geometry" />
        </mxCell>
        <mxCell id="RRND7NYd9o2mTwfUmjbb-257" value="" style="endArrow=none;html=1;rounded=1;fontSize=12;startSize=8;endSize=8;curved=1;entryX=0;entryY=0.5;entryDx=0;entryDy=0;exitX=1;exitY=0.5;exitDx=0;exitDy=0;" parent="1" source="RRND7NYd9o2mTwfUmjbb-74" target="RRND7NYd9o2mTwfUmjbb-260" edge="1">
          <mxGeometry relative="1" as="geometry">
            <mxPoint x="-203.51999999999998" y="-7632.580000000001" as="sourcePoint" />
            <mxPoint x="-263.52" y="-7739.340000000001" as="targetPoint" />
          </mxGeometry>
        </mxCell>
        <mxCell id="RRND7NYd9o2mTwfUmjbb-258" value="" style="endArrow=none;html=1;rounded=1;fontSize=12;startSize=8;endSize=8;curved=1;exitX=0.843;exitY=0.985;exitDx=0;exitDy=0;entryX=0;entryY=0.5;entryDx=0;entryDy=0;exitPerimeter=0;" parent="1" source="RRND7NYd9o2mTwfUmjbb-194" target="RRND7NYd9o2mTwfUmjbb-75" edge="1">
          <mxGeometry relative="1" as="geometry">
            <mxPoint x="-182.51999999999998" y="-7589.580000000001" as="sourcePoint" />
            <mxPoint x="-243.51999999999998" y="-7643.960000000002" as="targetPoint" />
          </mxGeometry>
        </mxCell>
        <mxCell id="RRND7NYd9o2mTwfUmjbb-259" value="room" style="ellipse;align=center;rounded=1;fontStyle=0;" parent="1" vertex="1">
          <mxGeometry x="5.684341886080802e-14" y="-7560.000000000001" width="100" height="40" as="geometry" />
        </mxCell>
        <mxCell id="RRND7NYd9o2mTwfUmjbb-260" value="date" style="ellipse;align=center;rounded=1;fontStyle=0;" parent="1" vertex="1">
          <mxGeometry x="10.440000000000083" y="-7609.100000000001" width="100" height="40" as="geometry" />
        </mxCell>
        <mxCell id="RRND7NYd9o2mTwfUmjbb-261" value="" style="endArrow=none;html=1;rounded=1;fontSize=12;startSize=8;endSize=8;curved=1;entryX=0;entryY=0;entryDx=0;entryDy=0;exitX=0.5;exitY=1;exitDx=0;exitDy=0;" parent="1" source="RRND7NYd9o2mTwfUmjbb-262" target="RRND7NYd9o2mTwfUmjbb-192" edge="1">
          <mxGeometry relative="1" as="geometry">
            <mxPoint x="246" y="-7676.1" as="sourcePoint" />
            <mxPoint x="156" y="-7109.176923076923" as="targetPoint" />
          </mxGeometry>
        </mxCell>
        <mxCell id="RRND7NYd9o2mTwfUmjbb-262" value="admitted" style="shape=rhombus;perimeter=rhombusPerimeter;whiteSpace=wrap;html=1;align=center;rounded=1;fillColor=#cdeb8b;strokeColor=#36393d;" parent="1" vertex="1">
          <mxGeometry x="555.5900000000001" y="-7406.19" width="132.63" height="58.19" as="geometry" />
        </mxCell>
        <mxCell id="RRND7NYd9o2mTwfUmjbb-263" value="adm_date" style="ellipse;whiteSpace=wrap;html=1;align=center;rounded=1;" parent="1" vertex="1">
          <mxGeometry x="450.0000000000002" y="-7427.42" width="100" height="40" as="geometry" />
        </mxCell>
        <mxCell id="RRND7NYd9o2mTwfUmjbb-264" value="" style="endArrow=none;html=1;rounded=1;fontSize=12;startSize=8;endSize=8;curved=1;entryX=1;entryY=0.5;entryDx=0;entryDy=0;exitX=0.08;exitY=0.45;exitDx=0;exitDy=0;exitPerimeter=0;" parent="1" source="RRND7NYd9o2mTwfUmjbb-262" target="RRND7NYd9o2mTwfUmjbb-263" edge="1">
          <mxGeometry relative="1" as="geometry">
            <mxPoint x="850.5900000000001" y="-7176" as="sourcePoint" />
            <mxPoint x="808.5900000000001" y="-7256" as="targetPoint" />
          </mxGeometry>
        </mxCell>
        <mxCell id="RRND7NYd9o2mTwfUmjbb-265" value="" style="endArrow=none;html=1;rounded=1;fontSize=12;startSize=8;endSize=8;curved=1;entryX=0.961;entryY=0.505;entryDx=0;entryDy=0;entryPerimeter=0;exitX=0;exitY=0.5;exitDx=0;exitDy=0;" parent="1" source="RRND7NYd9o2mTwfUmjbb-266" target="RRND7NYd9o2mTwfUmjbb-262" edge="1">
          <mxGeometry relative="1" as="geometry">
            <mxPoint x="705.5900000000001" y="-7418" as="sourcePoint" />
            <mxPoint x="818.5900000000001" y="-7246" as="targetPoint" />
            <Array as="points">
              <mxPoint x="695.5900000000001" y="-7398" />
            </Array>
          </mxGeometry>
        </mxCell>
        <mxCell id="RRND7NYd9o2mTwfUmjbb-266" value="room assigned" style="ellipse;whiteSpace=wrap;html=1;align=center;rounded=1;" parent="1" vertex="1">
          <mxGeometry x="695.2500000000002" y="-7427.42" width="100" height="40" as="geometry" />
        </mxCell>
        <mxCell id="RRND7NYd9o2mTwfUmjbb-267" value="" style="endArrow=none;html=1;rounded=1;fontSize=12;startSize=8;endSize=8;curved=1;entryX=0.675;entryY=1.032;entryDx=0;entryDy=0;entryPerimeter=0;exitX=0;exitY=0.5;exitDx=0;exitDy=0;" parent="1" source="RRND7NYd9o2mTwfUmjbb-268" target="RRND7NYd9o2mTwfUmjbb-192" edge="1">
          <mxGeometry relative="1" as="geometry">
            <mxPoint x="835.3699999999999" y="-6996.46" as="sourcePoint" />
            <mxPoint x="800.3699999999999" y="-6985.46" as="targetPoint" />
          </mxGeometry>
        </mxCell>
        <mxCell id="RRND7NYd9o2mTwfUmjbb-268" value="room" style="ellipse;shape=doubleEllipse;margin=3;whiteSpace=wrap;html=1;align=center;" parent="1" vertex="1">
          <mxGeometry x="830" y="-6769.34" width="100" height="40" as="geometry" />
        </mxCell>
        <mxCell id="RRND7NYd9o2mTwfUmjbb-271" value="done in" style="shape=rhombus;perimeter=rhombusPerimeter;whiteSpace=wrap;html=1;align=center;rounded=1;fillColor=#cdeb8b;strokeColor=#36393d;" parent="1" vertex="1">
          <mxGeometry x="-261.27" y="-6979.100000000001" width="127" height="59.73" as="geometry" />
        </mxCell>
        <mxCell id="RRND7NYd9o2mTwfUmjbb-272" value="" style="endArrow=none;html=1;rounded=1;fontSize=12;startSize=8;endSize=8;curved=1;entryX=0.053;entryY=0.476;entryDx=0;entryDy=0;exitX=0.5;exitY=0;exitDx=0;exitDy=0;entryPerimeter=0;" parent="1" source="RRND7NYd9o2mTwfUmjbb-8" target="RRND7NYd9o2mTwfUmjbb-271" edge="1">
          <mxGeometry relative="1" as="geometry">
            <mxPoint x="-94.63000000000011" y="-6914.930000000001" as="sourcePoint" />
            <mxPoint x="148.3699999999999" y="-7021.930000000001" as="targetPoint" />
          </mxGeometry>
        </mxCell>
        <mxCell id="RRND7NYd9o2mTwfUmjbb-273" value="" style="shape=link;html=1;rounded=1;fontSize=12;startSize=8;endSize=8;curved=1;entryX=0.954;entryY=0.503;entryDx=0;entryDy=0;exitX=0;exitY=1;exitDx=0;exitDy=0;entryPerimeter=0;" parent="1" source="RRND7NYd9o2mTwfUmjbb-192" target="RRND7NYd9o2mTwfUmjbb-271" edge="1">
          <mxGeometry relative="1" as="geometry">
            <mxPoint x="656" y="-6658.1" as="sourcePoint" />
            <mxPoint x="386" y="-6350.1" as="targetPoint" />
          </mxGeometry>
        </mxCell>
        <mxCell id="RRND7NYd9o2mTwfUmjbb-274" value="" style="resizable=0;html=1;whiteSpace=wrap;align=right;verticalAlign=bottom;rounded=1;" parent="RRND7NYd9o2mTwfUmjbb-273" connectable="0" vertex="1">
          <mxGeometry x="1" relative="1" as="geometry" />
        </mxCell>
        <mxCell id="RRND7NYd9o2mTwfUmjbb-275" value="m" style="text;html=1;align=center;verticalAlign=middle;resizable=0;points=[];autosize=1;strokeColor=none;fillColor=none;" parent="1" vertex="1">
          <mxGeometry x="-156.69000000000005" y="-6974.6500000000015" width="30" height="30" as="geometry" />
        </mxCell>
        <mxCell id="RRND7NYd9o2mTwfUmjbb-276" value="n" style="text;html=1;align=center;verticalAlign=middle;resizable=0;points=[];autosize=1;strokeColor=none;fillColor=none;" parent="1" vertex="1">
          <mxGeometry x="-268.97" y="-6949.370000000002" width="30" height="30" as="geometry" />
        </mxCell>
        <mxCell id="RRND7NYd9o2mTwfUmjbb-277" value="1" style="text;html=1;align=center;verticalAlign=middle;resizable=0;points=[];autosize=1;strokeColor=none;fillColor=none;" parent="1" vertex="1">
          <mxGeometry x="615.5900000000001" y="-7357.09" width="30" height="30" as="geometry" />
        </mxCell>
        <mxCell id="RRND7NYd9o2mTwfUmjbb-278" value="n" style="text;html=1;align=center;verticalAlign=middle;resizable=0;points=[];autosize=1;strokeColor=none;fillColor=none;" parent="1" vertex="1">
          <mxGeometry x="615.5900000000001" y="-7427.09" width="30" height="30" as="geometry" />
        </mxCell>
        <mxCell id="RRND7NYd9o2mTwfUmjbb-279" value="" style="shape=link;html=1;rounded=1;fontSize=12;startSize=8;endSize=8;curved=1;entryX=1;entryY=0.5;entryDx=0;entryDy=0;exitX=0.016;exitY=0.852;exitDx=0;exitDy=0;exitPerimeter=0;" parent="1" source="RRND7NYd9o2mTwfUmjbb-278" target="RRND7NYd9o2mTwfUmjbb-3" edge="1">
          <mxGeometry relative="1" as="geometry">
            <mxPoint x="1104" y="-7061.42" as="sourcePoint" />
            <mxPoint x="-517" y="-7106.42" as="targetPoint" />
          </mxGeometry>
        </mxCell>
        <mxCell id="RRND7NYd9o2mTwfUmjbb-280" value="" style="resizable=0;html=1;whiteSpace=wrap;align=right;verticalAlign=bottom;rounded=1;" parent="RRND7NYd9o2mTwfUmjbb-279" connectable="0" vertex="1">
          <mxGeometry x="1" relative="1" as="geometry" />
        </mxCell>
        <mxCell id="RRND7NYd9o2mTwfUmjbb-283" value="" style="shape=link;html=1;rounded=1;fontSize=12;startSize=8;endSize=8;curved=1;exitX=0;exitY=0.75;exitDx=0;exitDy=0;entryX=0.233;entryY=0.133;entryDx=0;entryDy=0;entryPerimeter=0;" parent="1" source="RRND7NYd9o2mTwfUmjbb-6" target="RRND7NYd9o2mTwfUmjbb-212" edge="1">
          <mxGeometry relative="1" as="geometry">
            <mxPoint x="-619" y="-6611.1" as="sourcePoint" />
            <mxPoint x="-1741" y="-7006.1" as="targetPoint" />
          </mxGeometry>
        </mxCell>
        <mxCell id="RRND7NYd9o2mTwfUmjbb-284" value="" style="resizable=0;html=1;whiteSpace=wrap;align=right;verticalAlign=bottom;rounded=1;" parent="RRND7NYd9o2mTwfUmjbb-283" connectable="0" vertex="1">
          <mxGeometry x="1" relative="1" as="geometry" />
        </mxCell>
        <mxCell id="RRND7NYd9o2mTwfUmjbb-285" value="" style="shape=link;html=1;rounded=1;fontSize=12;startSize=8;endSize=8;curved=1;exitX=0.73;exitY=1.009;exitDx=0;exitDy=0;exitPerimeter=0;entryX=0.377;entryY=0.896;entryDx=0;entryDy=0;entryPerimeter=0;" parent="1" source="RRND7NYd9o2mTwfUmjbb-2" target="RRND7NYd9o2mTwfUmjbb-213" edge="1">
          <mxGeometry relative="1" as="geometry">
            <mxPoint x="-958.3800000000001" y="-7174.42" as="sourcePoint" />
            <mxPoint x="-58" y="-7111" as="targetPoint" />
          </mxGeometry>
        </mxCell>
        <mxCell id="RRND7NYd9o2mTwfUmjbb-286" value="" style="resizable=0;html=1;whiteSpace=wrap;align=right;verticalAlign=bottom;rounded=1;" parent="RRND7NYd9o2mTwfUmjbb-285" connectable="0" vertex="1">
          <mxGeometry x="1" relative="1" as="geometry" />
        </mxCell>
        <mxCell id="RRND7NYd9o2mTwfUmjbb-289" value="" style="endArrow=none;html=1;rounded=1;fontSize=12;startSize=8;endSize=8;curved=1;exitX=0.5;exitY=1;exitDx=0;exitDy=0;entryX=0.048;entryY=0.267;entryDx=0;entryDy=0;entryPerimeter=0;" parent="1" source="RRND7NYd9o2mTwfUmjbb-207" target="RRND7NYd9o2mTwfUmjbb-290" edge="1">
          <mxGeometry relative="1" as="geometry">
            <mxPoint x="-255.63" y="-6385.930000000001" as="sourcePoint" />
            <mxPoint x="-266.8900000000002" y="-6329.450000000001" as="targetPoint" />
          </mxGeometry>
        </mxCell>
        <mxCell id="RRND7NYd9o2mTwfUmjbb-290" value="&lt;span style=&quot;border-bottom: 1px dotted&quot;&gt;record ID&lt;/span&gt;" style="ellipse;whiteSpace=wrap;html=1;align=center;fillColor=#ffcccc;strokeColor=#36393d;" parent="1" vertex="1">
          <mxGeometry x="-257.62000000000023" y="-6350.930000000001" width="100" height="40" as="geometry" />
        </mxCell>
        <mxCell id="RRND7NYd9o2mTwfUmjbb-291" value="working_hour" style="ellipse;whiteSpace=wrap;html=1;align=center;" parent="1" vertex="1">
          <mxGeometry x="-78.94000000000005" y="-7219.47" width="100" height="40" as="geometry" />
        </mxCell>
        <mxCell id="RRND7NYd9o2mTwfUmjbb-292" value="" style="endArrow=none;html=1;rounded=1;fontSize=12;startSize=8;endSize=8;curved=1;exitX=0.396;exitY=0.987;exitDx=0;exitDy=0;exitPerimeter=0;" parent="1" source="RRND7NYd9o2mTwfUmjbb-9" target="RRND7NYd9o2mTwfUmjbb-293" edge="1">
          <mxGeometry relative="1" as="geometry">
            <mxPoint x="-662.2600000000002" y="-6229.340000000001" as="sourcePoint" />
            <mxPoint x="-654.2600000000002" y="-6175.340000000001" as="targetPoint" />
          </mxGeometry>
        </mxCell>
        <mxCell id="RRND7NYd9o2mTwfUmjbb-293" value="dosage" style="ellipse;whiteSpace=wrap;html=1;align=center;" parent="1" vertex="1">
          <mxGeometry x="-665.4000000000001" y="-6199.340000000001" width="100" height="40" as="geometry" />
        </mxCell>
        <mxCell id="DB2nQwseXHa7_ByVhHG7-1" value="EER Diagram for&lt;div&gt;Hospital system&lt;/div&gt;" style="text;html=1;align=center;verticalAlign=middle;resizable=0;points=[];autosize=1;strokeColor=none;fillColor=none;fontSize=100;fontStyle=1" parent="1" vertex="1">
          <mxGeometry x="260.94" y="-6393.98" width="780" height="250" as="geometry" />
        </mxCell>
        <mxCell id="jmdEjUVoJu6U-mEq_74y-2" value="owned&amp;nbsp;" style="shape=rhombus;double=1;perimeter=rhombusPerimeter;whiteSpace=wrap;html=1;align=center;fillColor=#cdeb8b;strokeColor=#36393d;" parent="1" vertex="1">
          <mxGeometry x="176" y="-7090" width="120" height="60" as="geometry" />
        </mxCell>
        <mxCell id="jmdEjUVoJu6U-mEq_74y-3" value="has" style="shape=rhombus;double=1;perimeter=rhombusPerimeter;whiteSpace=wrap;html=1;align=center;fillColor=#cdeb8b;strokeColor=#36393d;" parent="1" vertex="1">
          <mxGeometry x="495.59" y="-7190" width="120" height="60" as="geometry" />
        </mxCell>
        <mxCell id="0JAMLqSG2PyNZ8wUR2UJ-1" value="" style="endArrow=none;html=1;rounded=1;fontSize=12;startSize=8;endSize=8;curved=1;entryX=1;entryY=0;entryDx=0;entryDy=0;exitX=0;exitY=0.5;exitDx=0;exitDy=0;" parent="1" source="0JAMLqSG2PyNZ8wUR2UJ-2" target="RRND7NYd9o2mTwfUmjbb-192" edge="1">
          <mxGeometry relative="1" as="geometry">
            <mxPoint x="860" y="-7040" as="sourcePoint" />
            <mxPoint x="800" y="-6986" as="targetPoint" />
          </mxGeometry>
        </mxCell>
        <mxCell id="0JAMLqSG2PyNZ8wUR2UJ-2" value="&lt;span style=&quot;border-bottom: 1px dotted&quot;&gt;SKey&lt;/span&gt;" style="ellipse;whiteSpace=wrap;html=1;align=center;fillColor=#ffcccc;strokeColor=#36393d;" parent="1" vertex="1">
          <mxGeometry x="820" y="-7034.3" width="100" height="40" as="geometry" />
        </mxCell>
        <mxCell id="gvfObS1QngvJZ-nxXPwo-1" value="" style="shape=link;html=1;rounded=1;fontSize=12;startSize=8;endSize=8;curved=1;exitX=0.5;exitY=0;exitDx=0;exitDy=0;entryX=0.477;entryY=1.001;entryDx=0;entryDy=0;entryPerimeter=0;fillColor=#1ba1e2;strokeColor=#006EAF;" parent="1" source="RRND7NYd9o2mTwfUmjbb-16" target="RRND7NYd9o2mTwfUmjbb-14" edge="1">
          <mxGeometry relative="1" as="geometry">
            <mxPoint x="-846.97" y="-7740.3" as="sourcePoint" />
            <mxPoint x="-280" y="-7840" as="targetPoint" />
          </mxGeometry>
        </mxCell>
        <mxCell id="gvfObS1QngvJZ-nxXPwo-2" value="" style="resizable=0;html=1;whiteSpace=wrap;align=right;verticalAlign=bottom;rounded=1;" parent="gvfObS1QngvJZ-nxXPwo-1" connectable="0" vertex="1">
          <mxGeometry x="1" relative="1" as="geometry" />
        </mxCell>
        <mxCell id="DyEZk6pnjRfbDWYd-aQd-1" value="time" style="ellipse;align=center;rounded=1;fontStyle=0;" vertex="1" parent="1">
          <mxGeometry x="10.440000000000055" y="-7665.420000000001" width="100" height="40" as="geometry" />
        </mxCell>
        <mxCell id="DyEZk6pnjRfbDWYd-aQd-2" value="" style="endArrow=none;html=1;rounded=1;fontSize=12;startSize=8;endSize=8;curved=1;exitX=1;exitY=0;exitDx=0;exitDy=0;entryX=0;entryY=0.5;entryDx=0;entryDy=0;" edge="1" parent="1" source="RRND7NYd9o2mTwfUmjbb-74" target="DyEZk6pnjRfbDWYd-aQd-1">
          <mxGeometry relative="1" as="geometry">
            <mxPoint x="-156" y="-7539" as="sourcePoint" />
            <mxPoint x="-110" y="-7579" as="targetPoint" />
          </mxGeometry>
        </mxCell>
        <mxCell id="DyEZk6pnjRfbDWYd-aQd-3" value="DO_ID" style="ellipse;align=center;rounded=1;fontStyle=0;" vertex="1" parent="1">
          <mxGeometry x="-10.519999999999946" y="-7715.420000000001" width="100" height="40" as="geometry" />
        </mxCell>
        <mxCell id="DyEZk6pnjRfbDWYd-aQd-4" value="" style="endArrow=none;html=1;rounded=1;fontSize=12;startSize=8;endSize=8;curved=1;exitX=0.65;exitY=0.053;exitDx=0;exitDy=0;entryX=0;entryY=0.5;entryDx=0;entryDy=0;exitPerimeter=0;" edge="1" parent="1" target="DyEZk6pnjRfbDWYd-aQd-3" source="RRND7NYd9o2mTwfUmjbb-74">
          <mxGeometry relative="1" as="geometry">
            <mxPoint x="-25" y="-7593" as="sourcePoint" />
            <mxPoint x="-100" y="-7569" as="targetPoint" />
          </mxGeometry>
        </mxCell>
        <mxCell id="DyEZk6pnjRfbDWYd-aQd-5" value="P_ID" style="ellipse;align=center;rounded=1;fontStyle=0;" vertex="1" parent="1">
          <mxGeometry x="-10.519999999999943" y="-7510.000000000001" width="100" height="40" as="geometry" />
        </mxCell>
        <mxCell id="DyEZk6pnjRfbDWYd-aQd-6" value="" style="endArrow=none;html=1;rounded=1;fontSize=12;startSize=8;endSize=8;curved=1;exitX=0.65;exitY=1.003;exitDx=0;exitDy=0;entryX=0;entryY=0.5;entryDx=0;entryDy=0;exitPerimeter=0;" edge="1" parent="1" target="DyEZk6pnjRfbDWYd-aQd-5" source="RRND7NYd9o2mTwfUmjbb-74">
          <mxGeometry relative="1" as="geometry">
            <mxPoint x="-47.31" y="-7576.980000000001" as="sourcePoint" />
            <mxPoint x="-130.96" y="-7423.58" as="targetPoint" />
          </mxGeometry>
        </mxCell>
        <mxCell id="DyEZk6pnjRfbDWYd-aQd-7" value="D_ID" style="ellipse;whiteSpace=wrap;align=center;rounded=1;" vertex="1" parent="1">
          <mxGeometry x="950" y="-7100.000000000001" width="100" height="40" as="geometry" />
        </mxCell>
        <mxCell id="DyEZk6pnjRfbDWYd-aQd-8" value="" style="endArrow=none;html=1;rounded=1;fontSize=12;startSize=8;endSize=8;curved=1;exitX=0.5;exitY=0;exitDx=0;exitDy=0;entryX=0;entryY=0.5;entryDx=0;entryDy=0;" edge="1" parent="1" target="DyEZk6pnjRfbDWYd-aQd-7" source="0JAMLqSG2PyNZ8wUR2UJ-2">
          <mxGeometry relative="1" as="geometry">
            <mxPoint x="880" y="-7121.36" as="sourcePoint" />
            <mxPoint x="805" y="-7097.36" as="targetPoint" />
          </mxGeometry>
        </mxCell>
        <mxCell id="DyEZk6pnjRfbDWYd-aQd-9" value="SID" style="ellipse;whiteSpace=wrap;align=center;rounded=1;" vertex="1" parent="1">
          <mxGeometry x="960" y="-7050.730000000001" width="100" height="40" as="geometry" />
        </mxCell>
        <mxCell id="DyEZk6pnjRfbDWYd-aQd-10" value="" style="endArrow=none;html=1;rounded=1;fontSize=12;startSize=8;endSize=8;curved=1;exitX=1;exitY=0.5;exitDx=0;exitDy=0;entryX=0;entryY=0.5;entryDx=0;entryDy=0;" edge="1" parent="1" target="DyEZk6pnjRfbDWYd-aQd-9" source="0JAMLqSG2PyNZ8wUR2UJ-2">
          <mxGeometry relative="1" as="geometry">
            <mxPoint x="940" y="-7051.88" as="sourcePoint" />
            <mxPoint x="865" y="-7027.88" as="targetPoint" />
          </mxGeometry>
        </mxCell>
      </root>
    </mxGraphModel>
  </diagram>
  <diagram id="Yit_kc8fhf0LEQ2lR_j7" name="schema ">
    <mxGraphModel dx="3344" dy="2336" grid="1" gridSize="10" guides="1" tooltips="1" connect="1" arrows="1" fold="1" page="1" pageScale="1" pageWidth="1600" pageHeight="1200" math="0" shadow="0">
      <root>
        <mxCell id="0" />
        <mxCell id="1" parent="0" />
        <mxCell id="akpooxGZIGGbHc-bxIAZ-1" value="" style="shape=table;startSize=0;container=1;collapsible=0;childLayout=tableLayout;fontSize=28;fontStyle=0;strokeWidth=2;perimeterSpacing=2;rounded=1;" parent="1" vertex="1">
          <mxGeometry x="-1570.0000000000002" y="-875" width="560" height="50" as="geometry" />
        </mxCell>
        <mxCell id="akpooxGZIGGbHc-bxIAZ-2" value="" style="shape=tableRow;horizontal=0;startSize=0;swimlaneHead=0;swimlaneBody=0;strokeColor=inherit;top=0;left=0;bottom=0;right=0;collapsible=0;dropTarget=0;fillColor=none;points=[[0,0.5],[1,0.5]];portConstraint=eastwest;fontSize=16;rounded=1;" parent="akpooxGZIGGbHc-bxIAZ-1" vertex="1">
          <mxGeometry width="560" height="50" as="geometry" />
        </mxCell>
        <mxCell id="akpooxGZIGGbHc-bxIAZ-3" value="ID" style="shape=partialRectangle;html=1;whiteSpace=wrap;connectable=0;strokeColor=#d79b00;overflow=hidden;fillColor=#ffe6cc;top=0;left=0;bottom=0;right=0;pointerEvents=1;fontSize=16;fontStyle=4;spacingLeft=1;spacingTop=0;spacingRight=0;rounded=1;" parent="akpooxGZIGGbHc-bxIAZ-2" vertex="1">
          <mxGeometry width="60" height="50" as="geometry">
            <mxRectangle width="60" height="50" as="alternateBounds" />
          </mxGeometry>
        </mxCell>
        <mxCell id="akpooxGZIGGbHc-bxIAZ-4" value="N_ID" style="shape=partialRectangle;html=1;whiteSpace=wrap;connectable=0;strokeColor=inherit;overflow=hidden;fillColor=none;top=0;left=0;bottom=0;right=0;pointerEvents=1;fontSize=16;fontStyle=0;spacingLeft=1;spacingTop=0;spacingRight=0;rounded=1;" parent="akpooxGZIGGbHc-bxIAZ-2" vertex="1">
          <mxGeometry x="60" width="60" height="50" as="geometry">
            <mxRectangle width="60" height="50" as="alternateBounds" />
          </mxGeometry>
        </mxCell>
        <mxCell id="akpooxGZIGGbHc-bxIAZ-5" value="name" style="shape=partialRectangle;html=1;whiteSpace=wrap;connectable=0;strokeColor=inherit;overflow=hidden;fillColor=none;top=0;left=0;bottom=0;right=0;pointerEvents=1;fontSize=16;fontStyle=0;spacingLeft=1;spacingTop=0;spacingRight=0;rounded=1;" parent="akpooxGZIGGbHc-bxIAZ-2" vertex="1">
          <mxGeometry x="120" width="60" height="50" as="geometry">
            <mxRectangle width="60" height="50" as="alternateBounds" />
          </mxGeometry>
        </mxCell>
        <mxCell id="akpooxGZIGGbHc-bxIAZ-6" value="b_year" style="shape=partialRectangle;html=1;whiteSpace=wrap;connectable=0;strokeColor=inherit;overflow=hidden;fillColor=none;top=0;left=0;bottom=0;right=0;pointerEvents=1;fontSize=16;fontStyle=0;spacingLeft=1;spacingTop=0;spacingRight=0;rounded=1;" parent="akpooxGZIGGbHc-bxIAZ-2" vertex="1">
          <mxGeometry x="180" width="60" height="50" as="geometry">
            <mxRectangle width="60" height="50" as="alternateBounds" />
          </mxGeometry>
        </mxCell>
        <mxCell id="akpooxGZIGGbHc-bxIAZ-7" value="gender" style="shape=partialRectangle;html=1;whiteSpace=wrap;connectable=0;strokeColor=inherit;overflow=hidden;fillColor=none;top=0;left=0;bottom=0;right=0;pointerEvents=1;fontSize=16;fontStyle=0;spacingLeft=1;spacingTop=0;spacingRight=0;rounded=1;" parent="akpooxGZIGGbHc-bxIAZ-2" vertex="1">
          <mxGeometry x="240" width="60" height="50" as="geometry">
            <mxRectangle width="60" height="50" as="alternateBounds" />
          </mxGeometry>
        </mxCell>
        <mxCell id="akpooxGZIGGbHc-bxIAZ-8" value="soicals" style="shape=partialRectangle;html=1;whiteSpace=wrap;connectable=0;strokeColor=inherit;overflow=hidden;fillColor=none;top=0;left=0;bottom=0;right=0;pointerEvents=1;fontSize=16;fontStyle=0;spacingLeft=1;spacingTop=0;spacingRight=0;rounded=1;" parent="akpooxGZIGGbHc-bxIAZ-2" vertex="1">
          <mxGeometry x="300" width="60" height="50" as="geometry">
            <mxRectangle width="60" height="50" as="alternateBounds" />
          </mxGeometry>
        </mxCell>
        <mxCell id="akpooxGZIGGbHc-bxIAZ-9" value="location&amp;nbsp;" style="shape=partialRectangle;html=1;whiteSpace=wrap;connectable=0;strokeColor=inherit;overflow=hidden;fillColor=none;top=0;left=0;bottom=0;right=0;pointerEvents=1;fontSize=16;fontStyle=0;spacingLeft=1;spacingTop=0;spacingRight=0;rounded=1;" parent="akpooxGZIGGbHc-bxIAZ-2" vertex="1">
          <mxGeometry x="360" width="60" height="50" as="geometry">
            <mxRectangle width="60" height="50" as="alternateBounds" />
          </mxGeometry>
        </mxCell>
        <mxCell id="akpooxGZIGGbHc-bxIAZ-10" value="phone#" style="shape=partialRectangle;html=1;whiteSpace=wrap;connectable=0;strokeColor=inherit;overflow=hidden;fillColor=none;top=0;left=0;bottom=0;right=0;pointerEvents=1;fontSize=16;fontStyle=0;rounded=1;" parent="akpooxGZIGGbHc-bxIAZ-2" vertex="1">
          <mxGeometry x="420" width="60" height="50" as="geometry">
            <mxRectangle width="60" height="50" as="alternateBounds" />
          </mxGeometry>
        </mxCell>
        <mxCell id="akpooxGZIGGbHc-bxIAZ-11" value="blood_type" style="shape=partialRectangle;html=1;whiteSpace=wrap;connectable=0;strokeColor=inherit;overflow=hidden;fillColor=none;top=0;left=0;bottom=0;right=0;pointerEvents=1;fontSize=16;fontStyle=0;rounded=1;" parent="akpooxGZIGGbHc-bxIAZ-2" vertex="1">
          <mxGeometry x="480" width="80" height="50" as="geometry">
            <mxRectangle width="80" height="50" as="alternateBounds" />
          </mxGeometry>
        </mxCell>
        <mxCell id="akpooxGZIGGbHc-bxIAZ-12" value="PERSON" style="text;html=1;align=center;verticalAlign=middle;resizable=0;points=[];autosize=1;strokeColor=none;fillColor=none;fontStyle=1;rounded=1;" parent="1" vertex="1">
          <mxGeometry x="-1559.8900000000003" y="-895" width="70" height="30" as="geometry" />
        </mxCell>
        <mxCell id="akpooxGZIGGbHc-bxIAZ-13" value="" style="shape=table;startSize=0;container=1;collapsible=0;childLayout=tableLayout;fontSize=16;rounded=1;" parent="1" vertex="1">
          <mxGeometry x="-970" y="-845" width="877" height="51" as="geometry" />
        </mxCell>
        <mxCell id="akpooxGZIGGbHc-bxIAZ-14" value="" style="shape=tableRow;horizontal=0;startSize=0;swimlaneHead=0;swimlaneBody=0;strokeColor=inherit;top=0;left=0;bottom=0;right=0;collapsible=0;dropTarget=0;fillColor=none;points=[[0,0.5],[1,0.5]];portConstraint=eastwest;fontSize=16;rounded=1;" parent="akpooxGZIGGbHc-bxIAZ-13" vertex="1">
          <mxGeometry width="877" height="51" as="geometry" />
        </mxCell>
        <mxCell id="akpooxGZIGGbHc-bxIAZ-15" value="&lt;font style=&quot;&quot;&gt;Doc_ID&lt;/font&gt;" style="shape=partialRectangle;html=1;whiteSpace=wrap;connectable=0;overflow=hidden;top=0;left=0;bottom=0;right=0;pointerEvents=1;fontSize=16;fontStyle=4;rounded=1;fillColor=#ffe6cc;strokeColor=#d79b00;" parent="akpooxGZIGGbHc-bxIAZ-14" vertex="1">
          <mxGeometry width="93" height="51" as="geometry">
            <mxRectangle width="93" height="51" as="alternateBounds" />
          </mxGeometry>
        </mxCell>
        <mxCell id="akpooxGZIGGbHc-bxIAZ-16" value="Email" style="shape=partialRectangle;html=1;whiteSpace=wrap;connectable=0;strokeColor=inherit;overflow=hidden;fillColor=none;top=0;left=0;bottom=0;right=0;pointerEvents=1;fontSize=16;rounded=1;" parent="akpooxGZIGGbHc-bxIAZ-14" vertex="1">
          <mxGeometry x="93" width="94" height="51" as="geometry">
            <mxRectangle width="94" height="51" as="alternateBounds" />
          </mxGeometry>
        </mxCell>
        <mxCell id="akpooxGZIGGbHc-bxIAZ-18" value="salary" style="shape=partialRectangle;html=1;whiteSpace=wrap;connectable=0;strokeColor=inherit;overflow=hidden;fillColor=none;top=0;left=0;bottom=0;right=0;pointerEvents=1;fontSize=16;rounded=1;" parent="akpooxGZIGGbHc-bxIAZ-14" vertex="1">
          <mxGeometry x="187" width="93" height="51" as="geometry">
            <mxRectangle width="93" height="51" as="alternateBounds" />
          </mxGeometry>
        </mxCell>
        <mxCell id="akpooxGZIGGbHc-bxIAZ-19" value="workP#" style="shape=partialRectangle;html=1;whiteSpace=wrap;connectable=0;strokeColor=inherit;overflow=hidden;fillColor=none;top=0;left=0;bottom=0;right=0;pointerEvents=1;fontSize=16;rounded=1;" parent="akpooxGZIGGbHc-bxIAZ-14" vertex="1">
          <mxGeometry x="280" width="94" height="51" as="geometry">
            <mxRectangle width="94" height="51" as="alternateBounds" />
          </mxGeometry>
        </mxCell>
        <mxCell id="akpooxGZIGGbHc-bxIAZ-20" value="Specification" style="shape=partialRectangle;html=1;whiteSpace=wrap;connectable=0;strokeColor=inherit;overflow=hidden;fillColor=none;top=0;left=0;bottom=0;right=0;pointerEvents=1;fontSize=16;rounded=1;" parent="akpooxGZIGGbHc-bxIAZ-14" vertex="1">
          <mxGeometry x="374" width="96" height="51" as="geometry">
            <mxRectangle width="96" height="51" as="alternateBounds" />
          </mxGeometry>
        </mxCell>
        <mxCell id="akpooxGZIGGbHc-bxIAZ-21" value="Experience&amp;nbsp;" style="shape=partialRectangle;html=1;whiteSpace=wrap;connectable=0;strokeColor=inherit;overflow=hidden;fillColor=none;top=0;left=0;bottom=0;right=0;pointerEvents=1;fontSize=16;rounded=1;" parent="akpooxGZIGGbHc-bxIAZ-14" vertex="1">
          <mxGeometry x="470" width="90" height="51" as="geometry">
            <mxRectangle width="90" height="51" as="alternateBounds" />
          </mxGeometry>
        </mxCell>
        <mxCell id="akpooxGZIGGbHc-bxIAZ-22" value="Dep_ID" style="shape=partialRectangle;html=1;whiteSpace=wrap;connectable=0;strokeColor=inherit;overflow=hidden;fillColor=none;top=0;left=0;bottom=0;right=0;pointerEvents=1;fontSize=16;rounded=1;" parent="akpooxGZIGGbHc-bxIAZ-14" vertex="1">
          <mxGeometry x="560" width="110" height="51" as="geometry">
            <mxRectangle width="110" height="51" as="alternateBounds" />
          </mxGeometry>
        </mxCell>
        <mxCell id="LqfJhidOHouMK1FL3JT--2" value="SDate" style="shape=partialRectangle;html=1;whiteSpace=wrap;connectable=0;strokeColor=inherit;overflow=hidden;fillColor=none;top=0;left=0;bottom=0;right=0;pointerEvents=1;fontSize=16;rounded=1;" parent="akpooxGZIGGbHc-bxIAZ-14" vertex="1">
          <mxGeometry x="670" width="97" height="51" as="geometry">
            <mxRectangle width="97" height="51" as="alternateBounds" />
          </mxGeometry>
        </mxCell>
        <mxCell id="LqfJhidOHouMK1FL3JT--1" value="WorkingHours" style="shape=partialRectangle;html=1;whiteSpace=wrap;connectable=0;strokeColor=inherit;overflow=hidden;fillColor=none;top=0;left=0;bottom=0;right=0;pointerEvents=1;fontSize=16;rounded=1;" parent="akpooxGZIGGbHc-bxIAZ-14" vertex="1">
          <mxGeometry x="767" width="110" height="51" as="geometry">
            <mxRectangle width="110" height="51" as="alternateBounds" />
          </mxGeometry>
        </mxCell>
        <mxCell id="akpooxGZIGGbHc-bxIAZ-24" value="PATIENT" style="text;html=1;align=center;verticalAlign=middle;resizable=0;points=[];autosize=1;strokeColor=none;fillColor=none;fontStyle=1;rounded=1;" parent="1" vertex="1">
          <mxGeometry x="-870.25" y="-775" width="70" height="30" as="geometry" />
        </mxCell>
        <mxCell id="akpooxGZIGGbHc-bxIAZ-25" value="" style="shape=table;startSize=0;container=1;collapsible=0;childLayout=tableLayout;fontSize=16;verticalAlign=top;rounded=1;" parent="1" vertex="1">
          <mxGeometry x="-970.25" y="-755" width="350" height="40" as="geometry" />
        </mxCell>
        <mxCell id="akpooxGZIGGbHc-bxIAZ-26" value="" style="shape=tableRow;horizontal=0;startSize=0;swimlaneHead=0;swimlaneBody=0;strokeColor=inherit;top=0;left=0;bottom=0;right=0;collapsible=0;dropTarget=0;fillColor=none;points=[[0,0.5],[1,0.5]];portConstraint=eastwest;fontSize=16;rounded=1;" parent="akpooxGZIGGbHc-bxIAZ-25" vertex="1">
          <mxGeometry width="350" height="40" as="geometry" />
        </mxCell>
        <mxCell id="akpooxGZIGGbHc-bxIAZ-27" value="Pat_ID" style="shape=partialRectangle;html=1;whiteSpace=wrap;connectable=0;strokeColor=#d79b00;overflow=hidden;fillColor=#ffe6cc;top=0;left=0;bottom=0;right=0;pointerEvents=1;fontSize=16;fontStyle=4;rounded=1;" parent="akpooxGZIGGbHc-bxIAZ-26" vertex="1">
          <mxGeometry width="60" height="40" as="geometry">
            <mxRectangle width="60" height="40" as="alternateBounds" />
          </mxGeometry>
        </mxCell>
        <mxCell id="akpooxGZIGGbHc-bxIAZ-28" value="E_C" style="shape=partialRectangle;html=1;whiteSpace=wrap;connectable=0;strokeColor=inherit;overflow=hidden;fillColor=none;top=0;left=0;bottom=0;right=0;pointerEvents=1;fontSize=16;rounded=1;" parent="akpooxGZIGGbHc-bxIAZ-26" vertex="1">
          <mxGeometry x="60" width="60" height="40" as="geometry">
            <mxRectangle width="60" height="40" as="alternateBounds" />
          </mxGeometry>
        </mxCell>
        <mxCell id="akpooxGZIGGbHc-bxIAZ-29" value="Sec_ID" style="shape=partialRectangle;html=1;whiteSpace=wrap;connectable=0;strokeColor=inherit;overflow=hidden;fillColor=none;top=0;left=0;bottom=0;right=0;pointerEvents=1;fontSize=16;rounded=1;" parent="akpooxGZIGGbHc-bxIAZ-26" vertex="1">
          <mxGeometry x="120" width="70" height="40" as="geometry">
            <mxRectangle width="70" height="40" as="alternateBounds" />
          </mxGeometry>
        </mxCell>
        <mxCell id="akpooxGZIGGbHc-bxIAZ-30" value="adm_date" style="shape=partialRectangle;html=1;whiteSpace=wrap;connectable=0;strokeColor=inherit;overflow=hidden;fillColor=none;top=0;left=0;bottom=0;right=0;pointerEvents=1;fontSize=16;rounded=1;" parent="akpooxGZIGGbHc-bxIAZ-26" vertex="1">
          <mxGeometry x="190" width="80" height="40" as="geometry">
            <mxRectangle width="80" height="40" as="alternateBounds" />
          </mxGeometry>
        </mxCell>
        <mxCell id="RbBhvk_uY5edk4Og6X9Q-1" value="Room" style="shape=partialRectangle;html=1;whiteSpace=wrap;connectable=0;strokeColor=inherit;overflow=hidden;fillColor=none;top=0;left=0;bottom=0;right=0;pointerEvents=1;fontSize=16;rounded=1;" parent="akpooxGZIGGbHc-bxIAZ-26" vertex="1">
          <mxGeometry x="270" width="80" height="40" as="geometry">
            <mxRectangle width="80" height="40" as="alternateBounds" />
          </mxGeometry>
        </mxCell>
        <mxCell id="akpooxGZIGGbHc-bxIAZ-31" value="DOCTOR" style="text;html=1;align=center;verticalAlign=middle;resizable=0;points=[];autosize=1;strokeColor=none;fillColor=none;fontStyle=1;rounded=1;" parent="1" vertex="1">
          <mxGeometry x="-830" y="-865" width="80" height="30" as="geometry" />
        </mxCell>
        <mxCell id="akpooxGZIGGbHc-bxIAZ-66" value="APPOINTMENT" style="text;html=1;align=center;verticalAlign=middle;resizable=0;points=[];autosize=1;strokeColor=none;fillColor=none;fontStyle=2;rounded=1;" parent="1" vertex="1">
          <mxGeometry x="-860" y="-675" width="110" height="30" as="geometry" />
        </mxCell>
        <mxCell id="akpooxGZIGGbHc-bxIAZ-67" value="" style="shape=table;startSize=0;container=1;collapsible=0;childLayout=tableLayout;fontSize=16;rounded=1;" parent="1" vertex="1">
          <mxGeometry x="-1514.8600000000001" y="-575" width="429.9999999999998" height="40" as="geometry" />
        </mxCell>
        <mxCell id="akpooxGZIGGbHc-bxIAZ-68" value="" style="shape=tableRow;horizontal=0;startSize=0;swimlaneHead=0;swimlaneBody=0;strokeColor=inherit;top=0;left=0;bottom=0;right=0;collapsible=0;dropTarget=0;fillColor=none;points=[[0,0.5],[1,0.5]];portConstraint=eastwest;fontSize=16;rounded=1;" parent="akpooxGZIGGbHc-bxIAZ-67" vertex="1">
          <mxGeometry width="429.9999999999998" height="40" as="geometry" />
        </mxCell>
        <mxCell id="akpooxGZIGGbHc-bxIAZ-69" value="Dep_ID" style="shape=partialRectangle;html=1;whiteSpace=wrap;connectable=0;strokeColor=#82b366;overflow=hidden;fillColor=#d5e8d4;top=0;left=0;bottom=0;right=0;pointerEvents=1;fontSize=16;fontStyle=4;rounded=1;" parent="akpooxGZIGGbHc-bxIAZ-68" vertex="1">
          <mxGeometry width="60" height="40" as="geometry">
            <mxRectangle width="60" height="40" as="alternateBounds" />
          </mxGeometry>
        </mxCell>
        <mxCell id="akpooxGZIGGbHc-bxIAZ-70" value="Name" style="shape=partialRectangle;html=1;whiteSpace=wrap;connectable=0;strokeColor=inherit;overflow=hidden;fillColor=none;top=0;left=0;bottom=0;right=0;pointerEvents=1;fontSize=16;rounded=1;" parent="akpooxGZIGGbHc-bxIAZ-68" vertex="1">
          <mxGeometry x="60" width="70" height="40" as="geometry">
            <mxRectangle width="70" height="40" as="alternateBounds" />
          </mxGeometry>
        </mxCell>
        <mxCell id="akpooxGZIGGbHc-bxIAZ-71" value="NoS" style="shape=partialRectangle;html=1;whiteSpace=wrap;connectable=0;strokeColor=inherit;overflow=hidden;fillColor=none;top=0;left=0;bottom=0;right=0;pointerEvents=1;fontSize=16;rounded=1;" parent="akpooxGZIGGbHc-bxIAZ-68" vertex="1">
          <mxGeometry x="130" width="60" height="40" as="geometry">
            <mxRectangle width="60" height="40" as="alternateBounds" />
          </mxGeometry>
        </mxCell>
        <mxCell id="akpooxGZIGGbHc-bxIAZ-72" value="NoE" style="shape=partialRectangle;html=1;whiteSpace=wrap;connectable=0;strokeColor=inherit;overflow=hidden;fillColor=none;top=0;left=0;bottom=0;right=0;pointerEvents=1;fontSize=16;rounded=1;" parent="akpooxGZIGGbHc-bxIAZ-68" vertex="1">
          <mxGeometry x="190" width="70" height="40" as="geometry">
            <mxRectangle width="70" height="40" as="alternateBounds" />
          </mxGeometry>
        </mxCell>
        <mxCell id="akpooxGZIGGbHc-bxIAZ-73" value="NoM" style="shape=partialRectangle;html=1;whiteSpace=wrap;connectable=0;strokeColor=inherit;overflow=hidden;fillColor=none;top=0;left=0;bottom=0;right=0;pointerEvents=1;fontSize=16;rounded=1;" parent="akpooxGZIGGbHc-bxIAZ-68" vertex="1">
          <mxGeometry x="260" width="50" height="40" as="geometry">
            <mxRectangle width="50" height="40" as="alternateBounds" />
          </mxGeometry>
        </mxCell>
        <mxCell id="akpooxGZIGGbHc-bxIAZ-74" value="Doc_ID" style="shape=partialRectangle;html=1;whiteSpace=wrap;connectable=0;strokeColor=inherit;overflow=hidden;fillColor=none;top=0;left=0;bottom=0;right=0;pointerEvents=1;fontSize=16;rounded=1;" parent="akpooxGZIGGbHc-bxIAZ-68" vertex="1">
          <mxGeometry x="310" width="60" height="40" as="geometry">
            <mxRectangle width="60" height="40" as="alternateBounds" />
          </mxGeometry>
        </mxCell>
        <mxCell id="LqfJhidOHouMK1FL3JT--5" value="SDate" style="shape=partialRectangle;html=1;whiteSpace=wrap;connectable=0;strokeColor=inherit;overflow=hidden;fillColor=none;top=0;left=0;bottom=0;right=0;pointerEvents=1;fontSize=16;rounded=1;" parent="akpooxGZIGGbHc-bxIAZ-68" vertex="1">
          <mxGeometry x="370" width="60" height="40" as="geometry">
            <mxRectangle width="60" height="40" as="alternateBounds" />
          </mxGeometry>
        </mxCell>
        <mxCell id="akpooxGZIGGbHc-bxIAZ-75" value="DEPARTMENT" style="text;html=1;align=center;verticalAlign=middle;resizable=0;points=[];autosize=1;strokeColor=none;fillColor=none;fontStyle=1;rounded=1;" parent="1" vertex="1">
          <mxGeometry x="-734.86" y="-635" width="110" height="30" as="geometry" />
        </mxCell>
        <mxCell id="_Sf3S8QxjTHlnE-0kfGf-1" style="edgeStyle=orthogonalEdgeStyle;rounded=0;orthogonalLoop=1;jettySize=auto;html=1;exitX=0;exitY=0.5;exitDx=0;exitDy=0;entryX=0;entryY=0.5;entryDx=0;entryDy=0;" parent="1" source="akpooxGZIGGbHc-bxIAZ-76" target="akpooxGZIGGbHc-bxIAZ-26" edge="1">
          <mxGeometry relative="1" as="geometry">
            <mxPoint x="-1010" y="-735" as="targetPoint" />
            <Array as="points">
              <mxPoint x="-1009" y="-635" />
              <mxPoint x="-1009" y="-735" />
            </Array>
          </mxGeometry>
        </mxCell>
        <mxCell id="akpooxGZIGGbHc-bxIAZ-76" value="" style="shape=table;startSize=0;container=1;collapsible=0;childLayout=tableLayout;fontSize=16;rounded=1;" parent="1" vertex="1">
          <mxGeometry x="-975" y="-655" width="339.9999999999998" height="40" as="geometry" />
        </mxCell>
        <mxCell id="akpooxGZIGGbHc-bxIAZ-77" value="" style="shape=tableRow;horizontal=0;startSize=0;swimlaneHead=0;swimlaneBody=0;strokeColor=inherit;top=0;left=0;bottom=0;right=0;collapsible=0;dropTarget=0;fillColor=none;points=[[0,0.5],[1,0.5]];portConstraint=eastwest;fontSize=16;rounded=1;" parent="akpooxGZIGGbHc-bxIAZ-76" vertex="1">
          <mxGeometry width="339.9999999999998" height="40" as="geometry" />
        </mxCell>
        <mxCell id="akpooxGZIGGbHc-bxIAZ-78" value="Pat_ID" style="shape=partialRectangle;html=1;whiteSpace=wrap;connectable=0;strokeColor=inherit;overflow=hidden;fillColor=none;top=0;left=0;bottom=0;right=0;pointerEvents=1;fontSize=16;fontStyle=4;rounded=1;" parent="akpooxGZIGGbHc-bxIAZ-77" vertex="1">
          <mxGeometry width="60" height="40" as="geometry">
            <mxRectangle width="60" height="40" as="alternateBounds" />
          </mxGeometry>
        </mxCell>
        <mxCell id="akpooxGZIGGbHc-bxIAZ-79" value="&lt;u&gt;Doc_ID&lt;/u&gt;" style="shape=partialRectangle;html=1;whiteSpace=wrap;connectable=0;strokeColor=inherit;overflow=hidden;fillColor=none;top=0;left=0;bottom=0;right=0;pointerEvents=1;fontSize=16;rounded=1;" parent="akpooxGZIGGbHc-bxIAZ-77" vertex="1">
          <mxGeometry x="60" width="70" height="40" as="geometry">
            <mxRectangle width="70" height="40" as="alternateBounds" />
          </mxGeometry>
        </mxCell>
        <mxCell id="akpooxGZIGGbHc-bxIAZ-80" value="&lt;u&gt;Room&lt;/u&gt;" style="shape=partialRectangle;html=1;whiteSpace=wrap;connectable=0;strokeColor=inherit;overflow=hidden;fillColor=none;top=0;left=0;bottom=0;right=0;pointerEvents=1;fontSize=16;rounded=1;" parent="akpooxGZIGGbHc-bxIAZ-77" vertex="1">
          <mxGeometry x="130" width="50" height="40" as="geometry">
            <mxRectangle width="50" height="40" as="alternateBounds" />
          </mxGeometry>
        </mxCell>
        <mxCell id="akpooxGZIGGbHc-bxIAZ-81" value="Time" style="shape=partialRectangle;html=1;whiteSpace=wrap;connectable=0;strokeColor=inherit;overflow=hidden;fillColor=none;top=0;left=0;bottom=0;right=0;pointerEvents=1;fontSize=16;fontStyle=4;rounded=1;" parent="akpooxGZIGGbHc-bxIAZ-77" vertex="1">
          <mxGeometry x="180" width="50" height="40" as="geometry">
            <mxRectangle width="50" height="40" as="alternateBounds" />
          </mxGeometry>
        </mxCell>
        <mxCell id="akpooxGZIGGbHc-bxIAZ-82" value="Date" style="shape=partialRectangle;html=1;whiteSpace=wrap;connectable=0;strokeColor=inherit;overflow=hidden;fillColor=none;top=0;left=0;bottom=0;right=0;pointerEvents=1;fontSize=16;fontStyle=4;rounded=1;" parent="akpooxGZIGGbHc-bxIAZ-77" vertex="1">
          <mxGeometry x="230" width="50" height="40" as="geometry">
            <mxRectangle width="50" height="40" as="alternateBounds" />
          </mxGeometry>
        </mxCell>
        <mxCell id="akpooxGZIGGbHc-bxIAZ-83" value="Status" style="shape=partialRectangle;html=1;whiteSpace=wrap;connectable=0;strokeColor=inherit;overflow=hidden;fillColor=none;top=0;left=0;bottom=0;right=0;pointerEvents=1;fontSize=16;rounded=1;" parent="akpooxGZIGGbHc-bxIAZ-77" vertex="1">
          <mxGeometry x="280" width="60" height="40" as="geometry">
            <mxRectangle width="60" height="40" as="alternateBounds" />
          </mxGeometry>
        </mxCell>
        <mxCell id="akpooxGZIGGbHc-bxIAZ-84" value="SECTION" style="text;html=1;align=center;verticalAlign=middle;resizable=0;points=[];autosize=1;strokeColor=none;fillColor=none;fontStyle=2;rounded=1;" parent="1" vertex="1">
          <mxGeometry x="-1350" y="-445" width="80" height="30" as="geometry" />
        </mxCell>
        <mxCell id="akpooxGZIGGbHc-bxIAZ-85" value="" style="shape=table;startSize=0;container=1;collapsible=0;childLayout=tableLayout;fontSize=16;rounded=1;" parent="1" vertex="1">
          <mxGeometry x="-1495" y="-420" width="490" height="40" as="geometry" />
        </mxCell>
        <mxCell id="akpooxGZIGGbHc-bxIAZ-86" value="" style="shape=tableRow;horizontal=0;startSize=0;swimlaneHead=0;swimlaneBody=0;strokeColor=inherit;top=0;left=0;bottom=0;right=0;collapsible=0;dropTarget=0;fillColor=none;points=[[0,0.5],[1,0.5]];portConstraint=eastwest;fontSize=16;rounded=1;" parent="akpooxGZIGGbHc-bxIAZ-85" vertex="1">
          <mxGeometry width="490" height="40" as="geometry" />
        </mxCell>
        <mxCell id="akpooxGZIGGbHc-bxIAZ-87" value="Sec_ID" style="shape=partialRectangle;html=1;whiteSpace=wrap;connectable=0;strokeColor=inherit;overflow=hidden;fillColor=none;top=0;left=0;bottom=0;right=0;pointerEvents=1;fontSize=16;fontStyle=4;rounded=1;" parent="akpooxGZIGGbHc-bxIAZ-86" vertex="1">
          <mxGeometry width="70" height="40" as="geometry">
            <mxRectangle width="70" height="40" as="alternateBounds" />
          </mxGeometry>
        </mxCell>
        <mxCell id="akpooxGZIGGbHc-bxIAZ-88" value="DepS_ID" style="shape=partialRectangle;html=1;whiteSpace=wrap;connectable=0;strokeColor=inherit;overflow=hidden;fillColor=none;top=0;left=0;bottom=0;right=0;pointerEvents=1;fontSize=16;fontStyle=0;rounded=1;" parent="akpooxGZIGGbHc-bxIAZ-86" vertex="1">
          <mxGeometry x="70" width="70" height="40" as="geometry">
            <mxRectangle width="70" height="40" as="alternateBounds" />
          </mxGeometry>
        </mxCell>
        <mxCell id="akpooxGZIGGbHc-bxIAZ-89" value="&lt;span&gt;Type&lt;/span&gt;" style="shape=partialRectangle;html=1;whiteSpace=wrap;connectable=0;strokeColor=inherit;overflow=hidden;fillColor=none;top=0;left=0;bottom=0;right=0;pointerEvents=1;fontSize=16;rounded=1;fontStyle=0" parent="akpooxGZIGGbHc-bxIAZ-86" vertex="1">
          <mxGeometry x="140" width="60" height="40" as="geometry">
            <mxRectangle width="60" height="40" as="alternateBounds" />
          </mxGeometry>
        </mxCell>
        <mxCell id="akpooxGZIGGbHc-bxIAZ-90" value="capacity&amp;nbsp;" style="shape=partialRectangle;html=1;whiteSpace=wrap;connectable=0;strokeColor=inherit;overflow=hidden;fillColor=none;top=0;left=0;bottom=0;right=0;pointerEvents=1;fontSize=16;rounded=1;" parent="akpooxGZIGGbHc-bxIAZ-86" vertex="1">
          <mxGeometry x="200" width="70" height="40" as="geometry">
            <mxRectangle width="70" height="40" as="alternateBounds" />
          </mxGeometry>
        </mxCell>
        <mxCell id="akpooxGZIGGbHc-bxIAZ-91" value="#oOper" style="shape=partialRectangle;html=1;whiteSpace=wrap;connectable=0;strokeColor=inherit;overflow=hidden;fillColor=none;top=0;left=0;bottom=0;right=0;pointerEvents=1;fontSize=16;rounded=1;" parent="akpooxGZIGGbHc-bxIAZ-86" vertex="1">
          <mxGeometry x="270" width="70" height="40" as="geometry">
            <mxRectangle width="70" height="40" as="alternateBounds" />
          </mxGeometry>
        </mxCell>
        <mxCell id="akpooxGZIGGbHc-bxIAZ-92" value="#opatient" style="shape=partialRectangle;html=1;whiteSpace=wrap;connectable=0;strokeColor=inherit;overflow=hidden;fillColor=none;top=0;left=0;bottom=0;right=0;pointerEvents=1;fontSize=16;rounded=1;" parent="akpooxGZIGGbHc-bxIAZ-86" vertex="1">
          <mxGeometry x="340" width="70" height="40" as="geometry">
            <mxRectangle width="70" height="40" as="alternateBounds" />
          </mxGeometry>
        </mxCell>
        <mxCell id="akpooxGZIGGbHc-bxIAZ-93" value="#odisease" style="shape=partialRectangle;html=1;whiteSpace=wrap;connectable=0;strokeColor=inherit;overflow=hidden;fillColor=none;top=0;left=0;bottom=0;right=0;pointerEvents=1;fontSize=16;rounded=1;" parent="akpooxGZIGGbHc-bxIAZ-86" vertex="1">
          <mxGeometry x="410" width="80" height="40" as="geometry">
            <mxRectangle width="80" height="40" as="alternateBounds" />
          </mxGeometry>
        </mxCell>
        <mxCell id="akpooxGZIGGbHc-bxIAZ-94" value="" style="shape=table;startSize=0;container=1;collapsible=0;childLayout=tableLayout;fontSize=16;rounded=1;" parent="1" vertex="1">
          <mxGeometry x="-1514.8600000000001" y="-515" width="130" height="40" as="geometry" />
        </mxCell>
        <mxCell id="akpooxGZIGGbHc-bxIAZ-95" value="" style="shape=tableRow;horizontal=0;startSize=0;swimlaneHead=0;swimlaneBody=0;strokeColor=inherit;top=0;left=0;bottom=0;right=0;collapsible=0;dropTarget=0;fillColor=none;points=[[0,0.5],[1,0.5]];portConstraint=eastwest;fontSize=16;rounded=1;" parent="akpooxGZIGGbHc-bxIAZ-94" vertex="1">
          <mxGeometry width="130" height="40" as="geometry" />
        </mxCell>
        <mxCell id="akpooxGZIGGbHc-bxIAZ-96" value="Dep_ID" style="shape=partialRectangle;html=1;whiteSpace=wrap;connectable=0;strokeColor=inherit;overflow=hidden;fillColor=none;top=0;left=0;bottom=0;right=0;pointerEvents=1;fontSize=16;fontStyle=4;rounded=1;" parent="akpooxGZIGGbHc-bxIAZ-95" vertex="1">
          <mxGeometry width="60" height="40" as="geometry">
            <mxRectangle width="60" height="40" as="alternateBounds" />
          </mxGeometry>
        </mxCell>
        <mxCell id="akpooxGZIGGbHc-bxIAZ-97" value="Location" style="shape=partialRectangle;html=1;whiteSpace=wrap;connectable=0;strokeColor=inherit;overflow=hidden;fillColor=none;top=0;left=0;bottom=0;right=0;pointerEvents=1;fontSize=16;fontStyle=4;rounded=1;" parent="akpooxGZIGGbHc-bxIAZ-95" vertex="1">
          <mxGeometry x="60" width="70" height="40" as="geometry">
            <mxRectangle width="70" height="40" as="alternateBounds" />
          </mxGeometry>
        </mxCell>
        <mxCell id="akpooxGZIGGbHc-bxIAZ-98" value="Department_location" style="text;html=1;align=center;verticalAlign=middle;resizable=0;points=[];autosize=1;strokeColor=none;fillColor=none;fontColor=#009900;rounded=1;" parent="1" vertex="1">
          <mxGeometry x="-1524.8600000000001" y="-535" width="130" height="30" as="geometry" />
        </mxCell>
        <mxCell id="akpooxGZIGGbHc-bxIAZ-99" value="" style="shape=table;startSize=0;container=1;collapsible=0;childLayout=tableLayout;fontSize=16;rounded=1;" parent="1" vertex="1">
          <mxGeometry x="-1495" y="-360" width="130" height="40" as="geometry" />
        </mxCell>
        <mxCell id="akpooxGZIGGbHc-bxIAZ-100" value="" style="shape=tableRow;horizontal=0;startSize=0;swimlaneHead=0;swimlaneBody=0;strokeColor=inherit;top=0;left=0;bottom=0;right=0;collapsible=0;dropTarget=0;fillColor=none;points=[[0,0.5],[1,0.5]];portConstraint=eastwest;fontSize=16;rounded=1;" parent="akpooxGZIGGbHc-bxIAZ-99" vertex="1">
          <mxGeometry width="130" height="40" as="geometry" />
        </mxCell>
        <mxCell id="akpooxGZIGGbHc-bxIAZ-101" value="Sec_ID" style="shape=partialRectangle;html=1;whiteSpace=wrap;connectable=0;strokeColor=inherit;overflow=hidden;fillColor=none;top=0;left=0;bottom=0;right=0;pointerEvents=1;fontSize=16;fontStyle=4;rounded=1;" parent="akpooxGZIGGbHc-bxIAZ-100" vertex="1">
          <mxGeometry width="60" height="40" as="geometry">
            <mxRectangle width="60" height="40" as="alternateBounds" />
          </mxGeometry>
        </mxCell>
        <mxCell id="akpooxGZIGGbHc-bxIAZ-103" value="room" style="shape=partialRectangle;html=1;whiteSpace=wrap;connectable=0;strokeColor=inherit;overflow=hidden;fillColor=none;top=0;left=0;bottom=0;right=0;pointerEvents=1;fontSize=16;fontStyle=4;rounded=1;" parent="akpooxGZIGGbHc-bxIAZ-100" vertex="1">
          <mxGeometry x="60" width="70" height="40" as="geometry">
            <mxRectangle width="70" height="40" as="alternateBounds" />
          </mxGeometry>
        </mxCell>
        <mxCell id="akpooxGZIGGbHc-bxIAZ-104" value="Section_room" style="text;html=1;align=center;verticalAlign=middle;resizable=0;points=[];autosize=1;strokeColor=none;fillColor=none;fontColor=#009900;rounded=1;" parent="1" vertex="1">
          <mxGeometry x="-1504.8600000000001" y="-380" width="100" height="30" as="geometry" />
        </mxCell>
        <mxCell id="akpooxGZIGGbHc-bxIAZ-105" value="MEDICAL_allergy" style="text;html=1;align=center;verticalAlign=middle;resizable=0;points=[];autosize=1;strokeColor=none;fillColor=none;fontColor=#009900;rounded=1;" parent="1" vertex="1">
          <mxGeometry x="-220" y="-315" width="120" height="30" as="geometry" />
        </mxCell>
        <mxCell id="akpooxGZIGGbHc-bxIAZ-106" value="" style="shape=table;startSize=0;container=1;collapsible=0;childLayout=tableLayout;fontSize=16;rounded=1;" parent="1" vertex="1">
          <mxGeometry x="-210" y="-295" width="130" height="40" as="geometry" />
        </mxCell>
        <mxCell id="akpooxGZIGGbHc-bxIAZ-107" value="" style="shape=tableRow;horizontal=0;startSize=0;swimlaneHead=0;swimlaneBody=0;strokeColor=inherit;top=0;left=0;bottom=0;right=0;collapsible=0;dropTarget=0;fillColor=none;points=[[0,0.5],[1,0.5]];portConstraint=eastwest;fontSize=16;rounded=1;" parent="akpooxGZIGGbHc-bxIAZ-106" vertex="1">
          <mxGeometry width="130" height="40" as="geometry" />
        </mxCell>
        <mxCell id="akpooxGZIGGbHc-bxIAZ-108" value="R_ID" style="shape=partialRectangle;html=1;whiteSpace=wrap;connectable=0;strokeColor=inherit;overflow=hidden;fillColor=none;top=0;left=0;bottom=0;right=0;pointerEvents=1;fontSize=16;fontStyle=4;rounded=1;" parent="akpooxGZIGGbHc-bxIAZ-107" vertex="1">
          <mxGeometry width="60" height="40" as="geometry">
            <mxRectangle width="60" height="40" as="alternateBounds" />
          </mxGeometry>
        </mxCell>
        <mxCell id="akpooxGZIGGbHc-bxIAZ-110" value="&lt;u&gt;allergy&lt;/u&gt;" style="shape=partialRectangle;html=1;whiteSpace=wrap;connectable=0;strokeColor=inherit;overflow=hidden;fillColor=none;top=0;left=0;bottom=0;right=0;pointerEvents=1;fontSize=16;rounded=1;" parent="akpooxGZIGGbHc-bxIAZ-107" vertex="1">
          <mxGeometry x="60" width="70" height="40" as="geometry">
            <mxRectangle width="70" height="40" as="alternateBounds" />
          </mxGeometry>
        </mxCell>
        <mxCell id="akpooxGZIGGbHc-bxIAZ-111" value="MEDICAL_RECORD" style="text;html=1;align=center;verticalAlign=middle;resizable=0;points=[];autosize=1;strokeColor=none;fillColor=none;fontStyle=2;rounded=1;" parent="1" vertex="1">
          <mxGeometry x="-195" y="-390" width="140" height="30" as="geometry" />
        </mxCell>
        <mxCell id="akpooxGZIGGbHc-bxIAZ-112" value="" style="shape=table;startSize=0;container=1;collapsible=0;childLayout=tableLayout;fontSize=16;rounded=1;" parent="1" vertex="1">
          <mxGeometry x="-210" y="-365" width="210" height="40" as="geometry" />
        </mxCell>
        <mxCell id="akpooxGZIGGbHc-bxIAZ-113" value="" style="shape=tableRow;horizontal=0;startSize=0;swimlaneHead=0;swimlaneBody=0;strokeColor=inherit;top=0;left=0;bottom=0;right=0;collapsible=0;dropTarget=0;fillColor=none;points=[[0,0.5],[1,0.5]];portConstraint=eastwest;fontSize=16;rounded=1;" parent="akpooxGZIGGbHc-bxIAZ-112" vertex="1">
          <mxGeometry width="210" height="40" as="geometry" />
        </mxCell>
        <mxCell id="akpooxGZIGGbHc-bxIAZ-115" value="&lt;u&gt;R_ID&lt;/u&gt;" style="shape=partialRectangle;html=1;whiteSpace=wrap;connectable=0;strokeColor=#82b366;overflow=hidden;fillColor=#d5e8d4;top=0;left=0;bottom=0;right=0;pointerEvents=1;fontSize=16;rounded=1;" parent="akpooxGZIGGbHc-bxIAZ-113" vertex="1">
          <mxGeometry width="70" height="40" as="geometry">
            <mxRectangle width="70" height="40" as="alternateBounds" />
          </mxGeometry>
        </mxCell>
        <mxCell id="akpooxGZIGGbHc-bxIAZ-116" value="cash" style="shape=partialRectangle;html=1;whiteSpace=wrap;connectable=0;strokeColor=inherit;overflow=hidden;fillColor=none;top=0;left=0;bottom=0;right=0;pointerEvents=1;fontSize=16;rounded=1;" parent="akpooxGZIGGbHc-bxIAZ-113" vertex="1">
          <mxGeometry x="70" width="70" height="40" as="geometry">
            <mxRectangle width="70" height="40" as="alternateBounds" />
          </mxGeometry>
        </mxCell>
        <mxCell id="RFXbWavJSFt-vl1VfKW9-1" value="P_ID" style="shape=partialRectangle;html=1;whiteSpace=wrap;connectable=0;strokeColor=inherit;overflow=hidden;fillColor=none;top=0;left=0;bottom=0;right=0;pointerEvents=1;fontSize=16;rounded=1;" parent="akpooxGZIGGbHc-bxIAZ-113" vertex="1">
          <mxGeometry x="140" width="70" height="40" as="geometry">
            <mxRectangle width="70" height="40" as="alternateBounds" />
          </mxGeometry>
        </mxCell>
        <mxCell id="akpooxGZIGGbHc-bxIAZ-117" value="DISEASE&amp;nbsp;" style="text;html=1;align=center;verticalAlign=middle;resizable=0;points=[];autosize=1;strokeColor=none;fillColor=none;fontStyle=1;rounded=1;" parent="1" vertex="1">
          <mxGeometry x="-590.0000000000002" y="-505" width="80" height="30" as="geometry" />
        </mxCell>
        <mxCell id="akpooxGZIGGbHc-bxIAZ-118" value="" style="shape=table;startSize=0;container=1;collapsible=0;childLayout=tableLayout;fontSize=16;rounded=1;" parent="1" vertex="1">
          <mxGeometry x="-650.0000000000002" y="-485" width="220" height="40" as="geometry" />
        </mxCell>
        <mxCell id="akpooxGZIGGbHc-bxIAZ-119" value="" style="shape=tableRow;horizontal=0;startSize=0;swimlaneHead=0;swimlaneBody=0;strokeColor=inherit;top=0;left=0;bottom=0;right=0;collapsible=0;dropTarget=0;fillColor=none;points=[[0,0.5],[1,0.5]];portConstraint=eastwest;fontSize=16;rounded=1;" parent="akpooxGZIGGbHc-bxIAZ-118" vertex="1">
          <mxGeometry width="220" height="40" as="geometry" />
        </mxCell>
        <mxCell id="akpooxGZIGGbHc-bxIAZ-120" value="Dis_ID" style="shape=partialRectangle;html=1;whiteSpace=wrap;connectable=0;strokeColor=#82b366;overflow=hidden;fillColor=#d5e8d4;top=0;left=0;bottom=0;right=0;pointerEvents=1;fontSize=16;fontStyle=4;rounded=1;" parent="akpooxGZIGGbHc-bxIAZ-119" vertex="1">
          <mxGeometry width="60" height="40" as="geometry">
            <mxRectangle width="60" height="40" as="alternateBounds" />
          </mxGeometry>
        </mxCell>
        <mxCell id="akpooxGZIGGbHc-bxIAZ-121" value="name" style="shape=partialRectangle;html=1;whiteSpace=wrap;connectable=0;strokeColor=inherit;overflow=hidden;fillColor=none;top=0;left=0;bottom=0;right=0;pointerEvents=1;fontSize=16;rounded=1;" parent="akpooxGZIGGbHc-bxIAZ-119" vertex="1">
          <mxGeometry x="60" width="70" height="40" as="geometry">
            <mxRectangle width="70" height="40" as="alternateBounds" />
          </mxGeometry>
        </mxCell>
        <mxCell id="akpooxGZIGGbHc-bxIAZ-122" value="contagious" style="shape=partialRectangle;html=1;whiteSpace=wrap;connectable=0;strokeColor=inherit;overflow=hidden;fillColor=none;top=0;left=0;bottom=0;right=0;pointerEvents=1;fontSize=16;rounded=1;" parent="akpooxGZIGGbHc-bxIAZ-119" vertex="1">
          <mxGeometry x="130" width="90" height="40" as="geometry">
            <mxRectangle width="90" height="40" as="alternateBounds" />
          </mxGeometry>
        </mxCell>
        <mxCell id="akpooxGZIGGbHc-bxIAZ-123" value="OPERATION" style="text;html=1;align=center;verticalAlign=middle;resizable=0;points=[];autosize=1;strokeColor=none;fillColor=none;fontStyle=1;rounded=1;" parent="1" vertex="1">
          <mxGeometry x="-630.0000000000002" y="-395" width="90" height="30" as="geometry" />
        </mxCell>
        <mxCell id="akpooxGZIGGbHc-bxIAZ-124" value="" style="shape=table;startSize=0;container=1;collapsible=0;childLayout=tableLayout;fontSize=16;rounded=1;" parent="1" vertex="1">
          <mxGeometry x="-650.0000000000002" y="-370" width="130" height="40" as="geometry" />
        </mxCell>
        <mxCell id="akpooxGZIGGbHc-bxIAZ-125" value="" style="shape=tableRow;horizontal=0;startSize=0;swimlaneHead=0;swimlaneBody=0;strokeColor=inherit;top=0;left=0;bottom=0;right=0;collapsible=0;dropTarget=0;fillColor=none;points=[[0,0.5],[1,0.5]];portConstraint=eastwest;fontSize=16;rounded=1;" parent="akpooxGZIGGbHc-bxIAZ-124" vertex="1">
          <mxGeometry width="130" height="40" as="geometry" />
        </mxCell>
        <mxCell id="akpooxGZIGGbHc-bxIAZ-126" value="O_ID" style="shape=partialRectangle;html=1;whiteSpace=wrap;connectable=0;strokeColor=#82b366;overflow=hidden;fillColor=#d5e8d4;top=0;left=0;bottom=0;right=0;pointerEvents=1;fontSize=16;fontStyle=4;rounded=1;" parent="akpooxGZIGGbHc-bxIAZ-125" vertex="1">
          <mxGeometry width="60" height="40" as="geometry">
            <mxRectangle width="60" height="40" as="alternateBounds" />
          </mxGeometry>
        </mxCell>
        <mxCell id="akpooxGZIGGbHc-bxIAZ-127" value="name" style="shape=partialRectangle;html=1;whiteSpace=wrap;connectable=0;strokeColor=inherit;overflow=hidden;fillColor=none;top=0;left=0;bottom=0;right=0;pointerEvents=1;fontSize=16;rounded=1;" parent="akpooxGZIGGbHc-bxIAZ-125" vertex="1">
          <mxGeometry x="60" width="70" height="40" as="geometry">
            <mxRectangle width="70" height="40" as="alternateBounds" />
          </mxGeometry>
        </mxCell>
        <mxCell id="akpooxGZIGGbHc-bxIAZ-128" value="MEDICINE" style="text;html=1;align=center;verticalAlign=middle;resizable=0;points=[];autosize=1;strokeColor=none;fillColor=none;fontStyle=1;rounded=1;" parent="1" vertex="1">
          <mxGeometry x="-610.0000000000002" y="-275" width="80" height="30" as="geometry" />
        </mxCell>
        <mxCell id="akpooxGZIGGbHc-bxIAZ-129" value="" style="shape=table;startSize=0;container=1;collapsible=0;childLayout=tableLayout;fontSize=16;rounded=1;" parent="1" vertex="1">
          <mxGeometry x="-650.0000000000002" y="-255" width="200" height="40" as="geometry" />
        </mxCell>
        <mxCell id="akpooxGZIGGbHc-bxIAZ-130" value="" style="shape=tableRow;horizontal=0;startSize=0;swimlaneHead=0;swimlaneBody=0;strokeColor=inherit;top=0;left=0;bottom=0;right=0;collapsible=0;dropTarget=0;fillColor=none;points=[[0,0.5],[1,0.5]];portConstraint=eastwest;fontSize=16;rounded=1;" parent="akpooxGZIGGbHc-bxIAZ-129" vertex="1">
          <mxGeometry width="200" height="40" as="geometry" />
        </mxCell>
        <mxCell id="akpooxGZIGGbHc-bxIAZ-131" value="M_ID" style="shape=partialRectangle;html=1;whiteSpace=wrap;connectable=0;strokeColor=#82b366;overflow=hidden;fillColor=#d5e8d4;top=0;left=0;bottom=0;right=0;pointerEvents=1;fontSize=16;fontStyle=4;rounded=1;" parent="akpooxGZIGGbHc-bxIAZ-130" vertex="1">
          <mxGeometry width="60" height="40" as="geometry">
            <mxRectangle width="60" height="40" as="alternateBounds" />
          </mxGeometry>
        </mxCell>
        <mxCell id="akpooxGZIGGbHc-bxIAZ-132" value="name" style="shape=partialRectangle;html=1;whiteSpace=wrap;connectable=0;strokeColor=inherit;overflow=hidden;fillColor=none;top=0;left=0;bottom=0;right=0;pointerEvents=1;fontSize=16;rounded=1;" parent="akpooxGZIGGbHc-bxIAZ-130" vertex="1">
          <mxGeometry x="60" width="70" height="40" as="geometry">
            <mxRectangle width="70" height="40" as="alternateBounds" />
          </mxGeometry>
        </mxCell>
        <mxCell id="akpooxGZIGGbHc-bxIAZ-133" value="dosage" style="shape=partialRectangle;html=1;whiteSpace=wrap;connectable=0;strokeColor=inherit;overflow=hidden;fillColor=none;top=0;left=0;bottom=0;right=0;pointerEvents=1;fontSize=16;rounded=1;" parent="akpooxGZIGGbHc-bxIAZ-130" vertex="1">
          <mxGeometry x="130" width="70" height="40" as="geometry">
            <mxRectangle width="70" height="40" as="alternateBounds" />
          </mxGeometry>
        </mxCell>
        <mxCell id="akpooxGZIGGbHc-bxIAZ-150" value="Opertion_doctor" style="text;html=1;align=center;verticalAlign=middle;resizable=0;points=[];autosize=1;strokeColor=none;fillColor=none;fontColor=#1E35FF;rounded=1;" parent="1" vertex="1">
          <mxGeometry x="-950.0000000000002" y="-525" width="110" height="30" as="geometry" />
        </mxCell>
        <mxCell id="akpooxGZIGGbHc-bxIAZ-151" value="" style="shape=table;startSize=0;container=1;collapsible=0;childLayout=tableLayout;fontSize=16;rounded=1;" parent="1" vertex="1">
          <mxGeometry x="-960.0000000000002" y="-505" width="130" height="40" as="geometry" />
        </mxCell>
        <mxCell id="akpooxGZIGGbHc-bxIAZ-152" value="" style="shape=tableRow;horizontal=0;startSize=0;swimlaneHead=0;swimlaneBody=0;strokeColor=inherit;top=0;left=0;bottom=0;right=0;collapsible=0;dropTarget=0;fillColor=none;points=[[0,0.5],[1,0.5]];portConstraint=eastwest;fontSize=16;rounded=1;" parent="akpooxGZIGGbHc-bxIAZ-151" vertex="1">
          <mxGeometry width="130" height="40" as="geometry" />
        </mxCell>
        <mxCell id="akpooxGZIGGbHc-bxIAZ-153" value="Doc_ID" style="shape=partialRectangle;html=1;whiteSpace=wrap;connectable=0;strokeColor=inherit;overflow=hidden;fillColor=none;top=0;left=0;bottom=0;right=0;pointerEvents=1;fontSize=16;fontStyle=4;rounded=1;" parent="akpooxGZIGGbHc-bxIAZ-152" vertex="1">
          <mxGeometry width="60" height="40" as="geometry">
            <mxRectangle width="60" height="40" as="alternateBounds" />
          </mxGeometry>
        </mxCell>
        <mxCell id="akpooxGZIGGbHc-bxIAZ-154" value="O_ID" style="shape=partialRectangle;html=1;whiteSpace=wrap;connectable=0;strokeColor=inherit;overflow=hidden;fillColor=none;top=0;left=0;bottom=0;right=0;pointerEvents=1;fontSize=16;fontStyle=4;rounded=1;" parent="akpooxGZIGGbHc-bxIAZ-152" vertex="1">
          <mxGeometry x="60" width="70" height="40" as="geometry">
            <mxRectangle width="70" height="40" as="alternateBounds" />
          </mxGeometry>
        </mxCell>
        <mxCell id="akpooxGZIGGbHc-bxIAZ-155" value="Record_disease" style="text;html=1;align=center;verticalAlign=middle;resizable=0;points=[];autosize=1;strokeColor=none;fillColor=none;fontColor=#1E35FF;labelBackgroundColor=default;rounded=1;" parent="1" vertex="1">
          <mxGeometry x="-390" y="-505" width="110" height="30" as="geometry" />
        </mxCell>
        <mxCell id="akpooxGZIGGbHc-bxIAZ-156" value="" style="shape=table;startSize=0;container=1;collapsible=0;childLayout=tableLayout;fontSize=16;rounded=1;" parent="1" vertex="1">
          <mxGeometry x="-370" y="-485" width="120" height="40" as="geometry" />
        </mxCell>
        <mxCell id="akpooxGZIGGbHc-bxIAZ-157" value="" style="shape=tableRow;horizontal=0;startSize=0;swimlaneHead=0;swimlaneBody=0;strokeColor=inherit;top=0;left=0;bottom=0;right=0;collapsible=0;dropTarget=0;fillColor=none;points=[[0,0.5],[1,0.5]];portConstraint=eastwest;fontSize=16;rounded=1;" parent="akpooxGZIGGbHc-bxIAZ-156" vertex="1">
          <mxGeometry width="120" height="40" as="geometry" />
        </mxCell>
        <mxCell id="akpooxGZIGGbHc-bxIAZ-158" value="R_ID" style="shape=partialRectangle;html=1;whiteSpace=wrap;connectable=0;strokeColor=inherit;overflow=hidden;fillColor=none;top=0;left=0;bottom=0;right=0;pointerEvents=1;fontSize=16;fontStyle=4;rounded=1;" parent="akpooxGZIGGbHc-bxIAZ-157" vertex="1">
          <mxGeometry width="60" height="40" as="geometry">
            <mxRectangle width="60" height="40" as="alternateBounds" />
          </mxGeometry>
        </mxCell>
        <mxCell id="akpooxGZIGGbHc-bxIAZ-159" value="Dis_ID" style="shape=partialRectangle;html=1;whiteSpace=wrap;connectable=0;strokeColor=inherit;overflow=hidden;fillColor=none;top=0;left=0;bottom=0;right=0;pointerEvents=1;fontSize=16;fontStyle=4;rounded=1;" parent="akpooxGZIGGbHc-bxIAZ-157" vertex="1">
          <mxGeometry x="60" width="60" height="40" as="geometry">
            <mxRectangle width="60" height="40" as="alternateBounds" />
          </mxGeometry>
        </mxCell>
        <mxCell id="akpooxGZIGGbHc-bxIAZ-160" value="Record_medicine" style="text;html=1;align=center;verticalAlign=middle;resizable=0;points=[];autosize=1;strokeColor=none;fillColor=none;fontColor=#1E35FF;rounded=1;" parent="1" vertex="1">
          <mxGeometry x="-410.0000000000002" y="-275" width="120" height="30" as="geometry" />
        </mxCell>
        <mxCell id="akpooxGZIGGbHc-bxIAZ-161" value="" style="shape=table;startSize=0;container=1;collapsible=0;childLayout=tableLayout;fontSize=16;rounded=1;" parent="1" vertex="1">
          <mxGeometry x="-410.0000000000002" y="-255" width="120" height="40" as="geometry" />
        </mxCell>
        <mxCell id="akpooxGZIGGbHc-bxIAZ-162" value="" style="shape=tableRow;horizontal=0;startSize=0;swimlaneHead=0;swimlaneBody=0;strokeColor=inherit;top=0;left=0;bottom=0;right=0;collapsible=0;dropTarget=0;fillColor=none;points=[[0,0.5],[1,0.5]];portConstraint=eastwest;fontSize=16;rounded=1;" parent="akpooxGZIGGbHc-bxIAZ-161" vertex="1">
          <mxGeometry width="120" height="40" as="geometry" />
        </mxCell>
        <mxCell id="akpooxGZIGGbHc-bxIAZ-163" value="R_ID" style="shape=partialRectangle;html=1;whiteSpace=wrap;connectable=0;strokeColor=inherit;overflow=hidden;fillColor=none;top=0;left=0;bottom=0;right=0;pointerEvents=1;fontSize=16;fontStyle=4;rounded=1;" parent="akpooxGZIGGbHc-bxIAZ-162" vertex="1">
          <mxGeometry width="60" height="40" as="geometry">
            <mxRectangle width="60" height="40" as="alternateBounds" />
          </mxGeometry>
        </mxCell>
        <mxCell id="akpooxGZIGGbHc-bxIAZ-164" value="M_ID" style="shape=partialRectangle;html=1;whiteSpace=wrap;connectable=0;strokeColor=inherit;overflow=hidden;fillColor=none;top=0;left=0;bottom=0;right=0;pointerEvents=1;fontSize=16;fontStyle=4;rounded=1;" parent="akpooxGZIGGbHc-bxIAZ-162" vertex="1">
          <mxGeometry x="60" width="60" height="40" as="geometry">
            <mxRectangle width="60" height="40" as="alternateBounds" />
          </mxGeometry>
        </mxCell>
        <mxCell id="akpooxGZIGGbHc-bxIAZ-165" value="disease_medicine" style="text;html=1;align=center;verticalAlign=middle;resizable=0;points=[];autosize=1;strokeColor=none;fillColor=none;fontColor=#1E35FF;rounded=1;" parent="1" vertex="1">
          <mxGeometry x="-830.0000000000002" y="-320" width="120" height="30" as="geometry" />
        </mxCell>
        <mxCell id="akpooxGZIGGbHc-bxIAZ-166" value="" style="shape=table;startSize=0;container=1;collapsible=0;childLayout=tableLayout;fontSize=16;rounded=1;" parent="1" vertex="1">
          <mxGeometry x="-830.0000000000002" y="-300" width="120" height="40" as="geometry" />
        </mxCell>
        <mxCell id="akpooxGZIGGbHc-bxIAZ-167" value="" style="shape=tableRow;horizontal=0;startSize=0;swimlaneHead=0;swimlaneBody=0;strokeColor=inherit;top=0;left=0;bottom=0;right=0;collapsible=0;dropTarget=0;fillColor=none;points=[[0,0.5],[1,0.5]];portConstraint=eastwest;fontSize=16;rounded=1;" parent="akpooxGZIGGbHc-bxIAZ-166" vertex="1">
          <mxGeometry width="120" height="40" as="geometry" />
        </mxCell>
        <mxCell id="akpooxGZIGGbHc-bxIAZ-168" value="DIS_ID" style="shape=partialRectangle;html=1;whiteSpace=wrap;connectable=0;strokeColor=inherit;overflow=hidden;fillColor=none;top=0;left=0;bottom=0;right=0;pointerEvents=1;fontSize=16;fontStyle=4;rounded=1;" parent="akpooxGZIGGbHc-bxIAZ-167" vertex="1">
          <mxGeometry width="60" height="40" as="geometry">
            <mxRectangle width="60" height="40" as="alternateBounds" />
          </mxGeometry>
        </mxCell>
        <mxCell id="akpooxGZIGGbHc-bxIAZ-169" value="M_ID" style="shape=partialRectangle;html=1;whiteSpace=wrap;connectable=0;strokeColor=inherit;overflow=hidden;fillColor=none;top=0;left=0;bottom=0;right=0;pointerEvents=1;fontSize=16;fontStyle=4;rounded=1;" parent="akpooxGZIGGbHc-bxIAZ-167" vertex="1">
          <mxGeometry x="60" width="60" height="40" as="geometry">
            <mxRectangle width="60" height="40" as="alternateBounds" />
          </mxGeometry>
        </mxCell>
        <mxCell id="akpooxGZIGGbHc-bxIAZ-190" style="edgeStyle=orthogonalEdgeStyle;rounded=1;orthogonalLoop=1;jettySize=auto;html=1;exitX=0;exitY=0.5;exitDx=0;exitDy=0;fillColor=#008a00;strokeColor=#005700;entryX=-0.001;entryY=0.889;entryDx=0;entryDy=0;entryPerimeter=0;" parent="1" source="akpooxGZIGGbHc-bxIAZ-95" target="akpooxGZIGGbHc-bxIAZ-68" edge="1">
          <mxGeometry relative="1" as="geometry">
            <Array as="points">
              <mxPoint x="-1525" y="-495" />
              <mxPoint x="-1525" y="-539" />
            </Array>
            <mxPoint x="-1535" y="-550" as="targetPoint" />
          </mxGeometry>
        </mxCell>
        <mxCell id="akpooxGZIGGbHc-bxIAZ-192" style="edgeStyle=orthogonalEdgeStyle;rounded=1;orthogonalLoop=1;jettySize=auto;html=1;fillColor=#008a00;strokeColor=#005700;entryX=0;entryY=1.049;entryDx=0;entryDy=0;entryPerimeter=0;exitX=0.077;exitY=0;exitDx=0;exitDy=0;exitPerimeter=0;" parent="1" source="akpooxGZIGGbHc-bxIAZ-100" target="akpooxGZIGGbHc-bxIAZ-86" edge="1">
          <mxGeometry relative="1" as="geometry">
            <mxPoint x="-1495" y="-370" as="targetPoint" />
            <Array as="points">
              <mxPoint x="-1495" y="-360" />
            </Array>
            <mxPoint x="-1505" y="-300" as="sourcePoint" />
          </mxGeometry>
        </mxCell>
        <mxCell id="akpooxGZIGGbHc-bxIAZ-198" value="" style="shape=table;startSize=0;container=1;collapsible=0;childLayout=tableLayout;fontSize=16;rounded=1;" parent="1" vertex="1">
          <mxGeometry x="-920.0000000000001" y="-215" width="240" height="40" as="geometry" />
        </mxCell>
        <mxCell id="akpooxGZIGGbHc-bxIAZ-199" value="" style="shape=tableRow;horizontal=0;startSize=0;swimlaneHead=0;swimlaneBody=0;strokeColor=inherit;top=0;left=0;bottom=0;right=0;collapsible=0;dropTarget=0;fillColor=none;points=[[0,0.5],[1,0.5]];portConstraint=eastwest;fontSize=16;rounded=1;" parent="akpooxGZIGGbHc-bxIAZ-198" vertex="1">
          <mxGeometry width="240" height="40" as="geometry" />
        </mxCell>
        <mxCell id="akpooxGZIGGbHc-bxIAZ-200" value="Sec_ID" style="shape=partialRectangle;html=1;whiteSpace=wrap;connectable=0;strokeColor=inherit;overflow=hidden;fillColor=none;top=0;left=0;bottom=0;right=0;pointerEvents=1;fontSize=16;fontStyle=4;rounded=1;" parent="akpooxGZIGGbHc-bxIAZ-199" vertex="1">
          <mxGeometry width="75" height="40" as="geometry">
            <mxRectangle width="75" height="40" as="alternateBounds" />
          </mxGeometry>
        </mxCell>
        <mxCell id="akpooxGZIGGbHc-bxIAZ-201" value="O_ID" style="shape=partialRectangle;html=1;whiteSpace=wrap;connectable=0;strokeColor=inherit;overflow=hidden;fillColor=none;top=0;left=0;bottom=0;right=0;pointerEvents=1;fontSize=16;fontStyle=4;rounded=1;" parent="akpooxGZIGGbHc-bxIAZ-199" vertex="1">
          <mxGeometry x="75" width="55" height="40" as="geometry">
            <mxRectangle width="55" height="40" as="alternateBounds" />
          </mxGeometry>
        </mxCell>
        <mxCell id="akpooxGZIGGbHc-bxIAZ-202" value="date" style="shape=partialRectangle;html=1;whiteSpace=wrap;connectable=0;strokeColor=inherit;overflow=hidden;fillColor=none;top=0;left=0;bottom=0;right=0;pointerEvents=1;fontSize=16;fontStyle=0;rounded=1;" parent="akpooxGZIGGbHc-bxIAZ-199" vertex="1">
          <mxGeometry x="130" width="55" height="40" as="geometry">
            <mxRectangle width="55" height="40" as="alternateBounds" />
          </mxGeometry>
        </mxCell>
        <mxCell id="UPxDV5l_0RWj-nJhWU-a-2" value="room" style="shape=partialRectangle;html=1;whiteSpace=wrap;connectable=0;strokeColor=inherit;overflow=hidden;fillColor=none;top=0;left=0;bottom=0;right=0;pointerEvents=1;fontSize=16;fontStyle=0;rounded=1;" parent="akpooxGZIGGbHc-bxIAZ-199" vertex="1">
          <mxGeometry x="185" width="55" height="40" as="geometry">
            <mxRectangle width="55" height="40" as="alternateBounds" />
          </mxGeometry>
        </mxCell>
        <mxCell id="akpooxGZIGGbHc-bxIAZ-203" value="Section_Operation" style="text;html=1;align=center;verticalAlign=middle;resizable=0;points=[];autosize=1;strokeColor=none;fillColor=none;fontColor=#1E35FF;rounded=1;" parent="1" vertex="1">
          <mxGeometry x="-920.2500000000001" y="-235" width="120" height="30" as="geometry" />
        </mxCell>
        <mxCell id="akpooxGZIGGbHc-bxIAZ-206" style="edgeStyle=orthogonalEdgeStyle;rounded=1;orthogonalLoop=1;jettySize=auto;html=1;exitX=0;exitY=0.5;exitDx=0;exitDy=0;fillColor=#008a00;strokeColor=#005700;" parent="1" source="akpooxGZIGGbHc-bxIAZ-107" edge="1">
          <mxGeometry relative="1" as="geometry">
            <mxPoint x="-170" y="-325" as="targetPoint" />
            <Array as="points">
              <mxPoint x="-220" y="-275" />
              <mxPoint x="-220" y="-310" />
              <mxPoint x="-170" y="-310" />
            </Array>
          </mxGeometry>
        </mxCell>
        <mxCell id="akpooxGZIGGbHc-bxIAZ-216" value="Medicine_sideEffect" style="text;html=1;align=center;verticalAlign=middle;resizable=0;points=[];autosize=1;strokeColor=none;fillColor=none;fontColor=light-dark(#000000,#009900);rounded=1;" parent="1" vertex="1">
          <mxGeometry x="-655.0000000000002" y="-205" width="130" height="30" as="geometry" />
        </mxCell>
        <mxCell id="akpooxGZIGGbHc-bxIAZ-217" value="" style="shape=table;startSize=0;container=1;collapsible=0;childLayout=tableLayout;fontSize=16;rounded=1;" parent="1" vertex="1">
          <mxGeometry x="-650.0000000000002" y="-185" width="140" height="40" as="geometry" />
        </mxCell>
        <mxCell id="akpooxGZIGGbHc-bxIAZ-218" value="" style="shape=tableRow;horizontal=0;startSize=0;swimlaneHead=0;swimlaneBody=0;strokeColor=inherit;top=0;left=0;bottom=0;right=0;collapsible=0;dropTarget=0;fillColor=none;points=[[0,0.5],[1,0.5]];portConstraint=eastwest;fontSize=16;rounded=1;" parent="akpooxGZIGGbHc-bxIAZ-217" vertex="1">
          <mxGeometry width="140" height="40" as="geometry" />
        </mxCell>
        <mxCell id="akpooxGZIGGbHc-bxIAZ-219" value="M_ID" style="shape=partialRectangle;html=1;whiteSpace=wrap;connectable=0;strokeColor=inherit;overflow=hidden;fillColor=none;top=0;left=0;bottom=0;right=0;pointerEvents=1;fontSize=16;fontStyle=4;rounded=1;" parent="akpooxGZIGGbHc-bxIAZ-218" vertex="1">
          <mxGeometry width="60" height="40" as="geometry">
            <mxRectangle width="60" height="40" as="alternateBounds" />
          </mxGeometry>
        </mxCell>
        <mxCell id="akpooxGZIGGbHc-bxIAZ-220" value="sideeffect" style="shape=partialRectangle;html=1;whiteSpace=wrap;connectable=0;strokeColor=inherit;overflow=hidden;fillColor=none;top=0;left=0;bottom=0;right=0;pointerEvents=1;fontSize=16;fontStyle=0;rounded=1;" parent="akpooxGZIGGbHc-bxIAZ-218" vertex="1">
          <mxGeometry x="60" width="80" height="40" as="geometry">
            <mxRectangle width="80" height="40" as="alternateBounds" />
          </mxGeometry>
        </mxCell>
        <mxCell id="akpooxGZIGGbHc-bxIAZ-221" style="edgeStyle=orthogonalEdgeStyle;rounded=1;orthogonalLoop=1;jettySize=auto;html=1;exitX=0;exitY=0.5;exitDx=0;exitDy=0;entryX=0;entryY=0.755;entryDx=0;entryDy=0;entryPerimeter=0;fillColor=#008a00;strokeColor=#005700;" parent="1" source="akpooxGZIGGbHc-bxIAZ-218" target="akpooxGZIGGbHc-bxIAZ-130" edge="1">
          <mxGeometry relative="1" as="geometry">
            <Array as="points">
              <mxPoint x="-660" y="-165" />
              <mxPoint x="-660" y="-225" />
            </Array>
          </mxGeometry>
        </mxCell>
        <mxCell id="akpooxGZIGGbHc-bxIAZ-223" value="Record_Opertion" style="text;html=1;align=center;verticalAlign=middle;resizable=0;points=[];autosize=1;strokeColor=none;fillColor=none;fontColor=#1E35FF;rounded=1;" parent="1" vertex="1">
          <mxGeometry x="-445.0000000000002" y="-390" width="110" height="30" as="geometry" />
        </mxCell>
        <mxCell id="LqfJhidOHouMK1FL3JT--39" style="edgeStyle=orthogonalEdgeStyle;rounded=0;orthogonalLoop=1;jettySize=auto;html=1;exitX=1;exitY=0.5;exitDx=0;exitDy=0;entryX=-0.015;entryY=0.275;entryDx=0;entryDy=0;entryPerimeter=0;fillColor=#1ba1e2;strokeColor=#006EAF;" parent="1" source="akpooxGZIGGbHc-bxIAZ-224" target="akpooxGZIGGbHc-bxIAZ-125" edge="1">
          <mxGeometry relative="1" as="geometry">
            <mxPoint x="-660" y="-355" as="targetPoint" />
            <Array as="points">
              <mxPoint x="-260" y="-350" />
              <mxPoint x="-260" y="-390" />
              <mxPoint x="-660" y="-390" />
              <mxPoint x="-660" y="-359" />
            </Array>
          </mxGeometry>
        </mxCell>
        <mxCell id="akpooxGZIGGbHc-bxIAZ-224" value="" style="shape=table;startSize=0;container=1;collapsible=0;childLayout=tableLayout;fontSize=16;rounded=1;" parent="1" vertex="1">
          <mxGeometry x="-450.0000000000002" y="-370" width="120" height="40" as="geometry" />
        </mxCell>
        <mxCell id="akpooxGZIGGbHc-bxIAZ-225" value="" style="shape=tableRow;horizontal=0;startSize=0;swimlaneHead=0;swimlaneBody=0;strokeColor=inherit;top=0;left=0;bottom=0;right=0;collapsible=0;dropTarget=0;fillColor=none;points=[[0,0.5],[1,0.5]];portConstraint=eastwest;fontSize=16;rounded=1;" parent="akpooxGZIGGbHc-bxIAZ-224" vertex="1">
          <mxGeometry width="120" height="40" as="geometry" />
        </mxCell>
        <mxCell id="akpooxGZIGGbHc-bxIAZ-226" value="R_ID" style="shape=partialRectangle;html=1;whiteSpace=wrap;connectable=0;strokeColor=inherit;overflow=hidden;fillColor=none;top=0;left=0;bottom=0;right=0;pointerEvents=1;fontSize=16;fontStyle=4;rounded=1;" parent="akpooxGZIGGbHc-bxIAZ-225" vertex="1">
          <mxGeometry width="60" height="40" as="geometry">
            <mxRectangle width="60" height="40" as="alternateBounds" />
          </mxGeometry>
        </mxCell>
        <mxCell id="akpooxGZIGGbHc-bxIAZ-227" value="O_ID" style="shape=partialRectangle;html=1;whiteSpace=wrap;connectable=0;strokeColor=inherit;overflow=hidden;fillColor=none;top=0;left=0;bottom=0;right=0;pointerEvents=1;fontSize=16;fontStyle=0;rounded=1;" parent="akpooxGZIGGbHc-bxIAZ-225" vertex="1">
          <mxGeometry x="60" width="60" height="40" as="geometry">
            <mxRectangle width="60" height="40" as="alternateBounds" />
          </mxGeometry>
        </mxCell>
        <mxCell id="LqfJhidOHouMK1FL3JT--23" value="DEPARTMENT" style="text;html=1;align=center;verticalAlign=middle;resizable=0;points=[];autosize=1;strokeColor=none;fillColor=none;fontStyle=1;rounded=1;" parent="1" vertex="1">
          <mxGeometry x="-1460" y="-595" width="110" height="30" as="geometry" />
        </mxCell>
        <mxCell id="LqfJhidOHouMK1FL3JT--26" style="edgeStyle=orthogonalEdgeStyle;rounded=1;orthogonalLoop=1;jettySize=auto;html=1;fillColor=#fff2cc;strokeColor=#d6b656;entryX=-0.001;entryY=0.771;entryDx=0;entryDy=0;exitX=0.017;exitY=-0.019;exitDx=0;exitDy=0;exitPerimeter=0;entryPerimeter=0;" parent="1" source="akpooxGZIGGbHc-bxIAZ-14" target="akpooxGZIGGbHc-bxIAZ-2" edge="1">
          <mxGeometry relative="1" as="geometry">
            <Array as="points">
              <mxPoint x="-954" y="-846" />
              <mxPoint x="-954" y="-910" />
              <mxPoint x="-1590" y="-910" />
              <mxPoint x="-1590" y="-836" />
            </Array>
            <mxPoint x="-890" y="-855" as="sourcePoint" />
            <mxPoint x="-1590" y="-865" as="targetPoint" />
          </mxGeometry>
        </mxCell>
        <mxCell id="LqfJhidOHouMK1FL3JT--27" style="edgeStyle=orthogonalEdgeStyle;rounded=1;orthogonalLoop=1;jettySize=auto;html=1;fillColor=#fff2cc;strokeColor=#d6b656;entryX=0;entryY=0.576;entryDx=0;entryDy=0;entryPerimeter=0;exitX=0.003;exitY=0.298;exitDx=0;exitDy=0;exitPerimeter=0;" parent="1" source="akpooxGZIGGbHc-bxIAZ-26" target="akpooxGZIGGbHc-bxIAZ-2" edge="1">
          <mxGeometry relative="1" as="geometry">
            <Array as="points">
              <mxPoint x="-1000" y="-743" />
              <mxPoint x="-1000" y="-900" />
              <mxPoint x="-1580" y="-900" />
              <mxPoint x="-1580" y="-846" />
            </Array>
            <mxPoint x="-1000" y="-725" as="sourcePoint" />
            <mxPoint x="-1578.03" y="-845" as="targetPoint" />
          </mxGeometry>
        </mxCell>
        <mxCell id="LqfJhidOHouMK1FL3JT--29" style="edgeStyle=orthogonalEdgeStyle;rounded=1;orthogonalLoop=1;jettySize=auto;html=1;exitX=-0.005;exitY=0.752;exitDx=0;exitDy=0;exitPerimeter=0;entryX=0;entryY=1;entryDx=0;entryDy=0;fillColor=#1ba1e2;strokeColor=#006EAF;" parent="1" source="akpooxGZIGGbHc-bxIAZ-152" target="akpooxGZIGGbHc-bxIAZ-13" edge="1">
          <mxGeometry relative="1" as="geometry">
            <Array as="points">
              <mxPoint x="-980" y="-475" />
              <mxPoint x="-980" y="-794" />
            </Array>
            <mxPoint x="-172" y="-355" as="sourcePoint" />
            <mxPoint x="-980" y="-675" as="targetPoint" />
          </mxGeometry>
        </mxCell>
        <mxCell id="LqfJhidOHouMK1FL3JT--30" value="" style="edgeStyle=orthogonalEdgeStyle;rounded=1;orthogonalLoop=1;jettySize=auto;html=1;entryX=0;entryY=0.5;entryDx=0;entryDy=0;exitX=0.7;exitY=1.038;exitDx=0;exitDy=0;exitPerimeter=0;fillColor=#1ba1e2;strokeColor=#006EAF;" parent="1" source="akpooxGZIGGbHc-bxIAZ-152" target="akpooxGZIGGbHc-bxIAZ-125" edge="1">
          <mxGeometry relative="1" as="geometry">
            <Array as="points">
              <mxPoint x="-868" y="-463" />
              <mxPoint x="-868" y="-455" />
              <mxPoint x="-670" y="-455" />
              <mxPoint x="-670" y="-350" />
            </Array>
            <mxPoint x="-870" y="-395" as="sourcePoint" />
            <mxPoint x="-670" y="-345" as="targetPoint" />
          </mxGeometry>
        </mxCell>
        <mxCell id="LqfJhidOHouMK1FL3JT--31" style="edgeStyle=orthogonalEdgeStyle;rounded=0;orthogonalLoop=1;jettySize=auto;html=1;exitX=0;exitY=0.5;exitDx=0;exitDy=0;entryX=0;entryY=0.5;entryDx=0;entryDy=0;fillColor=#1ba1e2;strokeColor=#006EAF;" parent="1" source="akpooxGZIGGbHc-bxIAZ-167" target="akpooxGZIGGbHc-bxIAZ-119" edge="1">
          <mxGeometry relative="1" as="geometry">
            <Array as="points">
              <mxPoint x="-840" y="-280" />
              <mxPoint x="-840" y="-315" />
              <mxPoint x="-680" y="-315" />
              <mxPoint x="-680" y="-465" />
            </Array>
          </mxGeometry>
        </mxCell>
        <mxCell id="LqfJhidOHouMK1FL3JT--32" style="edgeStyle=orthogonalEdgeStyle;rounded=0;orthogonalLoop=1;jettySize=auto;html=1;fillColor=#1ba1e2;strokeColor=#006EAF;exitX=1.003;exitY=0.113;exitDx=0;exitDy=0;exitPerimeter=0;entryX=0.2;entryY=-0.016;entryDx=0;entryDy=0;entryPerimeter=0;" parent="1" source="akpooxGZIGGbHc-bxIAZ-166" target="akpooxGZIGGbHc-bxIAZ-130" edge="1">
          <mxGeometry relative="1" as="geometry">
            <mxPoint x="-700" y="-295" as="sourcePoint" />
            <mxPoint x="-610" y="-265" as="targetPoint" />
            <Array as="points">
              <mxPoint x="-700" y="-295" />
              <mxPoint x="-700" y="-275" />
              <mxPoint x="-610" y="-275" />
            </Array>
          </mxGeometry>
        </mxCell>
        <mxCell id="LqfJhidOHouMK1FL3JT--33" style="edgeStyle=orthogonalEdgeStyle;rounded=0;orthogonalLoop=1;jettySize=auto;html=1;fillColor=#1ba1e2;strokeColor=#006EAF;exitX=0.712;exitY=1.013;exitDx=0;exitDy=0;exitPerimeter=0;entryX=0.106;entryY=1.002;entryDx=0;entryDy=0;entryPerimeter=0;" parent="1" source="akpooxGZIGGbHc-bxIAZ-162" target="akpooxGZIGGbHc-bxIAZ-130" edge="1">
          <mxGeometry relative="1" as="geometry">
            <mxPoint x="-420" y="-195" as="sourcePoint" />
            <mxPoint x="-320" y="-156" as="targetPoint" />
            <Array as="points">
              <mxPoint x="-325" y="-205" />
              <mxPoint x="-629" y="-205" />
            </Array>
          </mxGeometry>
        </mxCell>
        <mxCell id="LqfJhidOHouMK1FL3JT--37" style="edgeStyle=orthogonalEdgeStyle;rounded=0;orthogonalLoop=1;jettySize=auto;html=1;exitX=0;exitY=0.5;exitDx=0;exitDy=0;entryX=0;entryY=0.5;entryDx=0;entryDy=0;fillColor=#1ba1e2;strokeColor=#006EAF;" parent="1" source="akpooxGZIGGbHc-bxIAZ-225" target="akpooxGZIGGbHc-bxIAZ-113" edge="1">
          <mxGeometry relative="1" as="geometry">
            <Array as="points">
              <mxPoint x="-460" y="-350" />
              <mxPoint x="-460" y="-325" />
              <mxPoint x="-240" y="-325" />
              <mxPoint x="-240" y="-345" />
            </Array>
          </mxGeometry>
        </mxCell>
        <mxCell id="LqfJhidOHouMK1FL3JT--38" style="edgeStyle=orthogonalEdgeStyle;rounded=0;orthogonalLoop=1;jettySize=auto;html=1;exitX=0;exitY=0.5;exitDx=0;exitDy=0;entryX=0.104;entryY=-0.008;entryDx=0;entryDy=0;entryPerimeter=0;fillColor=#1ba1e2;strokeColor=#006EAF;" parent="1" source="akpooxGZIGGbHc-bxIAZ-157" target="akpooxGZIGGbHc-bxIAZ-113" edge="1">
          <mxGeometry relative="1" as="geometry">
            <Array as="points">
              <mxPoint x="-380" y="-465" />
              <mxPoint x="-380" y="-435" />
              <mxPoint x="-188" y="-435" />
            </Array>
          </mxGeometry>
        </mxCell>
        <mxCell id="LqfJhidOHouMK1FL3JT--40" style="edgeStyle=orthogonalEdgeStyle;rounded=0;orthogonalLoop=1;jettySize=auto;html=1;entryX=0.229;entryY=-0.016;entryDx=0;entryDy=0;entryPerimeter=0;fillColor=#1ba1e2;strokeColor=#006EAF;exitX=0.71;exitY=0.011;exitDx=0;exitDy=0;exitPerimeter=0;" parent="1" source="akpooxGZIGGbHc-bxIAZ-156" target="akpooxGZIGGbHc-bxIAZ-119" edge="1">
          <mxGeometry relative="1" as="geometry">
            <mxPoint x="-715" y="-595" as="targetPoint" />
            <mxPoint x="-250" y="-500" as="sourcePoint" />
            <Array as="points">
              <mxPoint x="-285" y="-500" />
              <mxPoint x="-600" y="-500" />
            </Array>
          </mxGeometry>
        </mxCell>
        <mxCell id="LqfJhidOHouMK1FL3JT--42" style="edgeStyle=orthogonalEdgeStyle;rounded=0;orthogonalLoop=1;jettySize=auto;html=1;exitX=0;exitY=0.5;exitDx=0;exitDy=0;entryX=-0.002;entryY=0.761;entryDx=0;entryDy=0;entryPerimeter=0;fillColor=#1ba1e2;strokeColor=#006EAF;" parent="1" source="akpooxGZIGGbHc-bxIAZ-162" target="akpooxGZIGGbHc-bxIAZ-113" edge="1">
          <mxGeometry relative="1" as="geometry">
            <mxPoint x="-220" y="-335" as="targetPoint" />
            <Array as="points">
              <mxPoint x="-420" y="-235" />
              <mxPoint x="-420" y="-265" />
              <mxPoint x="-230" y="-265" />
              <mxPoint x="-230" y="-335" />
            </Array>
          </mxGeometry>
        </mxCell>
        <mxCell id="LqfJhidOHouMK1FL3JT--43" style="edgeStyle=orthogonalEdgeStyle;rounded=1;orthogonalLoop=1;jettySize=auto;html=1;exitX=0.795;exitY=-0.01;exitDx=0;exitDy=0;exitPerimeter=0;entryX=0;entryY=0.596;entryDx=0;entryDy=0;entryPerimeter=0;" parent="1" source="akpooxGZIGGbHc-bxIAZ-68" target="akpooxGZIGGbHc-bxIAZ-14" edge="1">
          <mxGeometry relative="1" as="geometry">
            <Array as="points">
              <mxPoint x="-1173" y="-585" />
              <mxPoint x="-990" y="-585" />
              <mxPoint x="-990" y="-815" />
            </Array>
            <mxPoint x="-1501" y="-654" as="sourcePoint" />
            <mxPoint x="-980" y="-815" as="targetPoint" />
          </mxGeometry>
        </mxCell>
        <mxCell id="LqfJhidOHouMK1FL3JT--44" style="edgeStyle=orthogonalEdgeStyle;rounded=1;orthogonalLoop=1;jettySize=auto;html=1;entryX=0;entryY=0.5;entryDx=0;entryDy=0;exitX=0.707;exitY=1.004;exitDx=0;exitDy=0;exitPerimeter=0;" parent="1" source="akpooxGZIGGbHc-bxIAZ-13" target="akpooxGZIGGbHc-bxIAZ-68" edge="1">
          <mxGeometry relative="1" as="geometry">
            <Array as="points">
              <mxPoint x="-350" y="-775" />
              <mxPoint x="-610" y="-775" />
              <mxPoint x="-610" y="-595" />
              <mxPoint x="-1541" y="-595" />
              <mxPoint x="-1541" y="-555" />
            </Array>
            <mxPoint x="-350" y="-795" as="sourcePoint" />
            <mxPoint x="-1541.3333333333333" y="-595" as="targetPoint" />
          </mxGeometry>
        </mxCell>
        <mxCell id="LqfJhidOHouMK1FL3JT--45" style="edgeStyle=orthogonalEdgeStyle;rounded=0;orthogonalLoop=1;jettySize=auto;html=1;entryX=0.002;entryY=0.2;entryDx=0;entryDy=0;exitX=0.241;exitY=-0.011;exitDx=0;exitDy=0;exitPerimeter=0;entryPerimeter=0;" parent="1" source="akpooxGZIGGbHc-bxIAZ-86" target="akpooxGZIGGbHc-bxIAZ-68" edge="1">
          <mxGeometry relative="1" as="geometry">
            <mxPoint x="-1380" y="-435" as="sourcePoint" />
            <mxPoint x="-1524.72" y="-567.48" as="targetPoint" />
            <Array as="points">
              <mxPoint x="-1380" y="-420" />
              <mxPoint x="-1380" y="-425" />
              <mxPoint x="-1530" y="-425" />
              <mxPoint x="-1530" y="-567" />
            </Array>
          </mxGeometry>
        </mxCell>
        <mxCell id="LqfJhidOHouMK1FL3JT--46" style="edgeStyle=orthogonalEdgeStyle;rounded=0;orthogonalLoop=1;jettySize=auto;html=1;fillColor=#1ba1e2;strokeColor=#006EAF;entryX=-0.006;entryY=0.883;entryDx=0;entryDy=0;entryPerimeter=0;" parent="1" target="akpooxGZIGGbHc-bxIAZ-125" edge="1">
          <mxGeometry relative="1" as="geometry">
            <mxPoint x="-810" y="-215" as="sourcePoint" />
            <mxPoint x="-653" y="-335" as="targetPoint" />
            <Array as="points">
              <mxPoint x="-810" y="-215" />
              <mxPoint x="-810" y="-255" />
              <mxPoint x="-700" y="-255" />
              <mxPoint x="-700" y="-265" />
              <mxPoint x="-660" y="-265" />
              <mxPoint x="-660" y="-335" />
            </Array>
          </mxGeometry>
        </mxCell>
        <mxCell id="LqfJhidOHouMK1FL3JT--47" style="edgeStyle=orthogonalEdgeStyle;rounded=0;orthogonalLoop=1;jettySize=auto;html=1;fillColor=#1ba1e2;strokeColor=#006EAF;entryX=0;entryY=0.5;entryDx=0;entryDy=0;exitX=0;exitY=0.5;exitDx=0;exitDy=0;" parent="1" source="akpooxGZIGGbHc-bxIAZ-199" target="akpooxGZIGGbHc-bxIAZ-86" edge="1">
          <mxGeometry relative="1" as="geometry">
            <mxPoint x="-930" y="-75" as="sourcePoint" />
            <mxPoint x="-1510" y="-405" as="targetPoint" />
            <Array as="points">
              <mxPoint x="-930" y="-195" />
              <mxPoint x="-930" y="-370" />
              <mxPoint x="-1350" y="-370" />
              <mxPoint x="-1350" y="-315" />
              <mxPoint x="-1510" y="-315" />
              <mxPoint x="-1510" y="-400" />
            </Array>
          </mxGeometry>
        </mxCell>
        <mxCell id="LqfJhidOHouMK1FL3JT--49" style="edgeStyle=orthogonalEdgeStyle;rounded=1;orthogonalLoop=1;jettySize=auto;html=1;entryX=-0.002;entryY=0.204;entryDx=0;entryDy=0;entryPerimeter=0;exitX=0.482;exitY=0.99;exitDx=0;exitDy=0;exitPerimeter=0;" parent="1" source="akpooxGZIGGbHc-bxIAZ-26" target="akpooxGZIGGbHc-bxIAZ-86" edge="1">
          <mxGeometry relative="1" as="geometry">
            <Array as="points">
              <mxPoint x="-800" y="-715" />
              <mxPoint x="-800" y="-705" />
              <mxPoint x="-1000" y="-705" />
              <mxPoint x="-1000" y="-445" />
              <mxPoint x="-1510" y="-445" />
              <mxPoint x="-1510" y="-412" />
            </Array>
            <mxPoint x="-800" y="-695" as="sourcePoint" />
            <mxPoint x="-1550" y="-405" as="targetPoint" />
          </mxGeometry>
        </mxCell>
        <mxCell id="_Sf3S8QxjTHlnE-0kfGf-2" style="edgeStyle=orthogonalEdgeStyle;rounded=0;orthogonalLoop=1;jettySize=auto;html=1;exitX=0.209;exitY=-0.033;exitDx=0;exitDy=0;exitPerimeter=0;entryX=0;entryY=0.196;entryDx=0;entryDy=0;entryPerimeter=0;" parent="1" source="akpooxGZIGGbHc-bxIAZ-77" target="akpooxGZIGGbHc-bxIAZ-14" edge="1">
          <mxGeometry relative="1" as="geometry">
            <mxPoint x="-990" y="-835" as="targetPoint" />
            <mxPoint x="-905" y="-665" as="sourcePoint" />
            <Array as="points">
              <mxPoint x="-904" y="-665" />
              <mxPoint x="-1020" y="-665" />
              <mxPoint x="-1020" y="-745" />
              <mxPoint x="-1010" y="-745" />
              <mxPoint x="-1010" y="-815" />
              <mxPoint x="-990" y="-815" />
              <mxPoint x="-990" y="-835" />
            </Array>
          </mxGeometry>
        </mxCell>
        <mxCell id="3RdtiRJB8iyd1vuyozQL-6" style="edgeStyle=orthogonalEdgeStyle;rounded=0;orthogonalLoop=1;jettySize=auto;html=1;exitX=0.762;exitY=-0.05;exitDx=0;exitDy=0;fillColor=#1ba1e2;strokeColor=#006EAF;exitPerimeter=0;" parent="1" source="akpooxGZIGGbHc-bxIAZ-113" target="akpooxGZIGGbHc-bxIAZ-26" edge="1">
          <mxGeometry relative="1" as="geometry">
            <Array as="points">
              <mxPoint x="-50" y="-390" />
              <mxPoint x="-180" y="-390" />
              <mxPoint x="-180" y="-510" />
              <mxPoint x="-590" y="-510" />
              <mxPoint x="-590" y="-675" />
              <mxPoint x="-944" y="-675" />
            </Array>
            <mxPoint x="-580" y="-625" as="sourcePoint" />
          </mxGeometry>
        </mxCell>
        <mxCell id="ofJiYnRCKUUAzt0YC0oz-1" value="Relational schema for&lt;div&gt;Hospital system&lt;/div&gt;" style="text;html=1;align=center;verticalAlign=middle;resizable=0;points=[];autosize=1;strokeColor=none;fillColor=none;fontSize=100;fontStyle=1" parent="1" vertex="1">
          <mxGeometry x="-1300" y="-1200" width="990" height="250" as="geometry" />
        </mxCell>
      </root>
    </mxGraphModel>
  </diagram>
</mxfile>
